<ttFont>
    <TTGlyph name=".notdef" xMin="-247" yMin="-288" xMax="1957" yMax="1917">
      <contour>
        <pt x="855" y="1917" on="1"/>
        <pt x="1957" y="815" on="1"/>
        <pt x="855" y="-288" on="1"/>
        <pt x="-247" y="815" on="1"/>
      </contour>
      <contour>
        <pt x="919" y="461" on="1"/>
        <pt x="918" y="477" on="1"/>
        <pt x="918" y="491" on="1"/>
        <pt x="918" y="603" on="0"/>
        <pt x="967" y="649" on="1"/>
        <pt x="986" y="666" on="0"/>
        <pt x="1077" y="719" on="0"/>
        <pt x="1173" y="781" on="0"/>
        <pt x="1214" y="824" on="1"/>
        <pt x="1310" y="926" on="0"/>
        <pt x="1310" y="1165" on="0"/>
        <pt x="1245" y="1303" on="0"/>
        <pt x="1188" y="1344" on="1"/>
        <pt x="1084" y="1419" on="0"/>
        <pt x="887" y="1419" on="1"/>
        <pt x="724" y="1419" on="0"/>
        <pt x="586" y="1335" on="1"/>
        <pt x="494" y="1280" on="0"/>
        <pt x="456" y="1196" on="1"/>
        <pt x="436" y="1153" on="0"/>
        <pt x="436" y="1076" on="0"/>
        <pt x="452" y="1023" on="0"/>
        <pt x="468" y="1002" on="1"/>
        <pt x="502" y="957" on="0"/>
        <pt x="545" y="957" on="1"/>
        <pt x="601" y="957" on="0"/>
        <pt x="637" y="976" on="1"/>
        <pt x="657" y="986" on="1"/>
        <pt x="651" y="1010" on="0"/>
        <pt x="651" y="1022" on="1"/>
        <pt x="651" y="1037" on="1"/>
        <pt x="651" y="1066" on="0"/>
        <pt x="672" y="1164" on="0"/>
        <pt x="694" y="1196" on="1"/>
        <pt x="746" y="1267" on="0"/>
        <pt x="870" y="1267" on="1"/>
        <pt x="965" y="1267" on="0"/>
        <pt x="1030" y="1204" on="1"/>
        <pt x="1091" y="1144" on="0"/>
        <pt x="1091" y="1054" on="1"/>
        <pt x="1091" y="929" on="0"/>
        <pt x="967" y="851" on="1"/>
        <pt x="932" y="829" on="0"/>
        <pt x="897" y="810" on="1"/>
        <pt x="830" y="770" on="1"/>
        <pt x="717" y="703" on="0"/>
        <pt x="717" y="595" on="1"/>
        <pt x="717" y="527" on="0"/>
        <pt x="771" y="440" on="1"/>
        <pt x="789" y="412" on="0"/>
        <pt x="851" y="412" on="0"/>
        <pt x="879" y="425" on="0"/>
        <pt x="891" y="433" on="1"/>
        <pt x="917" y="450" on="0"/>
      </contour>
      <contour>
        <pt x="730" y="273" on="0"/>
        <pt x="707" y="218" on="0"/>
        <pt x="707" y="155" on="0"/>
        <pt x="730" y="100" on="0"/>
        <pt x="750" y="80" on="1"/>
        <pt x="791" y="39" on="0"/>
        <pt x="886" y="39" on="0"/>
        <pt x="941" y="61" on="0"/>
        <pt x="961" y="80" on="1"/>
        <pt x="1004" y="122" on="0"/>
        <pt x="1004" y="187" on="1"/>
        <pt x="1004" y="250" on="0"/>
        <pt x="918" y="336" on="0"/>
        <pt x="823" y="336" on="0"/>
        <pt x="769" y="313" on="0"/>
      </contour>
    </TTGlyph>
    <TTGlyph name=".ttfautohint" xMin="0" yMin="0" xMax="0" yMax="0">
      <contour>
        <pt x="0" y="0" on="1"/>
      </contour>
    </TTGlyph>
    <TTGlyph name="A" xMin="-16" yMin="-5" xMax="1675" yMax="1552">
      <contour>
        <pt x="1060" y="118" on="1"/>
        <pt x="1102" y="111" on="0"/>
        <pt x="1144" y="111" on="0"/>
        <pt x="1185" y="120" on="0"/>
        <pt x="1201" y="130" on="1"/>
        <pt x="1237" y="152" on="0"/>
        <pt x="1237" y="199" on="1"/>
        <pt x="1237" y="238" on="0"/>
        <pt x="1213" y="286" on="1"/>
        <pt x="1119" y="519" on="1"/>
        <pt x="486" y="519" on="1"/>
        <pt x="374" y="235" on="1"/>
        <pt x="358" y="196" on="0"/>
        <pt x="358" y="161" on="0"/>
        <pt x="369" y="144" on="0"/>
        <pt x="392" y="132" on="0"/>
        <pt x="409" y="128" on="1"/>
        <pt x="450" y="117" on="1"/>
        <pt x="516" y="106" on="0"/>
        <pt x="535" y="97" on="1"/>
        <pt x="574" y="78" on="0"/>
        <pt x="574" y="41" on="1"/>
        <pt x="574" y="14" on="0"/>
        <pt x="559" y="-5" on="1"/>
        <pt x="540" y="0" on="0"/>
        <pt x="524" y="0" on="1"/>
        <pt x="117" y="0" on="1"/>
        <pt x="-16" y="0" on="0"/>
        <pt x="-16" y="73" on="1"/>
        <pt x="-16" y="107" on="0"/>
        <pt x="-1" y="128" on="1"/>
        <pt x="36" y="118" on="0"/>
        <pt x="87" y="118" on="0"/>
        <pt x="122" y="134" on="0"/>
        <pt x="138" y="153" on="1"/>
        <pt x="165" y="186" on="0"/>
        <pt x="201" y="285" on="1"/>
        <pt x="695" y="1481" on="1"/>
        <pt x="716" y="1529" on="0"/>
        <pt x="814" y="1547" on="1"/>
        <pt x="841" y="1552" on="0"/>
        <pt x="871" y="1552" on="1"/>
        <pt x="932" y="1552" on="0"/>
        <pt x="946" y="1519" on="1"/>
        <pt x="1046" y="1269" on="1"/>
        <pt x="1335" y="587" on="0"/>
        <pt x="1380" y="473" on="1"/>
        <pt x="1470" y="237" on="1"/>
        <pt x="1497" y="160" on="0"/>
        <pt x="1533" y="124" on="0"/>
        <pt x="1575" y="110" on="0"/>
        <pt x="1620" y="101" on="0"/>
        <pt x="1637" y="94" on="1"/>
        <pt x="1675" y="77" on="0"/>
        <pt x="1675" y="42" on="1"/>
        <pt x="1675" y="15" on="0"/>
        <pt x="1660" y="-4" on="1"/>
        <pt x="1641" y="1" on="0"/>
        <pt x="1626" y="1" on="1"/>
        <pt x="1149" y="1" on="1"/>
        <pt x="1098" y="1" on="0"/>
        <pt x="1041" y="26" on="0"/>
        <pt x="1041" y="52" on="1"/>
        <pt x="1041" y="97" on="0"/>
      </contour>
      <contour>
        <pt x="1061" y="661" on="1"/>
        <pt x="799" y="1309" on="1"/>
        <pt x="542" y="661" on="1"/>
      </contour>
    </TTGlyph>
    <TTGlyph name="AE" xMin="34" yMin="-5" xMax="2195" yMax="1538">
      <contour>
        <pt x="927" y="129" on="1"/>
        <pt x="963" y="119" on="0"/>
        <pt x="1037" y="119" on="0"/>
        <pt x="1088" y="129" on="0"/>
        <pt x="1108" y="145" on="1"/>
        <pt x="1153" y="181" on="0"/>
        <pt x="1153" y="270" on="1"/>
        <pt x="1153" y="589" on="1"/>
        <pt x="649" y="589" on="1"/>
        <pt x="442" y="254" on="1"/>
        <pt x="417" y="214" on="0"/>
        <pt x="417" y="160" on="0"/>
        <pt x="432" y="143" on="0"/>
        <pt x="446" y="137" on="1"/>
        <pt x="463" y="129" on="0"/>
        <pt x="544" y="111" on="0"/>
        <pt x="586" y="100" on="0"/>
        <pt x="601" y="92" on="1"/>
        <pt x="633" y="73" on="0"/>
        <pt x="633" y="48" on="1"/>
        <pt x="633" y="14" on="0"/>
        <pt x="618" y="-5" on="1"/>
        <pt x="600" y="0" on="0"/>
        <pt x="589" y="0" on="1"/>
        <pt x="154" y="0" on="1"/>
        <pt x="88" y="0" on="0"/>
        <pt x="34" y="45" on="0"/>
        <pt x="34" y="106" on="0"/>
        <pt x="49" y="129" on="1"/>
        <pt x="74" y="122" on="1"/>
        <pt x="87" y="119" on="0"/>
        <pt x="120" y="119" on="0"/>
        <pt x="163" y="142" on="0"/>
        <pt x="185" y="165" on="1"/>
        <pt x="221" y="202" on="0"/>
        <pt x="282" y="303" on="1"/>
        <pt x="979" y="1424" on="1"/>
        <pt x="932" y="1442" on="0"/>
        <pt x="932" y="1479" on="1"/>
        <pt x="932" y="1520" on="0"/>
        <pt x="948" y="1538" on="1"/>
        <pt x="966" y="1533" on="0"/>
        <pt x="984" y="1533" on="1"/>
        <pt x="2007" y="1533" on="1"/>
        <pt x="2099" y="1533" on="0"/>
        <pt x="2122" y="1516" on="1"/>
        <pt x="2164" y="1486" on="0"/>
        <pt x="2164" y="1384" on="1"/>
        <pt x="2164" y="1284" on="0"/>
        <pt x="2132" y="1165" on="0"/>
        <pt x="2124" y="1152" on="1"/>
        <pt x="2111" y="1130" on="0"/>
        <pt x="2075" y="1130" on="0"/>
        <pt x="2050" y="1136" on="0"/>
        <pt x="2040" y="1141" on="1"/>
        <pt x="2014" y="1153" on="0"/>
        <pt x="2014" y="1164" on="1"/>
        <pt x="2001" y="1310" on="0"/>
        <pt x="1937" y="1384" on="0"/>
        <pt x="1850" y="1409" on="0"/>
        <pt x="1780" y="1409" on="1"/>
        <pt x="1554" y="1409" on="1"/>
        <pt x="1448" y="1409" on="0"/>
        <pt x="1401" y="1367" on="0"/>
        <pt x="1389" y="1312" on="0"/>
        <pt x="1389" y="1269" on="1"/>
        <pt x="1389" y="732" on="1"/>
        <pt x="1447" y="731" on="1"/>
        <pt x="1713" y="731" on="0"/>
        <pt x="1883" y="770" on="1"/>
        <pt x="1919" y="755" on="0"/>
        <pt x="1919" y="662" on="1"/>
        <pt x="1919" y="610" on="0"/>
        <pt x="1900" y="572" on="1"/>
        <pt x="1852" y="567" on="0"/>
        <pt x="1685" y="567" on="0"/>
        <pt x="1586" y="577" on="1"/>
        <pt x="1389" y="598" on="1"/>
        <pt x="1389" y="254" on="1"/>
        <pt x="1389" y="179" on="0"/>
        <pt x="1429" y="153" on="1"/>
        <pt x="1463" y="131" on="0"/>
        <pt x="1551" y="131" on="1"/>
        <pt x="1706" y="135" on="1"/>
        <pt x="1926" y="143" on="0"/>
        <pt x="1991" y="194" on="1"/>
        <pt x="2028" y="224" on="0"/>
        <pt x="2052" y="321" on="0"/>
        <pt x="2052" y="420" on="0"/>
        <pt x="2050" y="442" on="1"/>
        <pt x="2073" y="459" on="0"/>
        <pt x="2103" y="459" on="1"/>
        <pt x="2146" y="459" on="0"/>
        <pt x="2156" y="452" on="1"/>
        <pt x="2195" y="376" on="0"/>
        <pt x="2195" y="197" on="1"/>
        <pt x="2195" y="72" on="0"/>
        <pt x="2166" y="16" on="1"/>
        <pt x="2158" y="0" on="0"/>
        <pt x="2149" y="0" on="1"/>
        <pt x="1034" y="0" on="1"/>
        <pt x="982" y="0" on="0"/>
        <pt x="912" y="36" on="0"/>
        <pt x="912" y="62" on="1"/>
        <pt x="912" y="110" on="0"/>
      </contour>
      <contour>
        <pt x="1153" y="731" on="1"/>
        <pt x="1153" y="1283" on="1"/>
        <pt x="1153" y="1338" on="0"/>
        <pt x="1128" y="1365" on="1"/>
        <pt x="736" y="731" on="1"/>
      </contour>
    </TTGlyph>
    <TTGlyph name="AEacute" xMin="34" yMin="-5" xMax="2195" yMax="1966">
      <component glyphName=".ttfautohint" x="34" y="0" flags="0x0"/>
      <component glyphName="AE" x="0" y="0" flags="0x1004"/>
      <component glyphName="acute.cap" x="1109" y="0" flags="0x1004"/>
    </TTGlyph>
    <TTGlyph name="Aacute" xMin="-16" yMin="-5" xMax="1675" yMax="1966">
      <component glyphName=".ttfautohint" x="0" y="0" flags="0x0"/>
      <component glyphName="A" x="0" y="0" flags="0x1204"/>
      <component glyphName="acute.cap" x="457" y="0" flags="0x1004"/>
    </TTGlyph>
    <TTGlyph name="Abreve" xMin="-16" yMin="-5" xMax="1675" yMax="1976">
      <component glyphName=".ttfautohint" x="0" y="0" flags="0x0"/>
      <component glyphName="A" x="0" y="0" flags="0x1204"/>
      <component glyphName="breve.cap" x="-154" y="0" flags="0x1004"/>
    </TTGlyph>
    <TTGlyph name="Acircumflex" xMin="-16" yMin="-5" xMax="1675" yMax="1969">
      <component glyphName=".ttfautohint" x="0" y="0" flags="0x0"/>
      <component glyphName="A" x="0" y="0" flags="0x1204"/>
      <component glyphName="circumflex.cap" x="414" y="0" flags="0x1004"/>
    </TTGlyph>
    <TTGlyph name="Adieresis" xMin="-16" yMin="-5" xMax="1675" yMax="1958">
      <component glyphName=".ttfautohint" x="0" y="0" flags="0x0"/>
      <component glyphName="A" x="0" y="0" flags="0x1204"/>
      <component glyphName="dieresis.cap" x="319" y="0" flags="0x1004"/>
    </TTGlyph>
    <TTGlyph name="Agrave" xMin="-16" yMin="-5" xMax="1675" yMax="1966">
      <component glyphName=".ttfautohint" x="0" y="0" flags="0x0"/>
      <component glyphName="A" x="0" y="0" flags="0x1204"/>
      <component glyphName="grave.cap" x="548" y="0" flags="0x1004"/>
    </TTGlyph>
    <TTGlyph name="Amacron" xMin="-16" yMin="-5" xMax="1675" yMax="1889">
      <component glyphName=".ttfautohint" x="0" y="0" flags="0x0"/>
      <component glyphName="A" x="0" y="0" flags="0x1204"/>
      <component glyphName="macron.cap" x="356" y="0" flags="0x1004"/>
    </TTGlyph>
    <TTGlyph name="Aogonek" xMin="-16" yMin="-514" xMax="1675" yMax="1552">
      <contour>
        <pt x="1060" y="118" on="1"/>
        <pt x="1102" y="111" on="0"/>
        <pt x="1144" y="111" on="0"/>
        <pt x="1185" y="120" on="0"/>
        <pt x="1201" y="130" on="1"/>
        <pt x="1237" y="152" on="0"/>
        <pt x="1237" y="199" on="1"/>
        <pt x="1237" y="238" on="0"/>
        <pt x="1213" y="286" on="1"/>
        <pt x="1119" y="519" on="1"/>
        <pt x="486" y="519" on="1"/>
        <pt x="374" y="235" on="1"/>
        <pt x="358" y="196" on="0"/>
        <pt x="358" y="161" on="0"/>
        <pt x="369" y="144" on="0"/>
        <pt x="392" y="132" on="0"/>
        <pt x="409" y="128" on="1"/>
        <pt x="450" y="117" on="1"/>
        <pt x="516" y="106" on="0"/>
        <pt x="535" y="97" on="1"/>
        <pt x="574" y="78" on="0"/>
        <pt x="574" y="41" on="1"/>
        <pt x="574" y="14" on="0"/>
        <pt x="559" y="-5" on="1"/>
        <pt x="540" y="0" on="0"/>
        <pt x="524" y="0" on="1"/>
        <pt x="117" y="0" on="1"/>
        <pt x="-16" y="0" on="0"/>
        <pt x="-16" y="73" on="1"/>
        <pt x="-16" y="107" on="0"/>
        <pt x="-1" y="128" on="1"/>
        <pt x="36" y="118" on="0"/>
        <pt x="87" y="118" on="0"/>
        <pt x="122" y="134" on="0"/>
        <pt x="138" y="153" on="1"/>
        <pt x="165" y="186" on="0"/>
        <pt x="201" y="285" on="1"/>
        <pt x="695" y="1481" on="1"/>
        <pt x="716" y="1529" on="0"/>
        <pt x="814" y="1547" on="1"/>
        <pt x="841" y="1552" on="0"/>
        <pt x="871" y="1552" on="1"/>
        <pt x="932" y="1552" on="0"/>
        <pt x="946" y="1519" on="1"/>
        <pt x="1046" y="1269" on="1"/>
        <pt x="1335" y="587" on="0"/>
        <pt x="1380" y="473" on="1"/>
        <pt x="1470" y="237" on="1"/>
        <pt x="1497" y="160" on="0"/>
        <pt x="1533" y="124" on="0"/>
        <pt x="1575" y="110" on="0"/>
        <pt x="1620" y="101" on="0"/>
        <pt x="1637" y="94" on="1"/>
        <pt x="1675" y="77" on="0"/>
        <pt x="1675" y="42" on="1"/>
        <pt x="1675" y="15" on="0"/>
        <pt x="1660" y="-4" on="1"/>
        <pt x="1641" y="1" on="0"/>
        <pt x="1626" y="1" on="1"/>
        <pt x="1444" y="1" on="1"/>
        <pt x="1321" y="-126" on="0"/>
        <pt x="1321" y="-226" on="1"/>
        <pt x="1321" y="-335" on="0"/>
        <pt x="1449" y="-335" on="1"/>
        <pt x="1538" y="-335" on="0"/>
        <pt x="1617" y="-262" on="1"/>
        <pt x="1660" y="-279" on="0"/>
        <pt x="1660" y="-335" on="0"/>
        <pt x="1607" y="-405" on="0"/>
        <pt x="1564" y="-437" on="1"/>
        <pt x="1459" y="-514" on="0"/>
        <pt x="1350" y="-514" on="1"/>
        <pt x="1203" y="-514" on="0"/>
        <pt x="1146" y="-400" on="1"/>
        <pt x="1127" y="-362" on="0"/>
        <pt x="1127" y="-312" on="1"/>
        <pt x="1127" y="-155" on="0"/>
        <pt x="1304" y="1" on="1"/>
        <pt x="1149" y="1" on="1"/>
        <pt x="1098" y="1" on="0"/>
        <pt x="1041" y="26" on="0"/>
        <pt x="1041" y="52" on="1"/>
        <pt x="1041" y="97" on="0"/>
      </contour>
      <contour>
        <pt x="1061" y="661" on="1"/>
        <pt x="799" y="1309" on="1"/>
        <pt x="542" y="661" on="1"/>
      </contour>
    </TTGlyph>
    <TTGlyph name="Aring" xMin="-16" yMin="-5" xMax="1675" yMax="1959">
      <component glyphName=".ttfautohint" x="0" y="0" flags="0x0"/>
      <component glyphName="A" x="0" y="0" flags="0x1204"/>
      <component glyphName="ring.cap" x="169" y="0" flags="0x1004"/>
    </TTGlyph>
    <TTGlyph name="Atilde" xMin="-16" yMin="-5" xMax="1675" yMax="1969">
      <component glyphName=".ttfautohint" x="0" y="0" flags="0x0"/>
      <component glyphName="A" x="0" y="0" flags="0x1204"/>
      <component glyphName="tilde.cap" x="356" y="0" flags="0x1004"/>
    </TTGlyph>
    <TTGlyph name="B" xMin="79" yMin="-10" xMax="1450" yMax="1543">
      <contour>
        <pt x="786" y="-10" on="1"/>
        <pt x="454" y="1" on="1"/>
        <pt x="201" y="1" on="1"/>
        <pt x="149" y="1" on="0"/>
        <pt x="79" y="36" on="0"/>
        <pt x="79" y="62" on="1"/>
        <pt x="79" y="110" on="0"/>
        <pt x="94" y="129" on="1"/>
        <pt x="128" y="119" on="0"/>
        <pt x="204" y="119" on="0"/>
        <pt x="253" y="129" on="0"/>
        <pt x="272" y="145" on="1"/>
        <pt x="316" y="181" on="0"/>
        <pt x="316" y="270" on="1"/>
        <pt x="316" y="1289" on="1"/>
        <pt x="316" y="1382" on="0"/>
        <pt x="203" y="1405" on="1"/>
        <pt x="131" y="1420" on="0"/>
        <pt x="90" y="1455" on="0"/>
        <pt x="90" y="1476" on="1"/>
        <pt x="90" y="1522" on="0"/>
        <pt x="106" y="1538" on="1"/>
        <pt x="124" y="1533" on="0"/>
        <pt x="140" y="1533" on="1"/>
        <pt x="140" y="1533" on="0"/>
        <pt x="437" y="1533" on="1"/>
        <pt x="483" y="1533" on="0"/>
        <pt x="640" y="1543" on="0"/>
        <pt x="921" y="1543" on="0"/>
        <pt x="1144" y="1491" on="0"/>
        <pt x="1216" y="1444" on="1"/>
        <pt x="1354" y="1353" on="0"/>
        <pt x="1354" y="1188" on="1"/>
        <pt x="1354" y="1000" on="0"/>
        <pt x="1196" y="884" on="1"/>
        <pt x="1137" y="841" on="0"/>
        <pt x="1045" y="810" on="1"/>
        <pt x="1340" y="786" on="0"/>
        <pt x="1424" y="584" on="1"/>
        <pt x="1450" y="519" on="0"/>
        <pt x="1450" y="340" on="0"/>
        <pt x="1368" y="173" on="0"/>
        <pt x="1285" y="114" on="1"/>
        <pt x="1113" y="-10" on="0"/>
      </contour>
      <contour>
        <pt x="549" y="850" on="1"/>
        <pt x="700" y="849" on="1"/>
        <pt x="745" y="849" on="0"/>
        <pt x="870" y="849" on="0"/>
        <pt x="990" y="894" on="0"/>
        <pt x="1030" y="932" on="1"/>
        <pt x="1112" y="1010" on="0"/>
        <pt x="1112" y="1132" on="1"/>
        <pt x="1112" y="1271" on="0"/>
        <pt x="1044" y="1336" on="1"/>
        <pt x="964" y="1415" on="0"/>
        <pt x="767" y="1415" on="1"/>
        <pt x="633" y="1415" on="0"/>
        <pt x="568" y="1365" on="0"/>
        <pt x="549" y="1298" on="0"/>
        <pt x="549" y="1244" on="1"/>
      </contour>
      <contour>
        <pt x="790" y="717" on="1"/>
        <pt x="627" y="717" on="0"/>
        <pt x="549" y="715" on="1"/>
        <pt x="549" y="241" on="1"/>
        <pt x="549" y="140" on="0"/>
        <pt x="681" y="128" on="1"/>
        <pt x="722" y="125" on="0"/>
        <pt x="868" y="125" on="0"/>
        <pt x="1028" y="155" on="0"/>
        <pt x="1086" y="191" on="1"/>
        <pt x="1207" y="267" on="0"/>
        <pt x="1207" y="432" on="1"/>
        <pt x="1207" y="717" on="0"/>
      </contour>
    </TTGlyph>
    <TTGlyph name="C" xMin="118" yMin="-21" xMax="1359" yMax="1552">
      <contour>
        <pt x="1138" y="1100" on="1"/>
        <pt x="1142" y="1128" on="0"/>
        <pt x="1142" y="1236" on="0"/>
        <pt x="1100" y="1325" on="0"/>
        <pt x="1064" y="1350" on="1"/>
        <pt x="1001" y="1393" on="0"/>
        <pt x="748" y="1393" on="0"/>
        <pt x="555" y="1302" on="0"/>
        <pt x="490" y="1220" on="1"/>
        <pt x="359" y="1055" on="0"/>
        <pt x="359" y="771" on="1"/>
        <pt x="359" y="502" on="0"/>
        <pt x="492" y="342" on="1"/>
        <pt x="630" y="175" on="0"/>
        <pt x="865" y="175" on="1"/>
        <pt x="1096" y="175" on="0"/>
        <pt x="1225" y="276" on="1"/>
        <pt x="1264" y="306" on="0"/>
        <pt x="1296" y="341" on="1"/>
        <pt x="1326" y="332" on="0"/>
        <pt x="1345" y="288" on="1"/>
        <pt x="1351" y="273" on="0"/>
        <pt x="1351" y="224" on="0"/>
        <pt x="1280" y="129" on="0"/>
        <pt x="1212" y="85" on="1"/>
        <pt x="1050" y="-21" on="0"/>
        <pt x="824" y="-21" on="1"/>
        <pt x="500" y="-21" on="0"/>
        <pt x="308" y="176" on="1"/>
        <pt x="118" y="369" on="0"/>
        <pt x="118" y="693" on="1"/>
        <pt x="118" y="891" on="0"/>
        <pt x="244" y="1209" on="0"/>
        <pt x="462" y="1432" on="0"/>
        <pt x="753" y="1552" on="0"/>
        <pt x="1028" y="1552" on="0"/>
        <pt x="1194" y="1506" on="0"/>
        <pt x="1249" y="1466" on="1"/>
        <pt x="1359" y="1384" on="0"/>
        <pt x="1359" y="1248" on="1"/>
        <pt x="1359" y="1144" on="0"/>
        <pt x="1282" y="1101" on="1"/>
        <pt x="1256" y="1086" on="0"/>
        <pt x="1226" y="1086" on="1"/>
        <pt x="1164" y="1086" on="0"/>
      </contour>
    </TTGlyph>
    <TTGlyph name="Cacute" xMin="118" yMin="-21" xMax="1359" yMax="1966">
      <component glyphName=".ttfautohint" x="118" y="0" flags="0x0"/>
      <component glyphName="C" x="0" y="0" flags="0x1204"/>
      <component glyphName="acute.cap" x="469" y="0" flags="0x1004"/>
    </TTGlyph>
    <TTGlyph name="Ccaron" xMin="118" yMin="-21" xMax="1359" yMax="1969">
      <component glyphName=".ttfautohint" x="118" y="0" flags="0x0"/>
      <component glyphName="C" x="0" y="0" flags="0x1204"/>
      <component glyphName="caron.cap" x="221" y="0" flags="0x1004"/>
    </TTGlyph>
    <TTGlyph name="Ccedilla" xMin="118" yMin="-503" xMax="1359" yMax="1552">
      <contour>
        <pt x="827" y="-111" on="1"/>
        <pt x="1057" y="-116" on="0"/>
        <pt x="1057" y="-268" on="1"/>
        <pt x="1057" y="-425" on="0"/>
        <pt x="798" y="-482" on="1"/>
        <pt x="705" y="-503" on="0"/>
        <pt x="632" y="-501" on="1"/>
        <pt x="613" y="-489" on="0"/>
        <pt x="613" y="-450" on="1"/>
        <pt x="613" y="-408" on="0"/>
        <pt x="670" y="-400" on="0"/>
        <pt x="740" y="-386" on="0"/>
        <pt x="770" y="-374" on="1"/>
        <pt x="843" y="-345" on="0"/>
        <pt x="843" y="-296" on="1"/>
        <pt x="843" y="-229" on="0"/>
        <pt x="705" y="-224" on="1"/>
        <pt x="694" y="-224" on="0"/>
        <pt x="681" y="-181" on="0"/>
        <pt x="681" y="-178" on="1"/>
        <pt x="718" y="-15" on="1"/>
        <pt x="438" y="17" on="0"/>
        <pt x="278" y="208" on="1"/>
        <pt x="118" y="397" on="0"/>
        <pt x="118" y="693" on="1"/>
        <pt x="118" y="891" on="0"/>
        <pt x="244" y="1209" on="0"/>
        <pt x="462" y="1432" on="0"/>
        <pt x="753" y="1552" on="0"/>
        <pt x="1028" y="1552" on="0"/>
        <pt x="1194" y="1506" on="0"/>
        <pt x="1249" y="1466" on="1"/>
        <pt x="1359" y="1384" on="0"/>
        <pt x="1359" y="1248" on="1"/>
        <pt x="1359" y="1144" on="0"/>
        <pt x="1282" y="1101" on="1"/>
        <pt x="1256" y="1086" on="0"/>
        <pt x="1226" y="1086" on="1"/>
        <pt x="1164" y="1086" on="0"/>
        <pt x="1138" y="1100" on="1"/>
        <pt x="1142" y="1128" on="0"/>
        <pt x="1142" y="1236" on="0"/>
        <pt x="1100" y="1325" on="0"/>
        <pt x="1064" y="1350" on="1"/>
        <pt x="1001" y="1393" on="0"/>
        <pt x="748" y="1393" on="0"/>
        <pt x="555" y="1302" on="0"/>
        <pt x="490" y="1220" on="1"/>
        <pt x="359" y="1055" on="0"/>
        <pt x="359" y="771" on="1"/>
        <pt x="359" y="502" on="0"/>
        <pt x="492" y="342" on="1"/>
        <pt x="630" y="175" on="0"/>
        <pt x="865" y="175" on="1"/>
        <pt x="1096" y="175" on="0"/>
        <pt x="1225" y="276" on="1"/>
        <pt x="1264" y="306" on="0"/>
        <pt x="1296" y="341" on="1"/>
        <pt x="1326" y="332" on="0"/>
        <pt x="1345" y="288" on="1"/>
        <pt x="1351" y="273" on="0"/>
        <pt x="1351" y="235" on="0"/>
        <pt x="1320" y="178" on="0"/>
        <pt x="1260" y="118" on="0"/>
        <pt x="1173" y="59" on="0"/>
        <pt x="1116" y="36" on="1"/>
        <pt x="987" y="-18" on="0"/>
        <pt x="841" y="-20" on="1"/>
      </contour>
    </TTGlyph>
    <TTGlyph name="Ccircumflex" xMin="118" yMin="-21" xMax="1359" yMax="1969">
      <component glyphName=".ttfautohint" x="118" y="0" flags="0x0"/>
      <component glyphName="C" x="0" y="0" flags="0x1204"/>
      <component glyphName="circumflex.cap" x="426" y="0" flags="0x1004"/>
    </TTGlyph>
    <TTGlyph name="Cdotaccent" xMin="118" yMin="-21" xMax="1359" yMax="1956">
      <component glyphName=".ttfautohint" x="118" y="0" flags="0x0"/>
      <component glyphName="C" x="0" y="0" flags="0x1204"/>
      <component glyphName="dotaccent.cap" x="397" y="0" flags="0x1004"/>
    </TTGlyph>
    <TTGlyph name="D" xMin="74" yMin="-10" xMax="1624" yMax="1546">
      <contour>
        <pt x="739" y="-10" on="1"/>
        <pt x="454" y="1" on="1"/>
        <pt x="196" y="1" on="1"/>
        <pt x="144" y="1" on="0"/>
        <pt x="74" y="36" on="0"/>
        <pt x="74" y="62" on="1"/>
        <pt x="74" y="110" on="0"/>
        <pt x="89" y="129" on="1"/>
        <pt x="125" y="119" on="0"/>
        <pt x="199" y="119" on="0"/>
        <pt x="250" y="129" on="0"/>
        <pt x="270" y="145" on="1"/>
        <pt x="316" y="181" on="0"/>
        <pt x="316" y="270" on="1"/>
        <pt x="316" y="1289" on="1"/>
        <pt x="316" y="1382" on="0"/>
        <pt x="200" y="1405" on="1"/>
        <pt x="128" y="1420" on="0"/>
        <pt x="85" y="1455" on="0"/>
        <pt x="85" y="1476" on="1"/>
        <pt x="85" y="1522" on="0"/>
        <pt x="101" y="1538" on="1"/>
        <pt x="119" y="1533" on="0"/>
        <pt x="134" y="1533" on="1"/>
        <pt x="134" y="1533" on="0"/>
        <pt x="437" y="1533" on="1"/>
        <pt x="460" y="1533" on="0"/>
        <pt x="498" y="1535" on="1"/>
        <pt x="498" y="1535" on="0"/>
        <pt x="583" y="1540" on="1"/>
        <pt x="708" y="1546" on="0"/>
        <pt x="971" y="1546" on="0"/>
        <pt x="1219" y="1483" on="0"/>
        <pt x="1400" y="1375" on="0"/>
        <pt x="1521" y="1232" on="0"/>
        <pt x="1558" y="1152" on="1"/>
        <pt x="1624" y="1005" on="0"/>
        <pt x="1624" y="822" on="1"/>
        <pt x="1624" y="490" on="0"/>
        <pt x="1452" y="270" on="1"/>
        <pt x="1317" y="97" on="0"/>
        <pt x="1055" y="26" on="1"/>
        <pt x="919" y="-10" on="0"/>
      </contour>
      <contour>
        <pt x="552" y="241" on="1"/>
        <pt x="552" y="166" on="0"/>
        <pt x="599" y="144" on="1"/>
        <pt x="639" y="126" on="0"/>
        <pt x="942" y="126" on="0"/>
        <pt x="1178" y="226" on="0"/>
        <pt x="1248" y="311" on="1"/>
        <pt x="1374" y="464" on="0"/>
        <pt x="1374" y="742" on="1"/>
        <pt x="1374" y="1219" on="0"/>
        <pt x="1037" y="1365" on="1"/>
        <pt x="915" y="1418" on="0"/>
        <pt x="736" y="1418" on="1"/>
        <pt x="617" y="1418" on="0"/>
        <pt x="565" y="1371" on="0"/>
        <pt x="552" y="1302" on="0"/>
        <pt x="552" y="1244" on="1"/>
      </contour>
    </TTGlyph>
    <TTGlyph name="Dcaron" xMin="74" yMin="-10" xMax="1624" yMax="1969">
      <component glyphName=".ttfautohint" x="74" y="0" flags="0x0"/>
      <component glyphName="D" x="0" y="0" flags="0x1204"/>
      <component glyphName="caron.cap" x="149" y="0" flags="0x1004"/>
    </TTGlyph>
    <TTGlyph name="Dcroat" xMin="74" yMin="-10" xMax="1624" yMax="1546">
      <contour>
        <pt x="739" y="-10" on="1"/>
        <pt x="454" y="1" on="1"/>
        <pt x="196" y="1" on="1"/>
        <pt x="144" y="1" on="0"/>
        <pt x="74" y="36" on="0"/>
        <pt x="74" y="62" on="1"/>
        <pt x="74" y="110" on="0"/>
        <pt x="89" y="129" on="1"/>
        <pt x="125" y="119" on="0"/>
        <pt x="199" y="119" on="0"/>
        <pt x="250" y="129" on="0"/>
        <pt x="270" y="145" on="1"/>
        <pt x="316" y="181" on="0"/>
        <pt x="316" y="270" on="1"/>
        <pt x="316" y="694" on="1"/>
        <pt x="133" y="694" on="1"/>
        <pt x="122" y="720" on="0"/>
        <pt x="122" y="776" on="0"/>
        <pt x="129" y="812" on="0"/>
        <pt x="136" y="826" on="1"/>
        <pt x="153" y="857" on="0"/>
        <pt x="178" y="857" on="1"/>
        <pt x="316" y="857" on="1"/>
        <pt x="316" y="1289" on="1"/>
        <pt x="316" y="1382" on="0"/>
        <pt x="200" y="1405" on="1"/>
        <pt x="128" y="1420" on="0"/>
        <pt x="85" y="1455" on="0"/>
        <pt x="85" y="1476" on="1"/>
        <pt x="85" y="1522" on="0"/>
        <pt x="101" y="1538" on="1"/>
        <pt x="119" y="1533" on="0"/>
        <pt x="134" y="1533" on="1"/>
        <pt x="437" y="1533" on="1"/>
        <pt x="460" y="1533" on="0"/>
        <pt x="498" y="1535" on="1"/>
        <pt x="583" y="1540" on="1"/>
        <pt x="708" y="1546" on="0"/>
        <pt x="971" y="1546" on="0"/>
        <pt x="1219" y="1483" on="0"/>
        <pt x="1400" y="1375" on="0"/>
        <pt x="1521" y="1232" on="0"/>
        <pt x="1558" y="1152" on="1"/>
        <pt x="1624" y="1005" on="0"/>
        <pt x="1624" y="822" on="1"/>
        <pt x="1624" y="490" on="0"/>
        <pt x="1452" y="270" on="1"/>
        <pt x="1317" y="97" on="0"/>
        <pt x="1055" y="26" on="1"/>
        <pt x="919" y="-10" on="0"/>
      </contour>
      <contour>
        <pt x="859" y="857" on="1"/>
        <pt x="872" y="835" on="0"/>
        <pt x="872" y="794" on="1"/>
        <pt x="872" y="728" on="0"/>
        <pt x="839" y="702" on="1"/>
        <pt x="828" y="694" on="0"/>
        <pt x="813" y="694" on="1"/>
        <pt x="552" y="694" on="1"/>
        <pt x="552" y="241" on="1"/>
        <pt x="552" y="166" on="0"/>
        <pt x="599" y="144" on="1"/>
        <pt x="639" y="126" on="0"/>
        <pt x="942" y="126" on="0"/>
        <pt x="1178" y="226" on="0"/>
        <pt x="1248" y="311" on="1"/>
        <pt x="1374" y="464" on="0"/>
        <pt x="1374" y="742" on="1"/>
        <pt x="1374" y="1219" on="0"/>
        <pt x="1037" y="1365" on="1"/>
        <pt x="915" y="1418" on="0"/>
        <pt x="736" y="1418" on="1"/>
        <pt x="617" y="1418" on="0"/>
        <pt x="565" y="1371" on="0"/>
        <pt x="552" y="1302" on="0"/>
        <pt x="552" y="1244" on="1"/>
        <pt x="552" y="857" on="1"/>
      </contour>
    </TTGlyph>
    <TTGlyph name="Delta" xMin="46" yMin="0" xMax="1493" yMax="1552">
      <contour>
        <pt x="136" y="0" on="1"/>
        <pt x="113" y="0" on="0"/>
        <pt x="90" y="36" on="1"/>
        <pt x="46" y="106" on="0"/>
        <pt x="65" y="139" on="1"/>
        <pt x="652" y="1481" on="1"/>
        <pt x="673" y="1529" on="0"/>
        <pt x="771" y="1547" on="1"/>
        <pt x="798" y="1552" on="0"/>
        <pt x="828" y="1552" on="1"/>
        <pt x="888" y="1552" on="0"/>
        <pt x="902" y="1519" on="1"/>
        <pt x="1056" y="1146" on="1"/>
        <pt x="1352" y="471" on="1"/>
        <pt x="1422" y="306" on="0"/>
        <pt x="1493" y="120" on="0"/>
        <pt x="1493" y="103" on="1"/>
        <pt x="1493" y="43" on="0"/>
        <pt x="1450" y="10" on="1"/>
        <pt x="1437" y="0" on="0"/>
        <pt x="1424" y="0" on="1"/>
      </contour>
      <contour>
        <pt x="1235" y="159" on="1"/>
        <pt x="752" y="1305" on="1"/>
        <pt x="265" y="159" on="1"/>
      </contour>
    </TTGlyph>
    <TTGlyph name="E" xMin="88" yMin="0" xMax="1358" yMax="1538">
      <contour>
        <pt x="1209" y="445" on="1"/>
        <pt x="1236" y="468" on="0"/>
        <pt x="1266" y="468" on="1"/>
        <pt x="1312" y="468" on="0"/>
        <pt x="1319" y="455" on="1"/>
        <pt x="1358" y="377" on="0"/>
        <pt x="1358" y="197" on="1"/>
        <pt x="1358" y="72" on="0"/>
        <pt x="1330" y="16" on="1"/>
        <pt x="1321" y="0" on="0"/>
        <pt x="1311" y="0" on="1"/>
        <pt x="207" y="0" on="1"/>
        <pt x="88" y="0" on="0"/>
        <pt x="88" y="71" on="1"/>
        <pt x="88" y="109" on="0"/>
        <pt x="104" y="129" on="1"/>
        <pt x="138" y="119" on="0"/>
        <pt x="202" y="119" on="0"/>
        <pt x="248" y="129" on="0"/>
        <pt x="268" y="145" on="1"/>
        <pt x="316" y="182" on="0"/>
        <pt x="316" y="270" on="1"/>
        <pt x="316" y="1283" on="1"/>
        <pt x="316" y="1370" on="0"/>
        <pt x="246" y="1394" on="1"/>
        <pt x="226" y="1401" on="0"/>
        <pt x="183" y="1412" on="0"/>
        <pt x="144" y="1423" on="0"/>
        <pt x="129" y="1430" on="1"/>
        <pt x="95" y="1448" on="0"/>
        <pt x="95" y="1479" on="1"/>
        <pt x="95" y="1520" on="0"/>
        <pt x="111" y="1538" on="1"/>
        <pt x="129" y="1533" on="0"/>
        <pt x="147" y="1533" on="1"/>
        <pt x="1170" y="1533" on="1"/>
        <pt x="1262" y="1533" on="0"/>
        <pt x="1285" y="1516" on="1"/>
        <pt x="1327" y="1486" on="0"/>
        <pt x="1327" y="1384" on="1"/>
        <pt x="1327" y="1286" on="0"/>
        <pt x="1294" y="1162" on="0"/>
        <pt x="1287" y="1150" on="1"/>
        <pt x="1277" y="1132" on="0"/>
        <pt x="1248" y="1132" on="1"/>
        <pt x="1206" y="1132" on="0"/>
        <pt x="1175" y="1153" on="0"/>
        <pt x="1174" y="1158" on="1"/>
        <pt x="1161" y="1301" on="0"/>
        <pt x="1097" y="1380" on="0"/>
        <pt x="1010" y="1409" on="0"/>
        <pt x="940" y="1409" on="1"/>
        <pt x="717" y="1409" on="1"/>
        <pt x="611" y="1409" on="0"/>
        <pt x="564" y="1367" on="0"/>
        <pt x="552" y="1312" on="0"/>
        <pt x="552" y="1269" on="1"/>
        <pt x="552" y="843" on="1"/>
        <pt x="611" y="842" on="1"/>
        <pt x="832" y="842" on="0"/>
        <pt x="1021" y="881" on="1"/>
        <pt x="1035" y="874" on="0"/>
        <pt x="1057" y="809" on="0"/>
        <pt x="1057" y="777" on="1"/>
        <pt x="1057" y="723" on="0"/>
        <pt x="1039" y="683" on="1"/>
        <pt x="973" y="677" on="0"/>
        <pt x="801" y="677" on="0"/>
        <pt x="552" y="705" on="1"/>
        <pt x="552" y="254" on="1"/>
        <pt x="552" y="179" on="0"/>
        <pt x="592" y="153" on="1"/>
        <pt x="626" y="131" on="0"/>
        <pt x="714" y="131" on="1"/>
        <pt x="865" y="135" on="1"/>
        <pt x="1084" y="143" on="0"/>
        <pt x="1150" y="196" on="1"/>
        <pt x="1187" y="226" on="0"/>
        <pt x="1211" y="324" on="0"/>
        <pt x="1211" y="423" on="0"/>
      </contour>
    </TTGlyph>
    <TTGlyph name="Eacute" xMin="88" yMin="0" xMax="1358" yMax="1966">
      <component glyphName=".ttfautohint" x="88" y="0" flags="0x0"/>
      <component glyphName="E" x="0" y="0" flags="0x1204"/>
      <component glyphName="acute.cap" x="392" y="0" flags="0x1004"/>
    </TTGlyph>
    <TTGlyph name="Ebreve" xMin="88" yMin="0" xMax="1358" yMax="1976">
      <component glyphName=".ttfautohint" x="88" y="0" flags="0x0"/>
      <component glyphName="E" x="0" y="0" flags="0x1204"/>
      <component glyphName="breve.cap" x="-219" y="0" flags="0x1004"/>
    </TTGlyph>
    <TTGlyph name="Ecaron" xMin="88" yMin="0" xMax="1358" yMax="1969">
      <component glyphName=".ttfautohint" x="88" y="0" flags="0x0"/>
      <component glyphName="E" x="0" y="0" flags="0x1204"/>
      <component glyphName="caron.cap" x="145" y="0" flags="0x1004"/>
    </TTGlyph>
    <TTGlyph name="Ecircumflex" xMin="88" yMin="0" xMax="1358" yMax="1969">
      <component glyphName=".ttfautohint" x="88" y="0" flags="0x0"/>
      <component glyphName="E" x="0" y="0" flags="0x1204"/>
      <component glyphName="circumflex.cap" x="349" y="0" flags="0x1004"/>
    </TTGlyph>
    <TTGlyph name="Edieresis" xMin="88" yMin="0" xMax="1358" yMax="1958">
      <component glyphName=".ttfautohint" x="88" y="0" flags="0x0"/>
      <component glyphName="E" x="0" y="0" flags="0x1204"/>
      <component glyphName="dieresis.cap" x="254" y="0" flags="0x1004"/>
    </TTGlyph>
    <TTGlyph name="Edotaccent" xMin="88" yMin="0" xMax="1358" yMax="1956">
      <component glyphName=".ttfautohint" x="88" y="0" flags="0x0"/>
      <component glyphName="E" x="0" y="0" flags="0x1204"/>
      <component glyphName="dotaccent.cap" x="320" y="0" flags="0x1004"/>
    </TTGlyph>
    <TTGlyph name="Egrave" xMin="88" yMin="0" xMax="1358" yMax="1966">
      <component glyphName=".ttfautohint" x="88" y="0" flags="0x0"/>
      <component glyphName="E" x="0" y="0" flags="0x1204"/>
      <component glyphName="grave.cap" x="483" y="0" flags="0x1004"/>
    </TTGlyph>
    <TTGlyph name="Emacron" xMin="88" yMin="0" xMax="1358" yMax="1889">
      <component glyphName=".ttfautohint" x="88" y="0" flags="0x0"/>
      <component glyphName="E" x="0" y="0" flags="0x1204"/>
      <component glyphName="macron.cap" x="291" y="0" flags="0x1004"/>
    </TTGlyph>
    <TTGlyph name="Eng" xMin="81" yMin="-514" xMax="1768" yMax="1538">
      <contour>
        <pt x="215" y="0" on="1"/>
        <pt x="81" y="0" on="0"/>
        <pt x="81" y="77" on="1"/>
        <pt x="81" y="112" on="0"/>
        <pt x="97" y="126" on="1"/>
        <pt x="126" y="118" on="0"/>
        <pt x="189" y="118" on="0"/>
        <pt x="236" y="134" on="0"/>
        <pt x="254" y="149" on="1"/>
        <pt x="290" y="180" on="0"/>
        <pt x="290" y="236" on="1"/>
        <pt x="290" y="1325" on="1"/>
        <pt x="288" y="1365" on="0"/>
        <pt x="258" y="1405" on="0"/>
        <pt x="198" y="1422" on="0"/>
        <pt x="159" y="1430" on="0"/>
        <pt x="143" y="1436" on="1"/>
        <pt x="108" y="1451" on="0"/>
        <pt x="108" y="1473" on="1"/>
        <pt x="108" y="1519" on="0"/>
        <pt x="123" y="1538" on="1"/>
        <pt x="144" y="1533" on="0"/>
        <pt x="187" y="1533" on="1"/>
        <pt x="382" y="1533" on="1"/>
        <pt x="470" y="1533" on="0"/>
        <pt x="540" y="1444" on="1"/>
        <pt x="1381" y="378" on="1"/>
        <pt x="1381" y="1311" on="1"/>
        <pt x="1380" y="1351" on="0"/>
        <pt x="1349" y="1405" on="0"/>
        <pt x="1276" y="1423" on="0"/>
        <pt x="1220" y="1432" on="0"/>
        <pt x="1198" y="1440" on="1"/>
        <pt x="1151" y="1456" on="0"/>
        <pt x="1151" y="1492" on="1"/>
        <pt x="1151" y="1522" on="0"/>
        <pt x="1167" y="1538" on="1"/>
        <pt x="1188" y="1533" on="0"/>
        <pt x="1231" y="1533" on="1"/>
        <pt x="1634" y="1533" on="1"/>
        <pt x="1768" y="1533" on="0"/>
        <pt x="1768" y="1476" on="1"/>
        <pt x="1768" y="1428" on="0"/>
        <pt x="1753" y="1411" on="1"/>
        <pt x="1728" y="1418" on="0"/>
        <pt x="1663" y="1418" on="0"/>
        <pt x="1615" y="1415" on="0"/>
        <pt x="1596" y="1404" on="1"/>
        <pt x="1554" y="1381" on="0"/>
        <pt x="1552" y="1310" on="1"/>
        <pt x="1552" y="28" on="1"/>
        <pt x="1552" y="7" on="0"/>
        <pt x="1543" y="-2" on="1"/>
        <pt x="1532" y="-245" on="0"/>
        <pt x="1406" y="-386" on="1"/>
        <pt x="1292" y="-514" on="0"/>
        <pt x="1127" y="-514" on="1"/>
        <pt x="1030" y="-514" on="0"/>
        <pt x="970" y="-467" on="1"/>
        <pt x="915" y="-424" on="0"/>
        <pt x="915" y="-367" on="1"/>
        <pt x="915" y="-308" on="0"/>
        <pt x="956" y="-278" on="1"/>
        <pt x="995" y="-250" on="0"/>
        <pt x="1051" y="-260" on="1"/>
        <pt x="1061" y="-341" on="0"/>
        <pt x="1152" y="-341" on="1"/>
        <pt x="1298" y="-341" on="0"/>
        <pt x="1352" y="-151" on="1"/>
        <pt x="1372" y="-78" on="0"/>
        <pt x="1374" y="36" on="1"/>
        <pt x="1350" y="58" on="0"/>
        <pt x="1326" y="91" on="1"/>
        <pt x="461" y="1179" on="1"/>
        <pt x="461" y="222" on="1"/>
        <pt x="466" y="136" on="0"/>
        <pt x="542" y="116" on="1"/>
        <pt x="571" y="110" on="0"/>
        <pt x="628" y="102" on="0"/>
        <pt x="650" y="96" on="1"/>
        <pt x="701" y="83" on="0"/>
        <pt x="701" y="50" on="1"/>
        <pt x="701" y="14" on="0"/>
        <pt x="686" y="-5" on="1"/>
        <pt x="665" y="0" on="0"/>
        <pt x="622" y="0" on="1"/>
      </contour>
    </TTGlyph>
    <TTGlyph name="Eogonek" xMin="88" yMin="-514" xMax="1358" yMax="1538">
      <contour>
        <pt x="806" y="-312" on="1"/>
        <pt x="806" y="-155" on="0"/>
        <pt x="982" y="0" on="1"/>
        <pt x="207" y="0" on="1"/>
        <pt x="88" y="0" on="0"/>
        <pt x="88" y="71" on="1"/>
        <pt x="88" y="109" on="0"/>
        <pt x="104" y="129" on="1"/>
        <pt x="138" y="119" on="0"/>
        <pt x="202" y="119" on="0"/>
        <pt x="248" y="129" on="0"/>
        <pt x="268" y="145" on="1"/>
        <pt x="316" y="182" on="0"/>
        <pt x="316" y="270" on="1"/>
        <pt x="316" y="1283" on="1"/>
        <pt x="316" y="1370" on="0"/>
        <pt x="246" y="1394" on="1"/>
        <pt x="226" y="1401" on="0"/>
        <pt x="183" y="1412" on="0"/>
        <pt x="144" y="1423" on="0"/>
        <pt x="129" y="1430" on="1"/>
        <pt x="95" y="1448" on="0"/>
        <pt x="95" y="1479" on="1"/>
        <pt x="95" y="1520" on="0"/>
        <pt x="111" y="1538" on="1"/>
        <pt x="129" y="1533" on="0"/>
        <pt x="147" y="1533" on="1"/>
        <pt x="147" y="1533" on="0"/>
        <pt x="1170" y="1533" on="1"/>
        <pt x="1262" y="1533" on="0"/>
        <pt x="1285" y="1516" on="1"/>
        <pt x="1327" y="1486" on="0"/>
        <pt x="1327" y="1384" on="1"/>
        <pt x="1327" y="1286" on="0"/>
        <pt x="1294" y="1162" on="0"/>
        <pt x="1287" y="1150" on="1"/>
        <pt x="1277" y="1132" on="0"/>
        <pt x="1248" y="1132" on="1"/>
        <pt x="1206" y="1132" on="0"/>
        <pt x="1175" y="1153" on="0"/>
        <pt x="1174" y="1158" on="1"/>
        <pt x="1161" y="1301" on="0"/>
        <pt x="1097" y="1380" on="0"/>
        <pt x="1010" y="1409" on="0"/>
        <pt x="940" y="1409" on="1"/>
        <pt x="717" y="1409" on="1"/>
        <pt x="611" y="1409" on="0"/>
        <pt x="564" y="1367" on="0"/>
        <pt x="552" y="1312" on="0"/>
        <pt x="552" y="1269" on="1"/>
        <pt x="552" y="843" on="1"/>
        <pt x="611" y="842" on="1"/>
        <pt x="832" y="842" on="0"/>
        <pt x="1021" y="881" on="1"/>
        <pt x="1035" y="874" on="0"/>
        <pt x="1057" y="809" on="0"/>
        <pt x="1057" y="777" on="1"/>
        <pt x="1057" y="723" on="0"/>
        <pt x="1039" y="683" on="1"/>
        <pt x="973" y="677" on="0"/>
        <pt x="801" y="677" on="0"/>
        <pt x="552" y="705" on="1"/>
        <pt x="552" y="254" on="1"/>
        <pt x="552" y="179" on="0"/>
        <pt x="592" y="153" on="1"/>
        <pt x="626" y="131" on="0"/>
        <pt x="714" y="131" on="1"/>
        <pt x="865" y="135" on="1"/>
        <pt x="1084" y="143" on="0"/>
        <pt x="1150" y="196" on="1"/>
        <pt x="1187" y="226" on="0"/>
        <pt x="1211" y="324" on="0"/>
        <pt x="1211" y="423" on="0"/>
        <pt x="1209" y="445" on="1"/>
        <pt x="1236" y="468" on="0"/>
        <pt x="1266" y="468" on="1"/>
        <pt x="1312" y="468" on="0"/>
        <pt x="1319" y="455" on="1"/>
        <pt x="1358" y="377" on="0"/>
        <pt x="1358" y="197" on="1"/>
        <pt x="1358" y="72" on="0"/>
        <pt x="1330" y="16" on="1"/>
        <pt x="1321" y="0" on="0"/>
        <pt x="1311" y="0" on="1"/>
        <pt x="1122" y="0" on="1"/>
        <pt x="1000" y="-129" on="0"/>
        <pt x="1000" y="-226" on="1"/>
        <pt x="1000" y="-335" on="0"/>
        <pt x="1128" y="-335" on="1"/>
        <pt x="1217" y="-335" on="0"/>
        <pt x="1296" y="-262" on="1"/>
        <pt x="1339" y="-279" on="0"/>
        <pt x="1339" y="-335" on="0"/>
        <pt x="1286" y="-405" on="0"/>
        <pt x="1242" y="-437" on="1"/>
        <pt x="1138" y="-514" on="0"/>
        <pt x="1029" y="-514" on="1"/>
        <pt x="882" y="-514" on="0"/>
        <pt x="825" y="-400" on="1"/>
        <pt x="806" y="-362" on="0"/>
      </contour>
    </TTGlyph>
    <TTGlyph name="Eth" xMin="74" yMin="-10" xMax="1624" yMax="1546">
      <contour>
        <pt x="739" y="-10" on="1"/>
        <pt x="454" y="1" on="1"/>
        <pt x="196" y="1" on="1"/>
        <pt x="144" y="1" on="0"/>
        <pt x="74" y="36" on="0"/>
        <pt x="74" y="62" on="1"/>
        <pt x="74" y="110" on="0"/>
        <pt x="89" y="129" on="1"/>
        <pt x="125" y="119" on="0"/>
        <pt x="199" y="119" on="0"/>
        <pt x="250" y="129" on="0"/>
        <pt x="270" y="145" on="1"/>
        <pt x="316" y="181" on="0"/>
        <pt x="316" y="270" on="1"/>
        <pt x="316" y="694" on="1"/>
        <pt x="133" y="694" on="1"/>
        <pt x="122" y="720" on="0"/>
        <pt x="122" y="776" on="0"/>
        <pt x="129" y="812" on="0"/>
        <pt x="136" y="826" on="1"/>
        <pt x="153" y="857" on="0"/>
        <pt x="178" y="857" on="1"/>
        <pt x="316" y="857" on="1"/>
        <pt x="316" y="1289" on="1"/>
        <pt x="316" y="1382" on="0"/>
        <pt x="200" y="1405" on="1"/>
        <pt x="128" y="1420" on="0"/>
        <pt x="85" y="1455" on="0"/>
        <pt x="85" y="1476" on="1"/>
        <pt x="85" y="1522" on="0"/>
        <pt x="101" y="1538" on="1"/>
        <pt x="119" y="1533" on="0"/>
        <pt x="134" y="1533" on="1"/>
        <pt x="437" y="1533" on="1"/>
        <pt x="460" y="1533" on="0"/>
        <pt x="498" y="1535" on="1"/>
        <pt x="583" y="1540" on="1"/>
        <pt x="708" y="1546" on="0"/>
        <pt x="971" y="1546" on="0"/>
        <pt x="1219" y="1483" on="0"/>
        <pt x="1400" y="1375" on="0"/>
        <pt x="1521" y="1232" on="0"/>
        <pt x="1558" y="1152" on="1"/>
        <pt x="1624" y="1005" on="0"/>
        <pt x="1624" y="822" on="1"/>
        <pt x="1624" y="490" on="0"/>
        <pt x="1452" y="270" on="1"/>
        <pt x="1317" y="97" on="0"/>
        <pt x="1055" y="26" on="1"/>
        <pt x="919" y="-10" on="0"/>
      </contour>
      <contour>
        <pt x="859" y="857" on="1"/>
        <pt x="872" y="835" on="0"/>
        <pt x="872" y="794" on="1"/>
        <pt x="872" y="728" on="0"/>
        <pt x="839" y="702" on="1"/>
        <pt x="828" y="694" on="0"/>
        <pt x="813" y="694" on="1"/>
        <pt x="552" y="694" on="1"/>
        <pt x="552" y="241" on="1"/>
        <pt x="552" y="166" on="0"/>
        <pt x="599" y="144" on="1"/>
        <pt x="639" y="126" on="0"/>
        <pt x="942" y="126" on="0"/>
        <pt x="1178" y="226" on="0"/>
        <pt x="1248" y="311" on="1"/>
        <pt x="1374" y="464" on="0"/>
        <pt x="1374" y="742" on="1"/>
        <pt x="1374" y="1219" on="0"/>
        <pt x="1037" y="1365" on="1"/>
        <pt x="915" y="1418" on="0"/>
        <pt x="736" y="1418" on="1"/>
        <pt x="617" y="1418" on="0"/>
        <pt x="565" y="1371" on="0"/>
        <pt x="552" y="1302" on="0"/>
        <pt x="552" y="1244" on="1"/>
        <pt x="552" y="857" on="1"/>
      </contour>
    </TTGlyph>
    <TTGlyph name="Euro" xMin="1" yMin="-21" xMax="1374" yMax="1552">
      <contour>
        <pt x="427" y="881" on="1"/>
        <pt x="423" y="829" on="0"/>
        <pt x="423" y="794" on="1"/>
        <pt x="423" y="741" on="1"/>
        <pt x="423" y="724" on="0"/>
        <pt x="425" y="707" on="1"/>
        <pt x="961" y="707" on="1"/>
        <pt x="970" y="689" on="0"/>
        <pt x="970" y="647" on="0"/>
        <pt x="959" y="609" on="0"/>
        <pt x="950" y="594" on="1"/>
        <pt x="928" y="558" on="0"/>
        <pt x="895" y="558" on="1"/>
        <pt x="447" y="558" on="1"/>
        <pt x="512" y="285" on="0"/>
        <pt x="722" y="203" on="1"/>
        <pt x="794" y="175" on="0"/>
        <pt x="963" y="175" on="0"/>
        <pt x="1084" y="201" on="0"/>
        <pt x="1130" y="224" on="1"/>
        <pt x="1208" y="263" on="0"/>
        <pt x="1281" y="351" on="1"/>
        <pt x="1313" y="339" on="0"/>
        <pt x="1331" y="297" on="1"/>
        <pt x="1337" y="283" on="0"/>
        <pt x="1337" y="245" on="0"/>
        <pt x="1308" y="185" on="0"/>
        <pt x="1251" y="121" on="0"/>
        <pt x="1165" y="58" on="0"/>
        <pt x="1108" y="34" on="1"/>
        <pt x="983" y="-21" on="0"/>
        <pt x="691" y="-21" on="0"/>
        <pt x="466" y="61" on="0"/>
        <pt x="383" y="136" on="1"/>
        <pt x="216" y="289" on="0"/>
        <pt x="179" y="558" on="1"/>
        <pt x="9" y="558" on="1"/>
        <pt x="1" y="580" on="0"/>
        <pt x="1" y="622" on="0"/>
        <pt x="12" y="660" on="0"/>
        <pt x="22" y="674" on="1"/>
        <pt x="43" y="707" on="0"/>
        <pt x="73" y="707" on="1"/>
        <pt x="171" y="707" on="1"/>
        <pt x="171" y="791" on="0"/>
        <pt x="186" y="881" on="1"/>
        <pt x="38" y="881" on="1"/>
        <pt x="30" y="903" on="0"/>
        <pt x="30" y="945" on="0"/>
        <pt x="41" y="983" on="0"/>
        <pt x="50" y="998" on="1"/>
        <pt x="72" y="1030" on="0"/>
        <pt x="102" y="1030" on="1"/>
        <pt x="224" y="1030" on="1"/>
        <pt x="307" y="1274" on="0"/>
        <pt x="500" y="1414" on="1"/>
        <pt x="689" y="1552" on="0"/>
        <pt x="932" y="1552" on="1"/>
        <pt x="1145" y="1552" on="0"/>
        <pt x="1264" y="1466" on="1"/>
        <pt x="1374" y="1385" on="0"/>
        <pt x="1374" y="1248" on="1"/>
        <pt x="1374" y="1164" on="0"/>
        <pt x="1298" y="1128" on="1"/>
        <pt x="1271" y="1115" on="0"/>
        <pt x="1243" y="1115" on="1"/>
        <pt x="1190" y="1115" on="0"/>
        <pt x="1164" y="1129" on="1"/>
        <pt x="1168" y="1157" on="0"/>
        <pt x="1168" y="1256" on="0"/>
        <pt x="1124" y="1334" on="0"/>
        <pt x="1086" y="1356" on="1"/>
        <pt x="1020" y="1393" on="0"/>
        <pt x="802" y="1393" on="0"/>
        <pt x="660" y="1343" on="0"/>
        <pt x="606" y="1296" on="1"/>
        <pt x="497" y="1201" on="0"/>
        <pt x="452" y="1030" on="1"/>
        <pt x="990" y="1030" on="1"/>
        <pt x="1000" y="1013" on="0"/>
        <pt x="1000" y="969" on="0"/>
        <pt x="989" y="931" on="0"/>
        <pt x="979" y="916" on="1"/>
        <pt x="957" y="881" on="0"/>
        <pt x="924" y="881" on="1"/>
      </contour>
    </TTGlyph>
    <TTGlyph name="F" xMin="88" yMin="-8" xMax="1306" yMax="1538">
      <contour>
        <pt x="855" y="-8" on="1"/>
        <pt x="831" y="0" on="0"/>
        <pt x="756" y="0" on="1"/>
        <pt x="203" y="0" on="1"/>
        <pt x="151" y="0" on="0"/>
        <pt x="88" y="33" on="0"/>
        <pt x="88" y="77" on="1"/>
        <pt x="88" y="108" on="0"/>
        <pt x="104" y="128" on="1"/>
        <pt x="140" y="118" on="0"/>
        <pt x="211" y="118" on="0"/>
        <pt x="257" y="133" on="0"/>
        <pt x="275" y="152" on="1"/>
        <pt x="316" y="195" on="0"/>
        <pt x="316" y="285" on="1"/>
        <pt x="316" y="1283" on="1"/>
        <pt x="316" y="1370" on="0"/>
        <pt x="246" y="1394" on="1"/>
        <pt x="226" y="1401" on="0"/>
        <pt x="183" y="1412" on="0"/>
        <pt x="144" y="1423" on="0"/>
        <pt x="129" y="1430" on="1"/>
        <pt x="95" y="1448" on="0"/>
        <pt x="95" y="1479" on="1"/>
        <pt x="95" y="1520" on="0"/>
        <pt x="111" y="1538" on="1"/>
        <pt x="128" y="1533" on="0"/>
        <pt x="146" y="1533" on="1"/>
        <pt x="1158" y="1533" on="1"/>
        <pt x="1248" y="1533" on="0"/>
        <pt x="1269" y="1516" on="1"/>
        <pt x="1306" y="1488" on="0"/>
        <pt x="1306" y="1384" on="1"/>
        <pt x="1306" y="1284" on="0"/>
        <pt x="1274" y="1165" on="0"/>
        <pt x="1266" y="1152" on="1"/>
        <pt x="1253" y="1130" on="0"/>
        <pt x="1228" y="1130" on="1"/>
        <pt x="1187" y="1130" on="0"/>
        <pt x="1152" y="1158" on="0"/>
        <pt x="1152" y="1164" on="1"/>
        <pt x="1142" y="1306" on="0"/>
        <pt x="1100" y="1355" on="1"/>
        <pt x="1055" y="1409" on="0"/>
        <pt x="919" y="1409" on="1"/>
        <pt x="727" y="1409" on="1"/>
        <pt x="620" y="1409" on="0"/>
        <pt x="567" y="1372" on="0"/>
        <pt x="553" y="1323" on="0"/>
        <pt x="552" y="1285" on="1"/>
        <pt x="552" y="824" on="1"/>
        <pt x="599" y="824" on="1"/>
        <pt x="840" y="824" on="0"/>
        <pt x="1021" y="862" on="1"/>
        <pt x="1057" y="847" on="0"/>
        <pt x="1057" y="754" on="1"/>
        <pt x="1057" y="706" on="0"/>
        <pt x="1039" y="664" on="1"/>
        <pt x="974" y="658" on="0"/>
        <pt x="824" y="658" on="0"/>
        <pt x="737" y="667" on="1"/>
        <pt x="552" y="687" on="1"/>
        <pt x="552" y="236" on="1"/>
        <pt x="552" y="150" on="0"/>
        <pt x="687" y="134" on="1"/>
        <pt x="799" y="120" on="0"/>
        <pt x="854" y="93" on="0"/>
        <pt x="870" y="68" on="0"/>
        <pt x="870" y="50" on="1"/>
        <pt x="870" y="13" on="0"/>
      </contour>
    </TTGlyph>
    <TTGlyph name="G" xMin="120" yMin="-21" xMax="1580" yMax="1552">
      <contour>
        <pt x="1568" y="728" on="1"/>
        <pt x="1580" y="694" on="0"/>
        <pt x="1580" y="644" on="0"/>
        <pt x="1565" y="624" on="0"/>
        <pt x="1541" y="614" on="0"/>
        <pt x="1509" y="608" on="0"/>
        <pt x="1486" y="595" on="1"/>
        <pt x="1442" y="570" on="0"/>
        <pt x="1442" y="463" on="1"/>
        <pt x="1442" y="230" on="1"/>
        <pt x="1429" y="203" on="0"/>
        <pt x="1345" y="117" on="0"/>
        <pt x="1273" y="77" on="1"/>
        <pt x="1097" y="-21" on="0"/>
        <pt x="676" y="-21" on="0"/>
        <pt x="400" y="89" on="0"/>
        <pt x="307" y="187" on="1"/>
        <pt x="120" y="384" on="0"/>
        <pt x="120" y="712" on="1"/>
        <pt x="120" y="914" on="0"/>
        <pt x="249" y="1228" on="0"/>
        <pt x="359" y="1334" on="1"/>
        <pt x="584" y="1552" on="0"/>
        <pt x="923" y="1552" on="1"/>
        <pt x="1194" y="1552" on="0"/>
        <pt x="1328" y="1454" on="1"/>
        <pt x="1434" y="1376" on="0"/>
        <pt x="1434" y="1257" on="1"/>
        <pt x="1434" y="1183" on="0"/>
        <pt x="1391" y="1138" on="1"/>
        <pt x="1350" y="1095" on="0"/>
        <pt x="1284" y="1095" on="1"/>
        <pt x="1226" y="1095" on="0"/>
        <pt x="1202" y="1110" on="1"/>
        <pt x="1207" y="1142" on="0"/>
        <pt x="1207" y="1236" on="0"/>
        <pt x="1166" y="1325" on="0"/>
        <pt x="1126" y="1351" on="1"/>
        <pt x="1057" y="1397" on="0"/>
        <pt x="779" y="1397" on="0"/>
        <pt x="582" y="1325" on="0"/>
        <pt x="514" y="1250" on="1"/>
        <pt x="373" y="1096" on="0"/>
        <pt x="373" y="796" on="1"/>
        <pt x="373" y="137" on="0"/>
        <pt x="935" y="137" on="1"/>
        <pt x="1068" y="137" on="0"/>
        <pt x="1164" y="178" on="1"/>
        <pt x="1195" y="191" on="0"/>
        <pt x="1212" y="207" on="1"/>
        <pt x="1211" y="493" on="1"/>
        <pt x="1211" y="565" on="0"/>
        <pt x="1117" y="592" on="1"/>
        <pt x="1094" y="598" on="0"/>
        <pt x="1046" y="608" on="0"/>
        <pt x="999" y="619" on="0"/>
        <pt x="983" y="628" on="1"/>
        <pt x="951" y="644" on="0"/>
        <pt x="951" y="719" on="0"/>
        <pt x="966" y="736" on="1"/>
        <pt x="989" y="728" on="0"/>
        <pt x="1065" y="728" on="1"/>
      </contour>
    </TTGlyph>
    <TTGlyph name="Gbreve" xMin="120" yMin="-21" xMax="1580" yMax="1976">
      <component glyphName=".ttfautohint" x="120" y="0" flags="0x0"/>
      <component glyphName="G" x="0" y="0" flags="0x1204"/>
      <component glyphName="breve.cap" x="-106" y="0" flags="0x1004"/>
    </TTGlyph>
    <TTGlyph name="Gcircumflex" xMin="120" yMin="-21" xMax="1580" yMax="1969">
      <component glyphName=".ttfautohint" x="120" y="0" flags="0x0"/>
      <component glyphName="G" x="0" y="0" flags="0x1204"/>
      <component glyphName="circumflex.cap" x="463" y="0" flags="0x1004"/>
    </TTGlyph>
    <TTGlyph name="Gcommaaccent" xMin="120" yMin="-514" xMax="1580" yMax="1552">
      <component glyphName=".ttfautohint" x="120" y="0" flags="0x0"/>
      <component glyphName="G" x="0" y="0" flags="0x1204"/>
      <component glyphName="commaaccent" x="517" y="0" flags="0x1004"/>
    </TTGlyph>
    <TTGlyph name="Gdotaccent" xMin="120" yMin="-21" xMax="1580" yMax="1956">
      <component glyphName=".ttfautohint" x="120" y="0" flags="0x0"/>
      <component glyphName="G" x="0" y="0" flags="0x1204"/>
      <component glyphName="dotaccent.cap" x="434" y="0" flags="0x1004"/>
    </TTGlyph>
    <TTGlyph name="H" xMin="102" yMin="-8" xMax="1794" yMax="1541">
      <contour>
        <pt x="732" y="-8" on="1"/>
        <pt x="709" y="0" on="0"/>
        <pt x="633" y="0" on="1"/>
        <pt x="216" y="0" on="1"/>
        <pt x="164" y="0" on="0"/>
        <pt x="102" y="33" on="0"/>
        <pt x="102" y="77" on="1"/>
        <pt x="102" y="109" on="0"/>
        <pt x="117" y="128" on="1"/>
        <pt x="157" y="118" on="0"/>
        <pt x="225" y="118" on="0"/>
        <pt x="265" y="133" on="0"/>
        <pt x="280" y="152" on="1"/>
        <pt x="310" y="192" on="0"/>
        <pt x="310" y="285" on="1"/>
        <pt x="310" y="1308" on="1"/>
        <pt x="307" y="1378" on="0"/>
        <pt x="264" y="1397" on="1"/>
        <pt x="251" y="1403" on="0"/>
        <pt x="228" y="1408" on="1"/>
        <pt x="180" y="1418" on="1"/>
        <pt x="131" y="1430" on="0"/>
        <pt x="109" y="1465" on="0"/>
        <pt x="109" y="1483" on="1"/>
        <pt x="109" y="1520" on="0"/>
        <pt x="124" y="1541" on="1"/>
        <pt x="147" y="1533" on="0"/>
        <pt x="223" y="1533" on="1"/>
        <pt x="630" y="1533" on="1"/>
        <pt x="682" y="1533" on="0"/>
        <pt x="745" y="1500" on="0"/>
        <pt x="745" y="1456" on="1"/>
        <pt x="745" y="1423" on="0"/>
        <pt x="729" y="1405" on="1"/>
        <pt x="691" y="1415" on="0"/>
        <pt x="646" y="1415" on="1"/>
        <pt x="549" y="1415" on="0"/>
        <pt x="546" y="1257" on="1"/>
        <pt x="546" y="815" on="1"/>
        <pt x="1346" y="815" on="1"/>
        <pt x="1346" y="1308" on="1"/>
        <pt x="1343" y="1378" on="0"/>
        <pt x="1300" y="1397" on="1"/>
        <pt x="1287" y="1403" on="0"/>
        <pt x="1264" y="1408" on="1"/>
        <pt x="1216" y="1418" on="1"/>
        <pt x="1167" y="1430" on="0"/>
        <pt x="1145" y="1465" on="0"/>
        <pt x="1145" y="1483" on="1"/>
        <pt x="1145" y="1523" on="0"/>
        <pt x="1160" y="1541" on="1"/>
        <pt x="1183" y="1533" on="0"/>
        <pt x="1259" y="1533" on="1"/>
        <pt x="1666" y="1533" on="1"/>
        <pt x="1718" y="1533" on="0"/>
        <pt x="1781" y="1500" on="0"/>
        <pt x="1781" y="1456" on="1"/>
        <pt x="1781" y="1423" on="0"/>
        <pt x="1765" y="1405" on="1"/>
        <pt x="1727" y="1415" on="0"/>
        <pt x="1682" y="1415" on="1"/>
        <pt x="1585" y="1415" on="0"/>
        <pt x="1582" y="1257" on="1"/>
        <pt x="1582" y="236" on="1"/>
        <pt x="1582" y="180" on="0"/>
        <pt x="1599" y="162" on="1"/>
        <pt x="1624" y="135" on="0"/>
        <pt x="1698" y="120" on="0"/>
        <pt x="1746" y="109" on="0"/>
        <pt x="1762" y="101" on="1"/>
        <pt x="1794" y="85" on="0"/>
        <pt x="1794" y="47" on="1"/>
        <pt x="1794" y="12" on="0"/>
        <pt x="1778" y="-8" on="1"/>
        <pt x="1755" y="0" on="0"/>
        <pt x="1679" y="0" on="1"/>
        <pt x="1262" y="0" on="1"/>
        <pt x="1210" y="0" on="0"/>
        <pt x="1148" y="33" on="0"/>
        <pt x="1148" y="77" on="1"/>
        <pt x="1148" y="109" on="0"/>
        <pt x="1163" y="128" on="1"/>
        <pt x="1201" y="118" on="0"/>
        <pt x="1267" y="118" on="0"/>
        <pt x="1303" y="132" on="0"/>
        <pt x="1316" y="150" on="1"/>
        <pt x="1344" y="187" on="0"/>
        <pt x="1346" y="275" on="1"/>
        <pt x="1346" y="677" on="1"/>
        <pt x="546" y="677" on="1"/>
        <pt x="546" y="236" on="1"/>
        <pt x="546" y="157" on="0"/>
        <pt x="590" y="136" on="1"/>
        <pt x="604" y="130" on="0"/>
        <pt x="652" y="120" on="0"/>
        <pt x="699" y="109" on="0"/>
        <pt x="715" y="101" on="1"/>
        <pt x="748" y="84" on="0"/>
        <pt x="748" y="47" on="1"/>
        <pt x="748" y="12" on="0"/>
      </contour>
    </TTGlyph>
    <TTGlyph name="Hbar" xMin="102" yMin="-8" xMax="1794" yMax="1541">
      <contour>
        <pt x="732" y="-8" on="1"/>
        <pt x="709" y="0" on="0"/>
        <pt x="633" y="0" on="1"/>
        <pt x="216" y="0" on="1"/>
        <pt x="164" y="0" on="0"/>
        <pt x="102" y="33" on="0"/>
        <pt x="102" y="77" on="1"/>
        <pt x="102" y="109" on="0"/>
        <pt x="117" y="128" on="1"/>
        <pt x="157" y="118" on="0"/>
        <pt x="225" y="118" on="0"/>
        <pt x="265" y="133" on="0"/>
        <pt x="280" y="152" on="1"/>
        <pt x="310" y="192" on="0"/>
        <pt x="310" y="285" on="1"/>
        <pt x="310" y="1014" on="1"/>
        <pt x="138" y="1014" on="1"/>
        <pt x="130" y="1036" on="0"/>
        <pt x="130" y="1076" on="0"/>
        <pt x="141" y="1110" on="0"/>
        <pt x="150" y="1124" on="1"/>
        <pt x="171" y="1153" on="0"/>
        <pt x="202" y="1153" on="1"/>
        <pt x="310" y="1153" on="1"/>
        <pt x="310" y="1308" on="1"/>
        <pt x="307" y="1378" on="0"/>
        <pt x="264" y="1397" on="1"/>
        <pt x="251" y="1403" on="0"/>
        <pt x="228" y="1408" on="1"/>
        <pt x="180" y="1418" on="1"/>
        <pt x="131" y="1430" on="0"/>
        <pt x="109" y="1465" on="0"/>
        <pt x="109" y="1483" on="1"/>
        <pt x="109" y="1520" on="0"/>
        <pt x="124" y="1541" on="1"/>
        <pt x="147" y="1533" on="0"/>
        <pt x="223" y="1533" on="1"/>
        <pt x="630" y="1533" on="1"/>
        <pt x="682" y="1533" on="0"/>
        <pt x="745" y="1500" on="0"/>
        <pt x="745" y="1456" on="1"/>
        <pt x="745" y="1423" on="0"/>
        <pt x="729" y="1405" on="1"/>
        <pt x="691" y="1415" on="0"/>
        <pt x="646" y="1415" on="1"/>
        <pt x="549" y="1415" on="0"/>
        <pt x="546" y="1257" on="1"/>
        <pt x="546" y="1153" on="1"/>
        <pt x="1346" y="1153" on="1"/>
        <pt x="1346" y="1308" on="1"/>
        <pt x="1343" y="1378" on="0"/>
        <pt x="1300" y="1397" on="1"/>
        <pt x="1287" y="1403" on="0"/>
        <pt x="1264" y="1408" on="1"/>
        <pt x="1216" y="1418" on="1"/>
        <pt x="1167" y="1430" on="0"/>
        <pt x="1145" y="1465" on="0"/>
        <pt x="1145" y="1483" on="1"/>
        <pt x="1145" y="1523" on="0"/>
        <pt x="1160" y="1541" on="1"/>
        <pt x="1183" y="1533" on="0"/>
        <pt x="1259" y="1533" on="1"/>
        <pt x="1666" y="1533" on="1"/>
        <pt x="1718" y="1533" on="0"/>
        <pt x="1781" y="1500" on="0"/>
        <pt x="1781" y="1456" on="1"/>
        <pt x="1781" y="1423" on="0"/>
        <pt x="1765" y="1405" on="1"/>
        <pt x="1727" y="1415" on="0"/>
        <pt x="1682" y="1415" on="1"/>
        <pt x="1585" y="1415" on="0"/>
        <pt x="1582" y="1257" on="1"/>
        <pt x="1582" y="1153" on="1"/>
        <pt x="1761" y="1153" on="1"/>
        <pt x="1770" y="1135" on="0"/>
        <pt x="1770" y="1095" on="0"/>
        <pt x="1759" y="1060" on="0"/>
        <pt x="1750" y="1046" on="1"/>
        <pt x="1728" y="1014" on="0"/>
        <pt x="1695" y="1014" on="1"/>
        <pt x="1582" y="1014" on="1"/>
        <pt x="1582" y="236" on="1"/>
        <pt x="1582" y="180" on="0"/>
        <pt x="1599" y="162" on="1"/>
        <pt x="1624" y="135" on="0"/>
        <pt x="1698" y="120" on="0"/>
        <pt x="1746" y="109" on="0"/>
        <pt x="1762" y="101" on="1"/>
        <pt x="1794" y="85" on="0"/>
        <pt x="1794" y="47" on="1"/>
        <pt x="1794" y="12" on="0"/>
        <pt x="1778" y="-8" on="1"/>
        <pt x="1755" y="0" on="0"/>
        <pt x="1679" y="0" on="1"/>
        <pt x="1262" y="0" on="1"/>
        <pt x="1210" y="0" on="0"/>
        <pt x="1148" y="33" on="0"/>
        <pt x="1148" y="77" on="1"/>
        <pt x="1148" y="109" on="0"/>
        <pt x="1163" y="128" on="1"/>
        <pt x="1201" y="118" on="0"/>
        <pt x="1267" y="118" on="0"/>
        <pt x="1303" y="132" on="0"/>
        <pt x="1316" y="150" on="1"/>
        <pt x="1344" y="187" on="0"/>
        <pt x="1346" y="275" on="1"/>
        <pt x="1346" y="677" on="1"/>
        <pt x="546" y="677" on="1"/>
        <pt x="546" y="236" on="1"/>
        <pt x="546" y="157" on="0"/>
        <pt x="590" y="136" on="1"/>
        <pt x="604" y="130" on="0"/>
        <pt x="652" y="120" on="0"/>
        <pt x="699" y="109" on="0"/>
        <pt x="715" y="101" on="1"/>
        <pt x="748" y="84" on="0"/>
        <pt x="748" y="47" on="1"/>
        <pt x="748" y="12" on="0"/>
      </contour>
      <contour>
        <pt x="1346" y="815" on="1"/>
        <pt x="1346" y="1014" on="1"/>
        <pt x="546" y="1014" on="1"/>
        <pt x="546" y="815" on="1"/>
      </contour>
    </TTGlyph>
    <TTGlyph name="Hcircumflex" xMin="102" yMin="-8" xMax="1794" yMax="1969">
      <component glyphName=".ttfautohint" x="102" y="0" flags="0x0"/>
      <component glyphName="H" x="0" y="0" flags="0x1204"/>
      <component glyphName="circumflex.cap" x="506" y="0" flags="0x1004"/>
    </TTGlyph>
    <TTGlyph name="I" xMin="103" yMin="-8" xMax="749" yMax="1541">
      <contour>
        <pt x="733" y="-8" on="1"/>
        <pt x="710" y="0" on="0"/>
        <pt x="634" y="0" on="1"/>
        <pt x="217" y="0" on="1"/>
        <pt x="165" y="0" on="0"/>
        <pt x="103" y="33" on="0"/>
        <pt x="103" y="77" on="1"/>
        <pt x="103" y="109" on="0"/>
        <pt x="118" y="128" on="1"/>
        <pt x="158" y="118" on="0"/>
        <pt x="225" y="118" on="0"/>
        <pt x="264" y="132" on="0"/>
        <pt x="278" y="150" on="1"/>
        <pt x="309" y="188" on="0"/>
        <pt x="311" y="275" on="1"/>
        <pt x="311" y="1297" on="1"/>
        <pt x="311" y="1376" on="0"/>
        <pt x="267" y="1396" on="1"/>
        <pt x="253" y="1403" on="0"/>
        <pt x="205" y="1413" on="0"/>
        <pt x="158" y="1424" on="0"/>
        <pt x="142" y="1432" on="1"/>
        <pt x="110" y="1448" on="0"/>
        <pt x="110" y="1486" on="1"/>
        <pt x="110" y="1523" on="0"/>
        <pt x="125" y="1541" on="1"/>
        <pt x="148" y="1533" on="0"/>
        <pt x="224" y="1533" on="1"/>
        <pt x="631" y="1533" on="1"/>
        <pt x="683" y="1533" on="0"/>
        <pt x="746" y="1500" on="0"/>
        <pt x="746" y="1456" on="1"/>
        <pt x="746" y="1423" on="0"/>
        <pt x="730" y="1405" on="1"/>
        <pt x="692" y="1415" on="0"/>
        <pt x="647" y="1415" on="1"/>
        <pt x="550" y="1415" on="0"/>
        <pt x="547" y="1257" on="1"/>
        <pt x="547" y="236" on="1"/>
        <pt x="547" y="157" on="0"/>
        <pt x="591" y="136" on="1"/>
        <pt x="605" y="130" on="0"/>
        <pt x="653" y="120" on="0"/>
        <pt x="700" y="109" on="0"/>
        <pt x="716" y="101" on="1"/>
        <pt x="749" y="84" on="0"/>
        <pt x="749" y="47" on="1"/>
        <pt x="749" y="12" on="0"/>
      </contour>
    </TTGlyph>
    <TTGlyph name="IJ" xMin="103" yMin="-19" xMax="1982" yMax="1541">
      <component glyphName=".ttfautohint" x="103" y="0" flags="0x0"/>
      <component glyphName="I" x="0" y="0" flags="0x1004"/>
      <component glyphName="J" x="882" y="0" flags="0x1004"/>
    </TTGlyph>
    <TTGlyph name="Iacute" xMin="103" yMin="-8" xMax="768" yMax="1966">
      <component glyphName=".ttfautohint" x="103" y="0" flags="0x0"/>
      <component glyphName="I" x="0" y="0" flags="0x1204"/>
      <component glyphName="acute.cap" x="29" y="0" flags="0x1004"/>
    </TTGlyph>
    <TTGlyph name="Ibreve" xMin="45" yMin="-8" xMax="787" yMax="1976">
      <component glyphName=".ttfautohint" x="47" y="0" flags="0x0"/>
      <component glyphName="I" x="0" y="0" flags="0x1204"/>
      <component glyphName="breve.cap" x="-582" y="0" flags="0x1004"/>
    </TTGlyph>
    <TTGlyph name="Icircumflex" xMin="61" yMin="-8" xMax="771" yMax="1969">
      <component glyphName=".ttfautohint" x="61" y="0" flags="0x0"/>
      <component glyphName="I" x="0" y="0" flags="0x1204"/>
      <component glyphName="circumflex.cap" x="-13" y="0" flags="0x1004"/>
    </TTGlyph>
    <TTGlyph name="Idieresis" xMin="3" yMin="-8" xMax="846" yMax="1958">
      <component glyphName=".ttfautohint" x="3" y="0" flags="0x0"/>
      <component glyphName="I" x="0" y="0" flags="0x1204"/>
      <component glyphName="dieresis.cap" x="-108" y="0" flags="0x1004"/>
    </TTGlyph>
    <TTGlyph name="Idotaccent" xMin="103" yMin="-8" xMax="749" yMax="1956">
      <component glyphName=".ttfautohint" x="103" y="0" flags="0x0"/>
      <component glyphName="I" x="0" y="0" flags="0x1204"/>
      <component glyphName="dotaccent.cap" x="-42" y="0" flags="0x1004"/>
    </TTGlyph>
    <TTGlyph name="Igrave" xMin="101" yMin="-8" xMax="749" yMax="1966">
      <component glyphName=".ttfautohint" x="101" y="0" flags="0x0"/>
      <component glyphName="I" x="0" y="0" flags="0x1204"/>
      <component glyphName="grave.cap" x="120" y="0" flags="0x1004"/>
    </TTGlyph>
    <TTGlyph name="Imacron" xMin="15" yMin="-8" xMax="827" yMax="1889">
      <component glyphName=".ttfautohint" x="15" y="0" flags="0x0"/>
      <component glyphName="I" x="0" y="0" flags="0x1204"/>
      <component glyphName="macron.cap" x="-71" y="0" flags="0x1004"/>
    </TTGlyph>
    <TTGlyph name="Iogonek" xMin="103" yMin="-514" xMax="749" yMax="1541">
      <contour>
        <pt x="205" y="-312" on="1"/>
        <pt x="205" y="-155" on="0"/>
        <pt x="381" y="0" on="1"/>
        <pt x="217" y="0" on="1"/>
        <pt x="165" y="0" on="0"/>
        <pt x="103" y="33" on="0"/>
        <pt x="103" y="77" on="1"/>
        <pt x="103" y="109" on="0"/>
        <pt x="118" y="128" on="1"/>
        <pt x="158" y="118" on="0"/>
        <pt x="225" y="118" on="0"/>
        <pt x="264" y="132" on="0"/>
        <pt x="278" y="150" on="1"/>
        <pt x="309" y="188" on="0"/>
        <pt x="311" y="275" on="1"/>
        <pt x="311" y="1297" on="1"/>
        <pt x="311" y="1376" on="0"/>
        <pt x="267" y="1396" on="1"/>
        <pt x="253" y="1403" on="0"/>
        <pt x="205" y="1413" on="0"/>
        <pt x="158" y="1424" on="0"/>
        <pt x="142" y="1432" on="1"/>
        <pt x="110" y="1448" on="0"/>
        <pt x="110" y="1486" on="1"/>
        <pt x="110" y="1523" on="0"/>
        <pt x="125" y="1541" on="1"/>
        <pt x="148" y="1533" on="0"/>
        <pt x="224" y="1533" on="1"/>
        <pt x="631" y="1533" on="1"/>
        <pt x="683" y="1533" on="0"/>
        <pt x="746" y="1500" on="0"/>
        <pt x="746" y="1456" on="1"/>
        <pt x="746" y="1423" on="0"/>
        <pt x="730" y="1405" on="1"/>
        <pt x="692" y="1415" on="0"/>
        <pt x="647" y="1415" on="1"/>
        <pt x="550" y="1415" on="0"/>
        <pt x="547" y="1257" on="1"/>
        <pt x="547" y="236" on="1"/>
        <pt x="547" y="157" on="0"/>
        <pt x="591" y="136" on="1"/>
        <pt x="605" y="130" on="0"/>
        <pt x="653" y="120" on="0"/>
        <pt x="700" y="109" on="0"/>
        <pt x="716" y="101" on="1"/>
        <pt x="749" y="84" on="0"/>
        <pt x="749" y="47" on="1"/>
        <pt x="749" y="12" on="0"/>
        <pt x="733" y="-8" on="1"/>
        <pt x="710" y="0" on="0"/>
        <pt x="634" y="0" on="1"/>
        <pt x="521" y="0" on="1"/>
        <pt x="399" y="-129" on="0"/>
        <pt x="399" y="-226" on="1"/>
        <pt x="399" y="-335" on="0"/>
        <pt x="527" y="-335" on="1"/>
        <pt x="616" y="-335" on="0"/>
        <pt x="695" y="-262" on="1"/>
        <pt x="738" y="-279" on="0"/>
        <pt x="738" y="-335" on="0"/>
        <pt x="685" y="-405" on="0"/>
        <pt x="642" y="-437" on="1"/>
        <pt x="537" y="-514" on="0"/>
        <pt x="428" y="-514" on="1"/>
        <pt x="281" y="-514" on="0"/>
        <pt x="224" y="-400" on="1"/>
        <pt x="205" y="-362" on="0"/>
      </contour>
    </TTGlyph>
    <TTGlyph name="Itilde" xMin="-7" yMin="-8" xMax="846" yMax="1969">
      <component glyphName=".ttfautohint" x="0" y="0" flags="0x0"/>
      <component glyphName="I" x="0" y="0" flags="0x1204"/>
      <component glyphName="tilde.cap" x="-71" y="0" flags="0x1004"/>
    </TTGlyph>
    <TTGlyph name="J" xMin="15" yMin="-19" xMax="1100" yMax="1541">
      <contour>
        <pt x="1001" y="1415" on="1"/>
        <pt x="901" y="1415" on="0"/>
        <pt x="901" y="1243" on="1"/>
        <pt x="901" y="440" on="1"/>
        <pt x="901" y="112" on="0"/>
        <pt x="644" y="14" on="1"/>
        <pt x="556" y="-19" on="0"/>
        <pt x="334" y="-19" on="0"/>
        <pt x="178" y="29" on="0"/>
        <pt x="124" y="69" on="1"/>
        <pt x="15" y="151" on="0"/>
        <pt x="15" y="268" on="1"/>
        <pt x="15" y="356" on="0"/>
        <pt x="97" y="459" on="0"/>
        <pt x="169" y="459" on="1"/>
        <pt x="229" y="459" on="0"/>
        <pt x="249" y="431" on="1"/>
        <pt x="237" y="383" on="0"/>
        <pt x="237" y="338" on="1"/>
        <pt x="237" y="133" on="0"/>
        <pt x="449" y="133" on="1"/>
        <pt x="553" y="133" on="0"/>
        <pt x="665" y="254" on="0"/>
        <pt x="665" y="365" on="1"/>
        <pt x="665" y="1298" on="1"/>
        <pt x="663" y="1351" on="0"/>
        <pt x="645" y="1368" on="1"/>
        <pt x="617" y="1393" on="0"/>
        <pt x="541" y="1408" on="0"/>
        <pt x="490" y="1420" on="0"/>
        <pt x="472" y="1429" on="1"/>
        <pt x="438" y="1447" on="0"/>
        <pt x="438" y="1486" on="1"/>
        <pt x="438" y="1523" on="0"/>
        <pt x="454" y="1541" on="1"/>
        <pt x="477" y="1533" on="0"/>
        <pt x="553" y="1533" on="1"/>
        <pt x="986" y="1533" on="1"/>
        <pt x="1100" y="1533" on="0"/>
        <pt x="1100" y="1456" on="1"/>
        <pt x="1100" y="1423" on="0"/>
        <pt x="1084" y="1405" on="1"/>
        <pt x="1048" y="1415" on="0"/>
      </contour>
    </TTGlyph>
    <TTGlyph name="Jcircumflex" xMin="15" yMin="-19" xMax="1100" yMax="1969">
      <component glyphName=".ttfautohint" x="15" y="0" flags="0x0"/>
      <component glyphName="J" x="0" y="0" flags="0x1204"/>
      <component glyphName="circumflex.cap" x="285" y="0" flags="0x1004"/>
    </TTGlyph>
    <TTGlyph name="K" xMin="114" yMin="-19" xMax="1631" yMax="1541">
      <contour>
        <pt x="748" y="-8" on="1"/>
        <pt x="725" y="0" on="0"/>
        <pt x="649" y="0" on="1"/>
        <pt x="232" y="0" on="1"/>
        <pt x="180" y="0" on="0"/>
        <pt x="117" y="33" on="0"/>
        <pt x="117" y="77" on="1"/>
        <pt x="117" y="108" on="0"/>
        <pt x="133" y="128" on="1"/>
        <pt x="171" y="118" on="0"/>
        <pt x="237" y="118" on="0"/>
        <pt x="273" y="132" on="0"/>
        <pt x="286" y="150" on="1"/>
        <pt x="314" y="187" on="0"/>
        <pt x="316" y="275" on="1"/>
        <pt x="316" y="1308" on="1"/>
        <pt x="313" y="1378" on="0"/>
        <pt x="270" y="1397" on="1"/>
        <pt x="257" y="1403" on="0"/>
        <pt x="234" y="1408" on="1"/>
        <pt x="186" y="1418" on="1"/>
        <pt x="136" y="1430" on="0"/>
        <pt x="114" y="1465" on="0"/>
        <pt x="114" y="1483" on="1"/>
        <pt x="114" y="1521" on="0"/>
        <pt x="130" y="1541" on="1"/>
        <pt x="153" y="1533" on="0"/>
        <pt x="229" y="1533" on="1"/>
        <pt x="646" y="1533" on="1"/>
        <pt x="698" y="1533" on="0"/>
        <pt x="760" y="1500" on="0"/>
        <pt x="760" y="1456" on="1"/>
        <pt x="760" y="1422" on="0"/>
        <pt x="745" y="1405" on="1"/>
        <pt x="707" y="1415" on="0"/>
        <pt x="638" y="1415" on="0"/>
        <pt x="599" y="1400" on="0"/>
        <pt x="584" y="1382" on="1"/>
        <pt x="554" y="1344" on="0"/>
        <pt x="552" y="1257" on="1"/>
        <pt x="552" y="224" on="1"/>
        <pt x="554" y="175" on="0"/>
        <pt x="571" y="158" on="1"/>
        <pt x="596" y="135" on="0"/>
        <pt x="668" y="120" on="0"/>
        <pt x="715" y="109" on="0"/>
        <pt x="731" y="101" on="1"/>
        <pt x="763" y="85" on="0"/>
        <pt x="763" y="47" on="1"/>
        <pt x="763" y="10" on="0"/>
      </contour>
      <contour>
        <pt x="1576" y="1408" on="1"/>
        <pt x="1552" y="1416" on="0"/>
        <pt x="1494" y="1416" on="0"/>
        <pt x="1460" y="1395" on="0"/>
        <pt x="1420" y="1358" on="0"/>
        <pt x="1396" y="1332" on="1"/>
        <pt x="868" y="785" on="1"/>
        <pt x="1051" y="734" on="0"/>
        <pt x="1185" y="539" on="1"/>
        <pt x="1223" y="484" on="0"/>
        <pt x="1256" y="430" on="1"/>
        <pt x="1317" y="326" on="1"/>
        <pt x="1416" y="155" on="0"/>
        <pt x="1500" y="160" on="1"/>
        <pt x="1541" y="160" on="0"/>
        <pt x="1588" y="180" on="0"/>
        <pt x="1608" y="180" on="0"/>
        <pt x="1631" y="149" on="0"/>
        <pt x="1631" y="109" on="0"/>
        <pt x="1597" y="54" on="0"/>
        <pt x="1566" y="32" on="1"/>
        <pt x="1496" y="-19" on="0"/>
        <pt x="1327" y="-19" on="0"/>
        <pt x="1226" y="25" on="0"/>
        <pt x="1143" y="119" on="0"/>
        <pt x="1073" y="238" on="0"/>
        <pt x="1041" y="299" on="1"/>
        <pt x="978" y="420" on="1"/>
        <pt x="867" y="631" on="0"/>
        <pt x="736" y="673" on="1"/>
        <pt x="716" y="679" on="0"/>
        <pt x="684" y="674" on="0"/>
        <pt x="663" y="671" on="1"/>
        <pt x="651" y="675" on="0"/>
        <pt x="639" y="724" on="0"/>
        <pt x="639" y="755" on="0"/>
        <pt x="651" y="766" on="1"/>
        <pt x="1158" y="1328" on="1"/>
        <pt x="1183" y="1355" on="0"/>
        <pt x="1183" y="1372" on="1"/>
        <pt x="1183" y="1408" on="0"/>
        <pt x="1070" y="1423" on="1"/>
        <pt x="1021" y="1429" on="0"/>
        <pt x="1000" y="1460" on="0"/>
        <pt x="1000" y="1480" on="1"/>
        <pt x="1000" y="1518" on="0"/>
        <pt x="1016" y="1538" on="1"/>
        <pt x="1034" y="1533" on="0"/>
        <pt x="1050" y="1533" on="1"/>
        <pt x="1439" y="1533" on="1"/>
        <pt x="1547" y="1533" on="0"/>
        <pt x="1578" y="1504" on="1"/>
        <pt x="1592" y="1491" on="0"/>
        <pt x="1592" y="1472" on="1"/>
        <pt x="1592" y="1426" on="0"/>
      </contour>
    </TTGlyph>
    <TTGlyph name="Kcommaaccent" xMin="114" yMin="-514" xMax="1631" yMax="1541">
      <component glyphName=".ttfautohint" x="114" y="0" flags="0x0"/>
      <component glyphName="K" x="0" y="0" flags="0x1204"/>
      <component glyphName="commaaccent" x="576" y="0" flags="0x1004"/>
    </TTGlyph>
    <TTGlyph name="L" xMin="88" yMin="0" xMax="1358" yMax="1541">
      <contour>
        <pt x="1358" y="311" on="1"/>
        <pt x="1358" y="86" on="0"/>
        <pt x="1298" y="0" on="1"/>
        <pt x="207" y="0" on="1"/>
        <pt x="128" y="0" on="0"/>
        <pt x="98" y="40" on="1"/>
        <pt x="88" y="54" on="0"/>
        <pt x="88" y="71" on="1"/>
        <pt x="88" y="109" on="0"/>
        <pt x="104" y="129" on="1"/>
        <pt x="138" y="119" on="0"/>
        <pt x="193" y="119" on="1"/>
        <pt x="316" y="119" on="0"/>
        <pt x="316" y="270" on="1"/>
        <pt x="316" y="1297" on="1"/>
        <pt x="316" y="1366" on="0"/>
        <pt x="258" y="1390" on="1"/>
        <pt x="241" y="1398" on="0"/>
        <pt x="216" y="1405" on="1"/>
        <pt x="166" y="1418" on="1"/>
        <pt x="118" y="1430" on="0"/>
        <pt x="95" y="1465" on="0"/>
        <pt x="95" y="1483" on="1"/>
        <pt x="95" y="1521" on="0"/>
        <pt x="111" y="1541" on="1"/>
        <pt x="134" y="1533" on="0"/>
        <pt x="210" y="1533" on="1"/>
        <pt x="646" y="1533" on="1"/>
        <pt x="698" y="1533" on="0"/>
        <pt x="760" y="1500" on="0"/>
        <pt x="760" y="1456" on="1"/>
        <pt x="760" y="1422" on="0"/>
        <pt x="745" y="1405" on="1"/>
        <pt x="707" y="1415" on="0"/>
        <pt x="638" y="1415" on="0"/>
        <pt x="599" y="1400" on="0"/>
        <pt x="584" y="1382" on="1"/>
        <pt x="554" y="1344" on="0"/>
        <pt x="552" y="1257" on="1"/>
        <pt x="552" y="246" on="1"/>
        <pt x="554" y="176" on="0"/>
        <pt x="593" y="152" on="1"/>
        <pt x="626" y="131" on="0"/>
        <pt x="714" y="131" on="1"/>
        <pt x="789" y="132" on="1"/>
        <pt x="875" y="133" on="1"/>
        <pt x="1093" y="133" on="0"/>
        <pt x="1160" y="230" on="1"/>
        <pt x="1193" y="278" on="0"/>
        <pt x="1216" y="423" on="0"/>
        <pt x="1225" y="519" on="1"/>
        <pt x="1241" y="529" on="0"/>
        <pt x="1268" y="529" on="1"/>
        <pt x="1319" y="529" on="0"/>
        <pt x="1337" y="517" on="1"/>
        <pt x="1358" y="435" on="0"/>
      </contour>
    </TTGlyph>
    <TTGlyph name="Lacute" xMin="79" yMin="0" xMax="1349" yMax="1955">
      <component glyphName=".ttfautohint" x="79" y="0" flags="0x0"/>
      <component glyphName="L" x="-9" y="0" flags="0x1004"/>
      <component glyphName="acute.cap" x="53" y="-11" flags="0x1004"/>
    </TTGlyph>
    <TTGlyph name="Lcaron" xMin="88" yMin="0" xMax="1358" yMax="1724">
      <component glyphName=".ttfautohint" x="88" y="0" flags="0x0"/>
      <component glyphName="L" x="0" y="0" flags="0x1204"/>
      <component glyphName="caronvertical" x="704" y="-85" flags="0x1004"/>
    </TTGlyph>
    <TTGlyph name="Lcommaaccent" xMin="88" yMin="-514" xMax="1358" yMax="1541">
      <component glyphName=".ttfautohint" x="88" y="0" flags="0x0"/>
      <component glyphName="L" x="0" y="0" flags="0x1204"/>
      <component glyphName="commaaccent" x="427" y="0" flags="0x1004"/>
    </TTGlyph>
    <TTGlyph name="Ldot" xMin="88" yMin="0" xMax="1438" yMax="1541">
      <component glyphName=".ttfautohint" x="88" y="0" flags="0x0"/>
      <component glyphName="L" x="0" y="0" flags="0x1204"/>
      <component glyphName="dotaccent" x="813" y="-644" flags="0x1004"/>
    </TTGlyph>
    <TTGlyph name="Lslash" xMin="88" yMin="0" xMax="1358" yMax="1541">
      <contour>
        <pt x="1358" y="311" on="1"/>
        <pt x="1358" y="86" on="0"/>
        <pt x="1298" y="0" on="1"/>
        <pt x="207" y="0" on="1"/>
        <pt x="128" y="0" on="0"/>
        <pt x="98" y="40" on="1"/>
        <pt x="88" y="54" on="0"/>
        <pt x="88" y="71" on="1"/>
        <pt x="88" y="109" on="0"/>
        <pt x="104" y="129" on="1"/>
        <pt x="138" y="119" on="0"/>
        <pt x="193" y="119" on="1"/>
        <pt x="316" y="119" on="0"/>
        <pt x="316" y="270" on="1"/>
        <pt x="316" y="565" on="1"/>
        <pt x="177" y="494" on="1"/>
        <pt x="128" y="535" on="0"/>
        <pt x="128" y="593" on="1"/>
        <pt x="128" y="630" on="0"/>
        <pt x="154" y="645" on="1"/>
        <pt x="316" y="727" on="1"/>
        <pt x="316" y="1297" on="1"/>
        <pt x="316" y="1366" on="0"/>
        <pt x="258" y="1390" on="1"/>
        <pt x="241" y="1398" on="0"/>
        <pt x="216" y="1405" on="1"/>
        <pt x="166" y="1418" on="1"/>
        <pt x="118" y="1430" on="0"/>
        <pt x="95" y="1465" on="0"/>
        <pt x="95" y="1483" on="1"/>
        <pt x="95" y="1521" on="0"/>
        <pt x="111" y="1541" on="1"/>
        <pt x="134" y="1533" on="0"/>
        <pt x="210" y="1533" on="1"/>
        <pt x="646" y="1533" on="1"/>
        <pt x="698" y="1533" on="0"/>
        <pt x="760" y="1500" on="0"/>
        <pt x="760" y="1456" on="1"/>
        <pt x="760" y="1422" on="0"/>
        <pt x="745" y="1405" on="1"/>
        <pt x="707" y="1415" on="0"/>
        <pt x="638" y="1415" on="0"/>
        <pt x="599" y="1400" on="0"/>
        <pt x="584" y="1382" on="1"/>
        <pt x="554" y="1344" on="0"/>
        <pt x="552" y="1257" on="1"/>
        <pt x="552" y="847" on="1"/>
        <pt x="966" y="1058" on="1"/>
        <pt x="988" y="1044" on="0"/>
        <pt x="1016" y="990" on="0"/>
        <pt x="1016" y="968" on="1"/>
        <pt x="1016" y="923" on="0"/>
        <pt x="986" y="906" on="1"/>
        <pt x="552" y="685" on="1"/>
        <pt x="552" y="246" on="1"/>
        <pt x="554" y="176" on="0"/>
        <pt x="593" y="152" on="1"/>
        <pt x="626" y="131" on="0"/>
        <pt x="714" y="131" on="1"/>
        <pt x="789" y="132" on="1"/>
        <pt x="875" y="133" on="1"/>
        <pt x="1093" y="133" on="0"/>
        <pt x="1160" y="230" on="1"/>
        <pt x="1193" y="278" on="0"/>
        <pt x="1216" y="423" on="0"/>
        <pt x="1225" y="519" on="1"/>
        <pt x="1241" y="529" on="0"/>
        <pt x="1268" y="529" on="1"/>
        <pt x="1319" y="529" on="0"/>
        <pt x="1337" y="517" on="1"/>
        <pt x="1358" y="435" on="0"/>
      </contour>
    </TTGlyph>
    <TTGlyph name="M" xMin="61" yMin="-5" xMax="2100" yMax="1538">
      <contour>
        <pt x="195" y="0" on="1"/>
        <pt x="61" y="0" on="0"/>
        <pt x="61" y="74" on="1"/>
        <pt x="61" y="107" on="0"/>
        <pt x="77" y="127" on="1"/>
        <pt x="106" y="119" on="0"/>
        <pt x="166" y="119" on="0"/>
        <pt x="208" y="123" on="0"/>
        <pt x="226" y="138" on="1"/>
        <pt x="263" y="172" on="0"/>
        <pt x="272" y="289" on="1"/>
        <pt x="375" y="1351" on="1"/>
        <pt x="377" y="1376" on="0"/>
        <pt x="339" y="1404" on="0"/>
        <pt x="283" y="1416" on="0"/>
        <pt x="242" y="1424" on="0"/>
        <pt x="227" y="1432" on="1"/>
        <pt x="196" y="1447" on="0"/>
        <pt x="196" y="1520" on="0"/>
        <pt x="210" y="1538" on="1"/>
        <pt x="229" y="1533" on="0"/>
        <pt x="244" y="1533" on="1"/>
        <pt x="540" y="1533" on="1"/>
        <pt x="689" y="1533" on="0"/>
        <pt x="723" y="1460" on="1"/>
        <pt x="1095" y="587" on="1"/>
        <pt x="1479" y="1465" on="1"/>
        <pt x="1498" y="1509" on="0"/>
        <pt x="1574" y="1533" on="0"/>
        <pt x="1633" y="1533" on="1"/>
        <pt x="1827" y="1533" on="1"/>
        <pt x="1962" y="1533" on="0"/>
        <pt x="1962" y="1462" on="1"/>
        <pt x="1962" y="1424" on="0"/>
        <pt x="1947" y="1407" on="1"/>
        <pt x="1907" y="1418" on="0"/>
        <pt x="1856" y="1418" on="0"/>
        <pt x="1816" y="1410" on="0"/>
        <pt x="1804" y="1399" on="1"/>
        <pt x="1779" y="1378" on="0"/>
        <pt x="1785" y="1315" on="1"/>
        <pt x="1893" y="221" on="1"/>
        <pt x="1900" y="151" on="0"/>
        <pt x="1968" y="133" on="1"/>
        <pt x="1987" y="128" on="0"/>
        <pt x="2008" y="121" on="1"/>
        <pt x="2047" y="108" on="1"/>
        <pt x="2084" y="96" on="0"/>
        <pt x="2100" y="57" on="0"/>
        <pt x="2100" y="39" on="1"/>
        <pt x="2100" y="14" on="0"/>
        <pt x="2085" y="-5" on="1"/>
        <pt x="2062" y="0" on="0"/>
        <pt x="2038" y="0" on="1"/>
        <pt x="1582" y="0" on="1"/>
        <pt x="1460" y="0" on="0"/>
        <pt x="1460" y="73" on="1"/>
        <pt x="1460" y="85" on="0"/>
        <pt x="1474" y="122" on="0"/>
        <pt x="1478" y="127" on="1"/>
        <pt x="1508" y="119" on="0"/>
        <pt x="1559" y="119" on="0"/>
        <pt x="1614" y="127" on="0"/>
        <pt x="1633" y="142" on="1"/>
        <pt x="1674" y="176" on="0"/>
        <pt x="1668" y="271" on="1"/>
        <pt x="1603" y="1129" on="1"/>
        <pt x="1594" y="1296" on="1"/>
        <pt x="1134" y="277" on="1"/>
        <pt x="1121" y="269" on="0"/>
        <pt x="1067" y="269" on="0"/>
        <pt x="1010" y="308" on="0"/>
        <pt x="987" y="337" on="1"/>
        <pt x="950" y="384" on="0"/>
        <pt x="916" y="457" on="1"/>
        <pt x="544" y="1329" on="1"/>
        <pt x="463" y="240" on="1"/>
        <pt x="459" y="183" on="0"/>
        <pt x="479" y="163" on="1"/>
        <pt x="504" y="138" on="0"/>
        <pt x="586" y="116" on="0"/>
        <pt x="632" y="105" on="0"/>
        <pt x="649" y="96" on="1"/>
        <pt x="686" y="78" on="0"/>
        <pt x="686" y="36" on="1"/>
        <pt x="686" y="15" on="0"/>
        <pt x="670" y="-5" on="1"/>
        <pt x="652" y="0" on="0"/>
        <pt x="636" y="0" on="1"/>
      </contour>
    </TTGlyph>
    <TTGlyph name="N" xMin="81" yMin="-14" xMax="1768" yMax="1538">
      <contour>
        <pt x="215" y="0" on="1"/>
        <pt x="81" y="0" on="0"/>
        <pt x="81" y="77" on="1"/>
        <pt x="81" y="112" on="0"/>
        <pt x="97" y="126" on="1"/>
        <pt x="126" y="118" on="0"/>
        <pt x="189" y="118" on="0"/>
        <pt x="236" y="134" on="0"/>
        <pt x="254" y="149" on="1"/>
        <pt x="290" y="180" on="0"/>
        <pt x="290" y="236" on="1"/>
        <pt x="290" y="1325" on="1"/>
        <pt x="288" y="1365" on="0"/>
        <pt x="258" y="1405" on="0"/>
        <pt x="198" y="1422" on="0"/>
        <pt x="159" y="1430" on="0"/>
        <pt x="143" y="1436" on="1"/>
        <pt x="108" y="1451" on="0"/>
        <pt x="108" y="1473" on="1"/>
        <pt x="108" y="1519" on="0"/>
        <pt x="123" y="1538" on="1"/>
        <pt x="144" y="1533" on="0"/>
        <pt x="187" y="1533" on="1"/>
        <pt x="382" y="1533" on="1"/>
        <pt x="470" y="1533" on="0"/>
        <pt x="540" y="1444" on="1"/>
        <pt x="1381" y="378" on="1"/>
        <pt x="1381" y="1311" on="1"/>
        <pt x="1380" y="1351" on="0"/>
        <pt x="1349" y="1405" on="0"/>
        <pt x="1276" y="1423" on="0"/>
        <pt x="1220" y="1432" on="0"/>
        <pt x="1198" y="1440" on="1"/>
        <pt x="1151" y="1456" on="0"/>
        <pt x="1151" y="1492" on="1"/>
        <pt x="1151" y="1522" on="0"/>
        <pt x="1167" y="1538" on="1"/>
        <pt x="1188" y="1533" on="0"/>
        <pt x="1231" y="1533" on="1"/>
        <pt x="1634" y="1533" on="1"/>
        <pt x="1768" y="1533" on="0"/>
        <pt x="1768" y="1476" on="1"/>
        <pt x="1768" y="1428" on="0"/>
        <pt x="1753" y="1411" on="1"/>
        <pt x="1728" y="1418" on="0"/>
        <pt x="1663" y="1418" on="0"/>
        <pt x="1615" y="1415" on="0"/>
        <pt x="1596" y="1404" on="1"/>
        <pt x="1554" y="1381" on="0"/>
        <pt x="1552" y="1310" on="1"/>
        <pt x="1552" y="28" on="1"/>
        <pt x="1552" y="-1" on="0"/>
        <pt x="1520" y="-14" on="0"/>
        <pt x="1478" y="-14" on="1"/>
        <pt x="1407" y="-14" on="0"/>
        <pt x="1326" y="91" on="1"/>
        <pt x="461" y="1179" on="1"/>
        <pt x="461" y="222" on="1"/>
        <pt x="466" y="136" on="0"/>
        <pt x="542" y="116" on="1"/>
        <pt x="571" y="110" on="0"/>
        <pt x="628" y="102" on="0"/>
        <pt x="650" y="96" on="1"/>
        <pt x="701" y="83" on="0"/>
        <pt x="701" y="50" on="1"/>
        <pt x="701" y="14" on="0"/>
        <pt x="686" y="-5" on="1"/>
        <pt x="665" y="0" on="0"/>
        <pt x="622" y="0" on="1"/>
      </contour>
    </TTGlyph>
    <TTGlyph name="Nacute" xMin="81" yMin="-14" xMax="1768" yMax="1966">
      <component glyphName=".ttfautohint" x="81" y="0" flags="0x0"/>
      <component glyphName="N" x="0" y="0" flags="0x1204"/>
      <component glyphName="acute.cap" x="528" y="0" flags="0x1004"/>
    </TTGlyph>
    <TTGlyph name="Ncaron" xMin="81" yMin="-14" xMax="1768" yMax="1969">
      <component glyphName=".ttfautohint" x="81" y="0" flags="0x0"/>
      <component glyphName="N" x="0" y="0" flags="0x1204"/>
      <component glyphName="caron.cap" x="280" y="0" flags="0x1004"/>
    </TTGlyph>
    <TTGlyph name="Ncommaaccent" xMin="81" yMin="-514" xMax="1768" yMax="1538">
      <component glyphName=".ttfautohint" x="81" y="0" flags="0x0"/>
      <component glyphName="N" x="0" y="0" flags="0x1204"/>
      <component glyphName="commaaccent" x="628" y="0" flags="0x1004"/>
    </TTGlyph>
    <TTGlyph name="Ntilde" xMin="81" yMin="-14" xMax="1768" yMax="1969">
      <component glyphName=".ttfautohint" x="81" y="0" flags="0x0"/>
      <component glyphName="N" x="0" y="0" flags="0x1204"/>
      <component glyphName="tilde.cap" x="427" y="0" flags="0x1004"/>
    </TTGlyph>
    <TTGlyph name="O" xMin="109" yMin="-19" xMax="1589" yMax="1552">
      <contour>
        <pt x="216" y="273" on="0"/>
        <pt x="109" y="542" on="0"/>
        <pt x="109" y="843" on="0"/>
        <pt x="169" y="1073" on="0"/>
        <pt x="275" y="1260" on="0"/>
        <pt x="421" y="1404" on="0"/>
        <pt x="507" y="1453" on="1"/>
        <pt x="681" y="1552" on="0"/>
        <pt x="884" y="1552" on="1"/>
        <pt x="1192" y="1552" on="0"/>
        <pt x="1386" y="1356" on="1"/>
        <pt x="1589" y="1152" on="0"/>
        <pt x="1589" y="819" on="1"/>
        <pt x="1589" y="568" on="0"/>
        <pt x="1476" y="368" on="1"/>
        <pt x="1373" y="186" on="0"/>
        <pt x="1192" y="82" on="1"/>
        <pt x="1018" y="-19" on="0"/>
        <pt x="665" y="-19" on="0"/>
        <pt x="406" y="84" on="0"/>
      </contour>
      <contour>
        <pt x="420" y="1141" on="0"/>
        <pt x="364" y="905" on="0"/>
        <pt x="364" y="634" on="0"/>
        <pt x="416" y="409" on="0"/>
        <pt x="473" y="324" on="1"/>
        <pt x="597" y="139" on="0"/>
        <pt x="841" y="139" on="1"/>
        <pt x="1087" y="139" on="0"/>
        <pt x="1214" y="300" on="1"/>
        <pt x="1336" y="457" on="0"/>
        <pt x="1336" y="747" on="1"/>
        <pt x="1336" y="1192" on="0"/>
        <pt x="1072" y="1344" on="1"/>
        <pt x="978" y="1397" on="0"/>
        <pt x="720" y="1397" on="0"/>
        <pt x="538" y="1307" on="0"/>
      </contour>
    </TTGlyph>
    <TTGlyph name="OE" xMin="108" yMin="-19" xMax="2182" yMax="1552">
      <contour>
        <pt x="1005" y="1" on="1"/>
        <pt x="905" y="-19" on="0"/>
        <pt x="663" y="-19" on="0"/>
        <pt x="406" y="83" on="0"/>
        <pt x="312" y="178" on="1"/>
        <pt x="108" y="384" on="0"/>
        <pt x="108" y="713" on="1"/>
        <pt x="108" y="971" on="0"/>
        <pt x="222" y="1170" on="1"/>
        <pt x="327" y="1352" on="0"/>
        <pt x="510" y="1454" on="1"/>
        <pt x="683" y="1552" on="0"/>
        <pt x="888" y="1552" on="1"/>
        <pt x="976" y="1552" on="0"/>
        <pt x="1065" y="1533" on="1"/>
        <pt x="1994" y="1533" on="1"/>
        <pt x="2086" y="1533" on="0"/>
        <pt x="2109" y="1516" on="1"/>
        <pt x="2151" y="1486" on="0"/>
        <pt x="2151" y="1384" on="1"/>
        <pt x="2151" y="1286" on="0"/>
        <pt x="2118" y="1162" on="0"/>
        <pt x="2111" y="1150" on="1"/>
        <pt x="2101" y="1132" on="0"/>
        <pt x="2072" y="1132" on="1"/>
        <pt x="2030" y="1132" on="0"/>
        <pt x="1999" y="1153" on="0"/>
        <pt x="1998" y="1158" on="1"/>
        <pt x="1985" y="1301" on="0"/>
        <pt x="1921" y="1380" on="0"/>
        <pt x="1834" y="1409" on="0"/>
        <pt x="1764" y="1409" on="1"/>
        <pt x="1541" y="1409" on="1"/>
        <pt x="1435" y="1409" on="0"/>
        <pt x="1388" y="1367" on="0"/>
        <pt x="1376" y="1312" on="0"/>
        <pt x="1376" y="1269" on="1"/>
        <pt x="1376" y="843" on="1"/>
        <pt x="1435" y="842" on="1"/>
        <pt x="1656" y="842" on="0"/>
        <pt x="1845" y="881" on="1"/>
        <pt x="1859" y="874" on="0"/>
        <pt x="1881" y="809" on="0"/>
        <pt x="1881" y="777" on="1"/>
        <pt x="1881" y="723" on="0"/>
        <pt x="1863" y="683" on="1"/>
        <pt x="1797" y="677" on="0"/>
        <pt x="1625" y="677" on="0"/>
        <pt x="1376" y="705" on="1"/>
        <pt x="1376" y="254" on="1"/>
        <pt x="1376" y="179" on="0"/>
        <pt x="1416" y="153" on="1"/>
        <pt x="1450" y="131" on="0"/>
        <pt x="1538" y="131" on="1"/>
        <pt x="1689" y="135" on="1"/>
        <pt x="1908" y="143" on="0"/>
        <pt x="1974" y="196" on="1"/>
        <pt x="2011" y="226" on="0"/>
        <pt x="2035" y="324" on="0"/>
        <pt x="2035" y="423" on="0"/>
        <pt x="2033" y="445" on="1"/>
        <pt x="2060" y="468" on="0"/>
        <pt x="2090" y="468" on="1"/>
        <pt x="2136" y="468" on="0"/>
        <pt x="2143" y="455" on="1"/>
        <pt x="2182" y="377" on="0"/>
        <pt x="2182" y="197" on="1"/>
        <pt x="2182" y="72" on="0"/>
        <pt x="2154" y="16" on="1"/>
        <pt x="2145" y="0" on="0"/>
        <pt x="2135" y="0" on="1"/>
        <pt x="1576" y="0" on="0"/>
        <pt x="1011" y="0" on="0"/>
      </contour>
      <contour>
        <pt x="420" y="1143" on="0"/>
        <pt x="360" y="908" on="0"/>
        <pt x="360" y="639" on="0"/>
        <pt x="415" y="415" on="0"/>
        <pt x="474" y="331" on="1"/>
        <pt x="601" y="148" on="0"/>
        <pt x="845" y="148" on="1"/>
        <pt x="884" y="148" on="1"/>
        <pt x="1012" y="148" on="0"/>
        <pt x="1107" y="190" on="0"/>
        <pt x="1134" y="213" on="1"/>
        <pt x="1140" y="237" on="0"/>
        <pt x="1140" y="270" on="1"/>
        <pt x="1140" y="1283" on="1"/>
        <pt x="1140" y="1333" on="0"/>
        <pt x="1119" y="1360" on="1"/>
        <pt x="1015" y="1402" on="0"/>
        <pt x="743" y="1402" on="0"/>
        <pt x="546" y="1310" on="0"/>
      </contour>
    </TTGlyph>
    <TTGlyph name="Oacute" xMin="109" yMin="-19" xMax="1589" yMax="1966">
      <component glyphName=".ttfautohint" x="109" y="0" flags="0x0"/>
      <component glyphName="O" x="0" y="0" flags="0x1204"/>
      <component glyphName="acute.cap" x="470" y="0" flags="0x1004"/>
    </TTGlyph>
    <TTGlyph name="Obreve" xMin="109" yMin="-19" xMax="1589" yMax="1976">
      <component glyphName=".ttfautohint" x="109" y="0" flags="0x0"/>
      <component glyphName="O" x="0" y="0" flags="0x1204"/>
      <component glyphName="breve.cap" x="-141" y="0" flags="0x1004"/>
    </TTGlyph>
    <TTGlyph name="Ocircumflex" xMin="109" yMin="-19" xMax="1589" yMax="1969">
      <component glyphName=".ttfautohint" x="109" y="0" flags="0x0"/>
      <component glyphName="O" x="0" y="0" flags="0x1204"/>
      <component glyphName="circumflex.cap" x="428" y="0" flags="0x1004"/>
    </TTGlyph>
    <TTGlyph name="Odieresis" xMin="109" yMin="-19" xMax="1589" yMax="1958">
      <component glyphName=".ttfautohint" x="109" y="0" flags="0x0"/>
      <component glyphName="O" x="0" y="0" flags="0x1204"/>
      <component glyphName="dieresis.cap" x="333" y="0" flags="0x1004"/>
    </TTGlyph>
    <TTGlyph name="Ograve" xMin="109" yMin="-19" xMax="1589" yMax="1966">
      <component glyphName=".ttfautohint" x="109" y="0" flags="0x0"/>
      <component glyphName="O" x="0" y="0" flags="0x1204"/>
      <component glyphName="grave.cap" x="562" y="0" flags="0x1004"/>
    </TTGlyph>
    <TTGlyph name="Ohungarumlaut" xMin="109" yMin="-19" xMax="1589" yMax="1989">
      <component glyphName=".ttfautohint" x="109" y="0" flags="0x0"/>
      <component glyphName="O" x="0" y="0" flags="0x1204"/>
      <component glyphName="hungarumlaut.cap" x="320" y="0" flags="0x1004"/>
    </TTGlyph>
    <TTGlyph name="Omacron" xMin="109" yMin="-19" xMax="1589" yMax="1889">
      <component glyphName=".ttfautohint" x="109" y="0" flags="0x0"/>
      <component glyphName="O" x="0" y="0" flags="0x1204"/>
      <component glyphName="macron.cap" x="370" y="0" flags="0x1004"/>
    </TTGlyph>
    <TTGlyph name="Omega" xMin="62" yMin="0" xMax="1763" yMax="1552">
      <contour>
        <pt x="1763" y="237" on="1"/>
        <pt x="1762" y="186" on="1"/>
        <pt x="1752" y="59" on="0"/>
        <pt x="1673" y="16" on="1"/>
        <pt x="1645" y="0" on="0"/>
        <pt x="1608" y="0" on="1"/>
        <pt x="1062" y="0" on="1"/>
        <pt x="1038" y="19" on="0"/>
        <pt x="1022" y="99" on="0"/>
        <pt x="1022" y="120" on="1"/>
        <pt x="1024" y="120" on="1"/>
        <pt x="1271" y="330" on="0"/>
        <pt x="1360" y="634" on="1"/>
        <pt x="1395" y="756" on="0"/>
        <pt x="1395" y="1012" on="0"/>
        <pt x="1327" y="1197" on="0"/>
        <pt x="1262" y="1266" on="1"/>
        <pt x="1123" y="1412" on="0"/>
        <pt x="887" y="1412" on="1"/>
        <pt x="691" y="1412" on="0"/>
        <pt x="570" y="1262" on="1"/>
        <pt x="456" y="1120" on="0"/>
        <pt x="456" y="904" on="1"/>
        <pt x="456" y="579" on="0"/>
        <pt x="658" y="296" on="1"/>
        <pt x="735" y="188" on="0"/>
        <pt x="814" y="120" on="1"/>
        <pt x="816" y="120" on="1"/>
        <pt x="819" y="64" on="0"/>
        <pt x="789" y="16" on="1"/>
        <pt x="782" y="4" on="0"/>
        <pt x="777" y="0" on="1"/>
        <pt x="234" y="0" on="1"/>
        <pt x="104" y="0" on="0"/>
        <pt x="72" y="116" on="1"/>
        <pt x="62" y="149" on="0"/>
        <pt x="62" y="186" on="1"/>
        <pt x="62" y="372" on="0"/>
        <pt x="151" y="372" on="1"/>
        <pt x="174" y="372" on="0"/>
        <pt x="197" y="367" on="1"/>
        <pt x="202" y="241" on="0"/>
        <pt x="316" y="198" on="1"/>
        <pt x="398" y="166" on="0"/>
        <pt x="610" y="164" on="1"/>
        <pt x="429" y="280" on="0"/>
        <pt x="318" y="480" on="1"/>
        <pt x="203" y="688" on="0"/>
        <pt x="203" y="914" on="1"/>
        <pt x="203" y="1089" on="0"/>
        <pt x="306" y="1239" on="1"/>
        <pt x="403" y="1381" on="0"/>
        <pt x="572" y="1466" on="1"/>
        <pt x="744" y="1552" on="0"/>
        <pt x="944" y="1552" on="1"/>
        <pt x="1245" y="1552" on="0"/>
        <pt x="1448" y="1377" on="1"/>
        <pt x="1648" y="1203" on="0"/>
        <pt x="1648" y="933" on="1"/>
        <pt x="1648" y="711" on="0"/>
        <pt x="1517" y="496" on="1"/>
        <pt x="1402" y="307" on="0"/>
        <pt x="1215" y="164" on="1"/>
        <pt x="1441" y="166" on="0"/>
        <pt x="1577" y="216" on="0"/>
        <pt x="1645" y="296" on="0"/>
        <pt x="1657" y="367" on="1"/>
        <pt x="1680" y="372" on="0"/>
        <pt x="1698" y="372" on="1"/>
        <pt x="1740" y="372" on="0"/>
        <pt x="1756" y="344" on="1"/>
        <pt x="1763" y="312" on="0"/>
      </contour>
    </TTGlyph>
    <TTGlyph name="Oslash" xMin="109" yMin="-115" xMax="1589" yMax="1639">
      <contour>
        <pt x="1217" y="1477" on="1"/>
        <pt x="1299" y="1613" on="1"/>
        <pt x="1317" y="1639" on="0"/>
        <pt x="1348" y="1639" on="1"/>
        <pt x="1408" y="1639" on="0"/>
        <pt x="1441" y="1594" on="1"/>
        <pt x="1328" y="1407" on="1"/>
        <pt x="1449" y="1313" on="0"/>
        <pt x="1589" y="1015" on="0"/>
        <pt x="1589" y="688" on="0"/>
        <pt x="1529" y="462" on="0"/>
        <pt x="1423" y="275" on="0"/>
        <pt x="1277" y="131" on="0"/>
        <pt x="1192" y="82" on="1"/>
        <pt x="1018" y="-19" on="0"/>
        <pt x="647" y="-19" on="0"/>
        <pt x="505" y="45" on="1"/>
        <pt x="425" y="-88" on="1"/>
        <pt x="404" y="-115" on="0"/>
        <pt x="372" y="-115" on="1"/>
        <pt x="307" y="-115" on="0"/>
        <pt x="281" y="-70" on="1"/>
        <pt x="390" y="111" on="1"/>
        <pt x="186" y="258" on="0"/>
        <pt x="128" y="520" on="1"/>
        <pt x="109" y="609" on="0"/>
        <pt x="109" y="843" on="0"/>
        <pt x="169" y="1073" on="0"/>
        <pt x="275" y="1260" on="0"/>
        <pt x="421" y="1404" on="0"/>
        <pt x="507" y="1453" on="1"/>
        <pt x="681" y="1552" on="0"/>
        <pt x="1065" y="1552" on="0"/>
      </contour>
      <contour>
        <pt x="1118" y="1314" on="1"/>
        <pt x="1003" y="1397" on="0"/>
        <pt x="720" y="1397" on="0"/>
        <pt x="538" y="1307" on="0"/>
        <pt x="479" y="1224" on="1"/>
        <pt x="364" y="1062" on="0"/>
        <pt x="364" y="760" on="1"/>
        <pt x="364" y="454" on="0"/>
        <pt x="498" y="290" on="1"/>
      </contour>
      <contour>
        <pt x="600" y="201" on="1"/>
        <pt x="701" y="139" on="0"/>
        <pt x="966" y="139" on="0"/>
        <pt x="1152" y="222" on="0"/>
        <pt x="1214" y="300" on="1"/>
        <pt x="1336" y="457" on="0"/>
        <pt x="1336" y="747" on="1"/>
        <pt x="1336" y="1044" on="0"/>
        <pt x="1213" y="1216" on="1"/>
      </contour>
    </TTGlyph>
    <TTGlyph name="Otilde" xMin="109" yMin="-19" xMax="1589" yMax="1969">
      <component glyphName=".ttfautohint" x="109" y="0" flags="0x0"/>
      <component glyphName="O" x="0" y="0" flags="0x1204"/>
      <component glyphName="tilde.cap" x="370" y="0" flags="0x1004"/>
    </TTGlyph>
    <TTGlyph name="P" xMin="95" yMin="-8" xMax="1385" yMax="1543">
      <contour>
        <pt x="835" y="-8" on="1"/>
        <pt x="812" y="0" on="0"/>
        <pt x="736" y="0" on="1"/>
        <pt x="222" y="0" on="1"/>
        <pt x="170" y="0" on="0"/>
        <pt x="108" y="33" on="0"/>
        <pt x="108" y="77" on="1"/>
        <pt x="108" y="109" on="0"/>
        <pt x="123" y="128" on="1"/>
        <pt x="161" y="118" on="0"/>
        <pt x="231" y="118" on="0"/>
        <pt x="271" y="133" on="0"/>
        <pt x="286" y="152" on="1"/>
        <pt x="316" y="192" on="0"/>
        <pt x="316" y="285" on="1"/>
        <pt x="316" y="1289" on="1"/>
        <pt x="316" y="1382" on="0"/>
        <pt x="206" y="1405" on="1"/>
        <pt x="137" y="1419" on="0"/>
        <pt x="95" y="1455" on="0"/>
        <pt x="95" y="1476" on="1"/>
        <pt x="95" y="1522" on="0"/>
        <pt x="111" y="1538" on="1"/>
        <pt x="129" y="1533" on="0"/>
        <pt x="144" y="1533" on="1"/>
        <pt x="392" y="1533" on="1"/>
        <pt x="748" y="1543" on="1"/>
        <pt x="1216" y="1543" on="0"/>
        <pt x="1340" y="1288" on="1"/>
        <pt x="1385" y="1196" on="0"/>
        <pt x="1385" y="1012" on="0"/>
        <pt x="1359" y="882" on="0"/>
        <pt x="1296" y="759" on="0"/>
        <pt x="1192" y="650" on="0"/>
        <pt x="1114" y="609" on="1"/>
        <pt x="945" y="521" on="0"/>
        <pt x="682" y="521" on="1"/>
        <pt x="644" y="521" on="1"/>
        <pt x="616" y="521" on="0"/>
        <pt x="616" y="557" on="1"/>
        <pt x="616" y="636" on="0"/>
        <pt x="659" y="646" on="1"/>
        <pt x="1035" y="638" on="0"/>
        <pt x="1114" y="870" on="1"/>
        <pt x="1138" y="943" on="0"/>
        <pt x="1138" y="1109" on="0"/>
        <pt x="1102" y="1248" on="0"/>
        <pt x="1055" y="1302" on="1"/>
        <pt x="951" y="1420" on="0"/>
        <pt x="711" y="1420" on="1"/>
        <pt x="614" y="1420" on="0"/>
        <pt x="582" y="1378" on="1"/>
        <pt x="552" y="1341" on="0"/>
        <pt x="552" y="1228" on="1"/>
        <pt x="552" y="229" on="1"/>
        <pt x="557" y="151" on="0"/>
        <pt x="676" y="134" on="1"/>
        <pt x="783" y="119" on="0"/>
        <pt x="835" y="93" on="0"/>
        <pt x="851" y="68" on="0"/>
        <pt x="851" y="50" on="1"/>
        <pt x="851" y="12" on="0"/>
      </contour>
    </TTGlyph>
    <TTGlyph name="Q" xMin="111" yMin="-423" xMax="1636" yMax="1552">
      <contour>
        <pt x="444" y="-306" on="1"/>
        <pt x="356" y="-306" on="0"/>
        <pt x="356" y="-220" on="1"/>
        <pt x="356" y="-131" on="0"/>
        <pt x="519" y="-85" on="1"/>
        <pt x="955" y="35" on="0"/>
        <pt x="1142" y="210" on="1"/>
        <pt x="1346" y="402" on="0"/>
        <pt x="1346" y="739" on="1"/>
        <pt x="1346" y="921" on="0"/>
        <pt x="1279" y="1129" on="0"/>
        <pt x="1204" y="1254" on="0"/>
        <pt x="1149" y="1300" on="1"/>
        <pt x="1032" y="1396" on="0"/>
        <pt x="853" y="1396" on="1"/>
        <pt x="504" y="1396" on="0"/>
        <pt x="402" y="1041" on="1"/>
        <pt x="368" y="920" on="0"/>
        <pt x="368" y="754" on="1"/>
        <pt x="368" y="364" on="0"/>
        <pt x="570" y="242" on="1"/>
        <pt x="619" y="212" on="0"/>
        <pt x="686" y="202" on="1"/>
        <pt x="707" y="196" on="0"/>
        <pt x="717" y="173" on="1"/>
        <pt x="735" y="132" on="0"/>
        <pt x="723" y="119" on="1"/>
        <pt x="698" y="92" on="0"/>
        <pt x="543" y="97" on="0"/>
        <pt x="407" y="143" on="0"/>
        <pt x="293" y="225" on="0"/>
        <pt x="205" y="335" on="0"/>
        <pt x="174" y="402" on="1"/>
        <pt x="111" y="538" on="0"/>
        <pt x="111" y="848" on="0"/>
        <pt x="176" y="1089" on="0"/>
        <pt x="289" y="1278" on="0"/>
        <pt x="442" y="1417" on="0"/>
        <pt x="530" y="1462" on="1"/>
        <pt x="703" y="1552" on="0"/>
        <pt x="1047" y="1552" on="0"/>
        <pt x="1302" y="1451" on="0"/>
        <pt x="1396" y="1356" on="1"/>
        <pt x="1600" y="1151" on="0"/>
        <pt x="1600" y="814" on="1"/>
        <pt x="1600" y="324" on="0"/>
        <pt x="1236" y="68" on="1"/>
        <pt x="1085" y="-37" on="0"/>
        <pt x="877" y="-100" on="1"/>
        <pt x="972" y="-138" on="1"/>
        <pt x="1153" y="-208" on="0"/>
        <pt x="1250" y="-208" on="1"/>
        <pt x="1479" y="-208" on="0"/>
        <pt x="1568" y="-96" on="1"/>
        <pt x="1602" y="-94" on="0"/>
        <pt x="1636" y="-143" on="0"/>
        <pt x="1636" y="-223" on="0"/>
        <pt x="1582" y="-314" on="0"/>
        <pt x="1533" y="-348" on="1"/>
        <pt x="1427" y="-423" on="0"/>
        <pt x="1269" y="-423" on="1"/>
        <pt x="1169" y="-423" on="0"/>
        <pt x="977" y="-350" on="0"/>
        <pt x="922" y="-324" on="1"/>
        <pt x="814" y="-277" on="1"/>
        <pt x="695" y="-226" on="0"/>
        <pt x="590" y="-226" on="0"/>
        <pt x="530" y="-240" on="0"/>
        <pt x="509" y="-251" on="1"/>
        <pt x="482" y="-265" on="0"/>
      </contour>
    </TTGlyph>
    <TTGlyph name="R" xMin="108" yMin="-19" xMax="1584" yMax="1544">
      <contour>
        <pt x="728" y="-8" on="1"/>
        <pt x="705" y="0" on="0"/>
        <pt x="630" y="0" on="1"/>
        <pt x="222" y="0" on="1"/>
        <pt x="170" y="0" on="0"/>
        <pt x="108" y="33" on="0"/>
        <pt x="108" y="77" on="1"/>
        <pt x="108" y="109" on="0"/>
        <pt x="123" y="128" on="1"/>
        <pt x="161" y="118" on="0"/>
        <pt x="231" y="118" on="0"/>
        <pt x="271" y="133" on="0"/>
        <pt x="286" y="152" on="1"/>
        <pt x="316" y="192" on="0"/>
        <pt x="316" y="285" on="1"/>
        <pt x="316" y="1308" on="1"/>
        <pt x="313" y="1378" on="0"/>
        <pt x="270" y="1397" on="1"/>
        <pt x="257" y="1403" on="0"/>
        <pt x="212" y="1413" on="0"/>
        <pt x="169" y="1424" on="0"/>
        <pt x="154" y="1432" on="1"/>
        <pt x="124" y="1448" on="0"/>
        <pt x="124" y="1474" on="1"/>
        <pt x="124" y="1521" on="0"/>
        <pt x="140" y="1541" on="1"/>
        <pt x="163" y="1533" on="0"/>
        <pt x="239" y="1533" on="1"/>
        <pt x="369" y="1533" on="1"/>
        <pt x="720" y="1543" on="1"/>
        <pt x="763" y="1544" on="1"/>
        <pt x="1071" y="1544" on="0"/>
        <pt x="1377" y="1325" on="0"/>
        <pt x="1377" y="1126" on="1"/>
        <pt x="1377" y="977" on="0"/>
        <pt x="1280" y="852" on="1"/>
        <pt x="1172" y="713" on="0"/>
        <pt x="982" y="664" on="1"/>
        <pt x="1034" y="628" on="0"/>
        <pt x="1100" y="532" on="1"/>
        <pt x="1206" y="377" on="1"/>
        <pt x="1355" y="160" on="0"/>
        <pt x="1453" y="160" on="1"/>
        <pt x="1490" y="160" on="0"/>
        <pt x="1509" y="167" on="1"/>
        <pt x="1534" y="177" on="1"/>
        <pt x="1542" y="180" on="0"/>
        <pt x="1562" y="180" on="0"/>
        <pt x="1584" y="149" on="0"/>
        <pt x="1584" y="109" on="0"/>
        <pt x="1550" y="54" on="0"/>
        <pt x="1519" y="32" on="1"/>
        <pt x="1449" y="-19" on="0"/>
        <pt x="1283" y="-19" on="0"/>
        <pt x="1176" y="37" on="0"/>
        <pt x="1087" y="128" on="0"/>
        <pt x="1014" y="244" on="0"/>
        <pt x="982" y="305" on="1"/>
        <pt x="923" y="424" on="1"/>
        <pt x="860" y="554" on="0"/>
        <pt x="785" y="629" on="0"/>
        <pt x="754" y="629" on="1"/>
        <pt x="653" y="629" on="1"/>
        <pt x="628" y="629" on="0"/>
        <pt x="628" y="665" on="1"/>
        <pt x="628" y="715" on="0"/>
        <pt x="666" y="743" on="1"/>
        <pt x="679" y="752" on="0"/>
        <pt x="809" y="755" on="0"/>
        <pt x="972" y="807" on="0"/>
        <pt x="1025" y="852" on="1"/>
        <pt x="1128" y="941" on="0"/>
        <pt x="1128" y="1102" on="1"/>
        <pt x="1128" y="1237" on="0"/>
        <pt x="1038" y="1323" on="1"/>
        <pt x="936" y="1420" on="0"/>
        <pt x="754" y="1422" on="1"/>
        <pt x="634" y="1422" on="0"/>
        <pt x="594" y="1386" on="1"/>
        <pt x="554" y="1352" on="0"/>
        <pt x="552" y="1257" on="1"/>
        <pt x="552" y="236" on="1"/>
        <pt x="552" y="157" on="0"/>
        <pt x="596" y="136" on="1"/>
        <pt x="610" y="130" on="0"/>
        <pt x="656" y="120" on="0"/>
        <pt x="699" y="109" on="0"/>
        <pt x="714" y="101" on="1"/>
        <pt x="744" y="85" on="0"/>
        <pt x="744" y="58" on="1"/>
        <pt x="744" y="12" on="0"/>
      </contour>
    </TTGlyph>
    <TTGlyph name="Racute" xMin="108" yMin="-19" xMax="1584" yMax="1966">
      <component glyphName=".ttfautohint" x="108" y="0" flags="0x0"/>
      <component glyphName="R" x="0" y="0" flags="0x1204"/>
      <component glyphName="acute.cap" x="363" y="0" flags="0x1004"/>
    </TTGlyph>
    <TTGlyph name="Rcaron" xMin="108" yMin="-19" xMax="1584" yMax="1969">
      <component glyphName=".ttfautohint" x="108" y="0" flags="0x0"/>
      <component glyphName="R" x="0" y="0" flags="0x1204"/>
      <component glyphName="caron.cap" x="115" y="0" flags="0x1004"/>
    </TTGlyph>
    <TTGlyph name="Rcommaaccent" xMin="108" yMin="-514" xMax="1584" yMax="1544">
      <component glyphName=".ttfautohint" x="108" y="0" flags="0x0"/>
      <component glyphName="R" x="0" y="0" flags="0x1204"/>
      <component glyphName="commaaccent" x="525" y="0" flags="0x1004"/>
    </TTGlyph>
    <TTGlyph name="S" xMin="126" yMin="-19" xMax="1194" yMax="1552">
      <contour>
        <pt x="971" y="1111" on="1"/>
        <pt x="971" y="1340" on="0"/>
        <pt x="808" y="1398" on="1"/>
        <pt x="752" y="1418" on="0"/>
        <pt x="602" y="1418" on="0"/>
        <pt x="494" y="1384" on="0"/>
        <pt x="458" y="1355" on="1"/>
        <pt x="385" y="1296" on="0"/>
        <pt x="385" y="1199" on="1"/>
        <pt x="385" y="1052" on="0"/>
        <pt x="601" y="948" on="1"/>
        <pt x="726" y="889" on="1"/>
        <pt x="817" y="847" on="0"/>
        <pt x="986" y="760" on="0"/>
        <pt x="1051" y="704" on="1"/>
        <pt x="1194" y="582" on="0"/>
        <pt x="1194" y="402" on="1"/>
        <pt x="1194" y="209" on="0"/>
        <pt x="1026" y="91" on="1"/>
        <pt x="869" y="-19" on="0"/>
        <pt x="632" y="-19" on="1"/>
        <pt x="444" y="-19" on="0"/>
        <pt x="300" y="40" on="1"/>
        <pt x="194" y="82" on="0"/>
        <pt x="149" y="159" on="1"/>
        <pt x="126" y="198" on="0"/>
        <pt x="126" y="254" on="1"/>
        <pt x="126" y="366" on="0"/>
        <pt x="182" y="463" on="1"/>
        <pt x="201" y="486" on="0"/>
        <pt x="234" y="486" on="1"/>
        <pt x="298" y="486" on="0"/>
        <pt x="308" y="448" on="1"/>
        <pt x="321" y="275" on="0"/>
        <pt x="508" y="117" on="0"/>
        <pt x="676" y="117" on="1"/>
        <pt x="869" y="117" on="0"/>
        <pt x="935" y="243" on="1"/>
        <pt x="958" y="287" on="0"/>
        <pt x="958" y="406" on="0"/>
        <pt x="894" y="500" on="0"/>
        <pt x="841" y="540" on="1"/>
        <pt x="760" y="600" on="0"/>
        <pt x="493" y="712" on="0"/>
        <pt x="344" y="796" on="0"/>
        <pt x="287" y="852" on="1"/>
        <pt x="163" y="974" on="0"/>
        <pt x="163" y="1153" on="1"/>
        <pt x="163" y="1336" on="0"/>
        <pt x="320" y="1446" on="1"/>
        <pt x="471" y="1552" on="0"/>
        <pt x="710" y="1552" on="1"/>
        <pt x="1013" y="1552" on="0"/>
        <pt x="1106" y="1427" on="1"/>
        <pt x="1140" y="1382" on="0"/>
        <pt x="1140" y="1236" on="0"/>
        <pt x="1113" y="1128" on="0"/>
        <pt x="1100" y="1112" on="1"/>
        <pt x="1078" y="1085" on="0"/>
        <pt x="971" y="1085" on="0"/>
      </contour>
    </TTGlyph>
    <TTGlyph name="Sacute" xMin="126" yMin="-19" xMax="1194" yMax="1966">
      <component glyphName=".ttfautohint" x="126" y="0" flags="0x0"/>
      <component glyphName="S" x="0" y="0" flags="0x1204"/>
      <component glyphName="acute.cap" x="285" y="0" flags="0x1004"/>
    </TTGlyph>
    <TTGlyph name="Scaron" xMin="126" yMin="-19" xMax="1194" yMax="1969">
      <component glyphName=".ttfautohint" x="126" y="0" flags="0x0"/>
      <component glyphName="S" x="0" y="0" flags="0x1204"/>
      <component glyphName="caron.cap" x="38" y="0" flags="0x1004"/>
    </TTGlyph>
    <TTGlyph name="Scedilla" xMin="126" yMin="-503" xMax="1194" yMax="1552">
      <contour>
        <pt x="681" y="-111" on="1"/>
        <pt x="911" y="-116" on="0"/>
        <pt x="911" y="-268" on="1"/>
        <pt x="911" y="-425" on="0"/>
        <pt x="652" y="-482" on="1"/>
        <pt x="559" y="-503" on="0"/>
        <pt x="486" y="-501" on="1"/>
        <pt x="467" y="-489" on="0"/>
        <pt x="467" y="-450" on="1"/>
        <pt x="467" y="-408" on="0"/>
        <pt x="524" y="-400" on="0"/>
        <pt x="594" y="-386" on="0"/>
        <pt x="624" y="-374" on="1"/>
        <pt x="697" y="-345" on="0"/>
        <pt x="697" y="-296" on="1"/>
        <pt x="697" y="-229" on="0"/>
        <pt x="559" y="-224" on="1"/>
        <pt x="548" y="-224" on="0"/>
        <pt x="535" y="-181" on="0"/>
        <pt x="535" y="-178" on="1"/>
        <pt x="571" y="-17" on="1"/>
        <pt x="280" y="-2" on="0"/>
        <pt x="167" y="132" on="1"/>
        <pt x="126" y="180" on="0"/>
        <pt x="126" y="245" on="1"/>
        <pt x="126" y="366" on="0"/>
        <pt x="182" y="463" on="1"/>
        <pt x="201" y="486" on="0"/>
        <pt x="234" y="486" on="1"/>
        <pt x="298" y="486" on="0"/>
        <pt x="308" y="448" on="1"/>
        <pt x="321" y="275" on="0"/>
        <pt x="508" y="117" on="0"/>
        <pt x="676" y="117" on="1"/>
        <pt x="869" y="117" on="0"/>
        <pt x="935" y="243" on="1"/>
        <pt x="958" y="287" on="0"/>
        <pt x="958" y="406" on="0"/>
        <pt x="894" y="500" on="0"/>
        <pt x="841" y="540" on="1"/>
        <pt x="760" y="600" on="0"/>
        <pt x="493" y="712" on="0"/>
        <pt x="344" y="796" on="0"/>
        <pt x="287" y="852" on="1"/>
        <pt x="163" y="974" on="0"/>
        <pt x="163" y="1153" on="1"/>
        <pt x="163" y="1336" on="0"/>
        <pt x="320" y="1446" on="1"/>
        <pt x="471" y="1552" on="0"/>
        <pt x="710" y="1552" on="1"/>
        <pt x="1013" y="1552" on="0"/>
        <pt x="1106" y="1427" on="1"/>
        <pt x="1140" y="1382" on="0"/>
        <pt x="1140" y="1236" on="0"/>
        <pt x="1113" y="1128" on="0"/>
        <pt x="1100" y="1112" on="1"/>
        <pt x="1078" y="1085" on="0"/>
        <pt x="971" y="1085" on="0"/>
        <pt x="971" y="1111" on="1"/>
        <pt x="971" y="1340" on="0"/>
        <pt x="808" y="1398" on="1"/>
        <pt x="752" y="1418" on="0"/>
        <pt x="602" y="1418" on="0"/>
        <pt x="494" y="1384" on="0"/>
        <pt x="458" y="1355" on="1"/>
        <pt x="385" y="1296" on="0"/>
        <pt x="385" y="1199" on="1"/>
        <pt x="385" y="1052" on="0"/>
        <pt x="601" y="948" on="1"/>
        <pt x="726" y="889" on="1"/>
        <pt x="817" y="847" on="0"/>
        <pt x="986" y="760" on="0"/>
        <pt x="1051" y="704" on="1"/>
        <pt x="1194" y="582" on="0"/>
        <pt x="1194" y="402" on="1"/>
        <pt x="1194" y="224" on="0"/>
        <pt x="1048" y="108" on="1"/>
        <pt x="910" y="-1" on="0"/>
        <pt x="696" y="-16" on="1"/>
      </contour>
    </TTGlyph>
    <TTGlyph name="Scircumflex" xMin="126" yMin="-19" xMax="1194" yMax="1969">
      <component glyphName=".ttfautohint" x="126" y="0" flags="0x0"/>
      <component glyphName="S" x="0" y="0" flags="0x1204"/>
      <component glyphName="circumflex.cap" x="242" y="0" flags="0x1004"/>
    </TTGlyph>
    <TTGlyph name="Scommaaccent" xMin="126" yMin="-514" xMax="1194" yMax="1552">
      <component glyphName=".ttfautohint" x="126" y="0" flags="0x0"/>
      <component glyphName="S" x="0" y="0" flags="0x1204"/>
      <component glyphName="commaaccent" x="352" y="0" flags="0x1004"/>
    </TTGlyph>
    <TTGlyph name="T" xMin="76" yMin="-8" xMax="1465" yMax="1552">
      <contour>
        <pt x="1163" y="-8" on="1"/>
        <pt x="1140" y="0" on="0"/>
        <pt x="1064" y="0" on="1"/>
        <pt x="492" y="0" on="1"/>
        <pt x="440" y="0" on="0"/>
        <pt x="377" y="33" on="0"/>
        <pt x="377" y="77" on="1"/>
        <pt x="377" y="108" on="0"/>
        <pt x="393" y="128" on="1"/>
        <pt x="431" y="118" on="0"/>
        <pt x="499" y="118" on="0"/>
        <pt x="559" y="132" on="0"/>
        <pt x="586" y="150" on="1"/>
        <pt x="650" y="191" on="0"/>
        <pt x="654" y="275" on="1"/>
        <pt x="654" y="1387" on="1"/>
        <pt x="524" y="1387" on="1"/>
        <pt x="379" y="1387" on="0"/>
        <pt x="290" y="1360" on="0"/>
        <pt x="245" y="1318" on="0"/>
        <pt x="231" y="1282" on="1"/>
        <pt x="206" y="1220" on="0"/>
        <pt x="192" y="1068" on="1"/>
        <pt x="170" y="1063" on="0"/>
        <pt x="152" y="1063" on="1"/>
        <pt x="112" y="1063" on="0"/>
        <pt x="90" y="1105" on="0"/>
        <pt x="82" y="1150" on="0"/>
        <pt x="80" y="1177" on="1"/>
        <pt x="76" y="1231" on="0"/>
        <pt x="76" y="1292" on="1"/>
        <pt x="76" y="1459" on="0"/>
        <pt x="102" y="1504" on="1"/>
        <pt x="128" y="1552" on="0"/>
        <pt x="206" y="1552" on="1"/>
        <pt x="221" y="1552" on="0"/>
        <pt x="279" y="1546" on="0"/>
        <pt x="334" y="1542" on="1"/>
        <pt x="483" y="1533" on="0"/>
        <pt x="691" y="1533" on="1"/>
        <pt x="860" y="1533" on="1"/>
        <pt x="1150" y="1533" on="0"/>
        <pt x="1346" y="1552" on="0"/>
        <pt x="1394" y="1552" on="0"/>
        <pt x="1434" y="1538" on="0"/>
        <pt x="1446" y="1525" on="1"/>
        <pt x="1465" y="1503" on="0"/>
        <pt x="1465" y="1470" on="1"/>
        <pt x="1465" y="1420" on="0"/>
        <pt x="1459" y="1360" on="0"/>
        <pt x="1452" y="1278" on="0"/>
        <pt x="1446" y="1234" on="1"/>
        <pt x="1432" y="1130" on="0"/>
        <pt x="1411" y="1091" on="1"/>
        <pt x="1391" y="1063" on="0"/>
        <pt x="1334" y="1063" on="0"/>
        <pt x="1312" y="1068" on="1"/>
        <pt x="1313" y="1131" on="1"/>
        <pt x="1313" y="1220" on="0"/>
        <pt x="1293" y="1323" on="0"/>
        <pt x="1229" y="1374" on="0"/>
        <pt x="1109" y="1387" on="0"/>
        <pt x="1009" y="1387" on="1"/>
        <pt x="889" y="1387" on="1"/>
        <pt x="889" y="236" on="1"/>
        <pt x="889" y="164" on="0"/>
        <pt x="1004" y="136" on="1"/>
        <pt x="1032" y="130" on="0"/>
        <pt x="1083" y="120" on="0"/>
        <pt x="1131" y="109" on="0"/>
        <pt x="1147" y="101" on="1"/>
        <pt x="1179" y="85" on="0"/>
        <pt x="1179" y="47" on="1"/>
        <pt x="1179" y="12" on="0"/>
      </contour>
    </TTGlyph>
    <TTGlyph name="Tbar" xMin="76" yMin="-8" xMax="1465" yMax="1552">
      <contour>
        <pt x="1163" y="-8" on="1"/>
        <pt x="1140" y="0" on="0"/>
        <pt x="1064" y="0" on="1"/>
        <pt x="492" y="0" on="1"/>
        <pt x="440" y="0" on="0"/>
        <pt x="377" y="33" on="0"/>
        <pt x="377" y="77" on="1"/>
        <pt x="377" y="108" on="0"/>
        <pt x="393" y="128" on="1"/>
        <pt x="431" y="118" on="0"/>
        <pt x="499" y="118" on="0"/>
        <pt x="559" y="132" on="0"/>
        <pt x="586" y="150" on="1"/>
        <pt x="650" y="191" on="0"/>
        <pt x="654" y="275" on="1"/>
        <pt x="654" y="742" on="1"/>
        <pt x="337" y="742" on="1"/>
        <pt x="329" y="760" on="0"/>
        <pt x="329" y="805" on="0"/>
        <pt x="340" y="840" on="0"/>
        <pt x="350" y="853" on="1"/>
        <pt x="372" y="882" on="0"/>
        <pt x="401" y="882" on="1"/>
        <pt x="654" y="882" on="1"/>
        <pt x="654" y="1387" on="1"/>
        <pt x="524" y="1387" on="1"/>
        <pt x="379" y="1387" on="0"/>
        <pt x="290" y="1360" on="0"/>
        <pt x="245" y="1318" on="0"/>
        <pt x="231" y="1282" on="1"/>
        <pt x="206" y="1220" on="0"/>
        <pt x="192" y="1068" on="1"/>
        <pt x="170" y="1063" on="0"/>
        <pt x="152" y="1063" on="1"/>
        <pt x="112" y="1063" on="0"/>
        <pt x="90" y="1105" on="0"/>
        <pt x="82" y="1150" on="0"/>
        <pt x="80" y="1177" on="1"/>
        <pt x="76" y="1231" on="0"/>
        <pt x="76" y="1292" on="1"/>
        <pt x="76" y="1459" on="0"/>
        <pt x="102" y="1504" on="1"/>
        <pt x="128" y="1552" on="0"/>
        <pt x="206" y="1552" on="1"/>
        <pt x="221" y="1552" on="0"/>
        <pt x="279" y="1546" on="0"/>
        <pt x="334" y="1542" on="1"/>
        <pt x="483" y="1533" on="0"/>
        <pt x="691" y="1533" on="1"/>
        <pt x="860" y="1533" on="1"/>
        <pt x="1150" y="1533" on="0"/>
        <pt x="1346" y="1552" on="0"/>
        <pt x="1394" y="1552" on="0"/>
        <pt x="1434" y="1538" on="0"/>
        <pt x="1446" y="1525" on="1"/>
        <pt x="1465" y="1503" on="0"/>
        <pt x="1465" y="1470" on="1"/>
        <pt x="1465" y="1420" on="0"/>
        <pt x="1459" y="1360" on="0"/>
        <pt x="1452" y="1278" on="0"/>
        <pt x="1446" y="1234" on="1"/>
        <pt x="1432" y="1130" on="0"/>
        <pt x="1411" y="1091" on="1"/>
        <pt x="1391" y="1063" on="0"/>
        <pt x="1334" y="1063" on="0"/>
        <pt x="1312" y="1068" on="1"/>
        <pt x="1313" y="1131" on="1"/>
        <pt x="1313" y="1220" on="0"/>
        <pt x="1293" y="1323" on="0"/>
        <pt x="1229" y="1374" on="0"/>
        <pt x="1109" y="1387" on="0"/>
        <pt x="1009" y="1387" on="1"/>
        <pt x="889" y="1387" on="1"/>
        <pt x="889" y="882" on="1"/>
        <pt x="1189" y="882" on="1"/>
        <pt x="1198" y="864" on="0"/>
        <pt x="1198" y="823" on="0"/>
        <pt x="1187" y="788" on="0"/>
        <pt x="1178" y="774" on="1"/>
        <pt x="1156" y="742" on="0"/>
        <pt x="1123" y="742" on="1"/>
        <pt x="889" y="742" on="1"/>
        <pt x="889" y="236" on="1"/>
        <pt x="889" y="164" on="0"/>
        <pt x="1004" y="136" on="1"/>
        <pt x="1032" y="130" on="0"/>
        <pt x="1083" y="120" on="0"/>
        <pt x="1131" y="109" on="0"/>
        <pt x="1147" y="101" on="1"/>
        <pt x="1179" y="85" on="0"/>
        <pt x="1179" y="47" on="1"/>
        <pt x="1179" y="12" on="0"/>
      </contour>
    </TTGlyph>
    <TTGlyph name="Tcaron" xMin="76" yMin="-8" xMax="1465" yMax="1969">
      <component glyphName=".ttfautohint" x="76" y="0" flags="0x0"/>
      <component glyphName="T" x="0" y="0" flags="0x1204"/>
      <component glyphName="caron.cap" x="115" y="0" flags="0x1004"/>
    </TTGlyph>
    <TTGlyph name="Tcommaaccent" xMin="76" yMin="-514" xMax="1465" yMax="1552">
      <component glyphName=".ttfautohint" x="76" y="0" flags="0x0"/>
      <component glyphName="T" x="0" y="0" flags="0x1204"/>
      <component glyphName="commaaccent" x="400" y="0" flags="0x1004"/>
    </TTGlyph>
    <TTGlyph name="Thorn" xMin="95" yMin="-8" xMax="1380" yMax="1538">
      <contour>
        <pt x="731" y="-8" on="1"/>
        <pt x="708" y="0" on="0"/>
        <pt x="632" y="0" on="1"/>
        <pt x="225" y="0" on="1"/>
        <pt x="173" y="0" on="0"/>
        <pt x="111" y="33" on="0"/>
        <pt x="111" y="77" on="1"/>
        <pt x="111" y="109" on="0"/>
        <pt x="126" y="128" on="1"/>
        <pt x="164" y="118" on="0"/>
        <pt x="234" y="118" on="0"/>
        <pt x="274" y="133" on="0"/>
        <pt x="288" y="152" on="1"/>
        <pt x="319" y="192" on="0"/>
        <pt x="319" y="285" on="1"/>
        <pt x="319" y="1297" on="1"/>
        <pt x="319" y="1352" on="0"/>
        <pt x="298" y="1371" on="1"/>
        <pt x="269" y="1399" on="0"/>
        <pt x="231" y="1407" on="1"/>
        <pt x="169" y="1420" on="1"/>
        <pt x="120" y="1430" on="0"/>
        <pt x="95" y="1465" on="0"/>
        <pt x="95" y="1483" on="1"/>
        <pt x="95" y="1518" on="0"/>
        <pt x="111" y="1538" on="1"/>
        <pt x="126" y="1532" on="0"/>
        <pt x="164" y="1532" on="1"/>
        <pt x="210" y="1533" on="1"/>
        <pt x="630" y="1533" on="1"/>
        <pt x="744" y="1533" on="0"/>
        <pt x="744" y="1456" on="1"/>
        <pt x="744" y="1423" on="0"/>
        <pt x="728" y="1405" on="1"/>
        <pt x="690" y="1415" on="0"/>
        <pt x="622" y="1415" on="0"/>
        <pt x="589" y="1401" on="0"/>
        <pt x="578" y="1384" on="1"/>
        <pt x="557" y="1351" on="0"/>
        <pt x="555" y="1266" on="1"/>
        <pt x="555" y="1233" on="1"/>
        <pt x="782" y="1234" on="1"/>
        <pt x="1233" y="1234" on="0"/>
        <pt x="1346" y="978" on="1"/>
        <pt x="1380" y="899" on="0"/>
        <pt x="1380" y="737" on="0"/>
        <pt x="1348" y="624" on="0"/>
        <pt x="1277" y="520" on="0"/>
        <pt x="1164" y="430" on="0"/>
        <pt x="1082" y="396" on="1"/>
        <pt x="909" y="325" on="0"/>
        <pt x="646" y="325" on="1"/>
        <pt x="555" y="325" on="1"/>
        <pt x="555" y="236" on="1"/>
        <pt x="555" y="177" on="0"/>
        <pt x="566" y="160" on="1"/>
        <pt x="582" y="134" on="0"/>
        <pt x="652" y="120" on="0"/>
        <pt x="699" y="109" on="0"/>
        <pt x="715" y="101" on="1"/>
        <pt x="747" y="85" on="0"/>
        <pt x="747" y="47" on="1"/>
        <pt x="747" y="12" on="0"/>
      </contour>
      <contour>
        <pt x="654" y="454" on="1"/>
        <pt x="1019" y="454" on="0"/>
        <pt x="1108" y="636" on="1"/>
        <pt x="1135" y="692" on="0"/>
        <pt x="1135" y="798" on="0"/>
        <pt x="1120" y="877" on="0"/>
        <pt x="1083" y="954" on="0"/>
        <pt x="1024" y="1025" on="0"/>
        <pt x="980" y="1052" on="1"/>
        <pt x="881" y="1110" on="0"/>
        <pt x="735" y="1110" on="1"/>
        <pt x="555" y="1110" on="1"/>
        <pt x="555" y="454" on="1"/>
      </contour>
    </TTGlyph>
    <TTGlyph name="U" xMin="27" yMin="-19" xMax="1615" yMax="1541">
      <contour>
        <pt x="1516" y="1416" on="1"/>
        <pt x="1440" y="1416" on="0"/>
        <pt x="1437" y="1258" on="1"/>
        <pt x="1437" y="658" on="1"/>
        <pt x="1437" y="328" on="0"/>
        <pt x="1274" y="154" on="1"/>
        <pt x="1114" y="-19" on="0"/>
        <pt x="817" y="-19" on="1"/>
        <pt x="565" y="-19" on="0"/>
        <pt x="404" y="108" on="1"/>
        <pt x="200" y="267" on="0"/>
        <pt x="200" y="636" on="1"/>
        <pt x="200" y="1324" on="1"/>
        <pt x="199" y="1367" on="0"/>
        <pt x="182" y="1401" on="0"/>
        <pt x="122" y="1413" on="0"/>
        <pt x="75" y="1424" on="0"/>
        <pt x="59" y="1432" on="1"/>
        <pt x="27" y="1448" on="0"/>
        <pt x="27" y="1486" on="1"/>
        <pt x="27" y="1521" on="0"/>
        <pt x="43" y="1541" on="1"/>
        <pt x="66" y="1533" on="0"/>
        <pt x="142" y="1533" on="1"/>
        <pt x="530" y="1533" on="1"/>
        <pt x="644" y="1533" on="0"/>
        <pt x="644" y="1456" on="1"/>
        <pt x="644" y="1422" on="0"/>
        <pt x="629" y="1405" on="1"/>
        <pt x="592" y="1415" on="0"/>
        <pt x="527" y="1415" on="0"/>
        <pt x="488" y="1400" on="0"/>
        <pt x="472" y="1381" on="1"/>
        <pt x="436" y="1338" on="0"/>
        <pt x="436" y="1248" on="1"/>
        <pt x="436" y="706" on="1"/>
        <pt x="436" y="397" on="0"/>
        <pt x="560" y="262" on="1"/>
        <pt x="656" y="159" on="0"/>
        <pt x="826" y="159" on="1"/>
        <pt x="1256" y="159" on="0"/>
        <pt x="1256" y="695" on="1"/>
        <pt x="1256" y="1297" on="1"/>
        <pt x="1256" y="1376" on="0"/>
        <pt x="1212" y="1396" on="1"/>
        <pt x="1198" y="1403" on="0"/>
        <pt x="1149" y="1413" on="0"/>
        <pt x="1102" y="1424" on="0"/>
        <pt x="1086" y="1432" on="1"/>
        <pt x="1054" y="1448" on="0"/>
        <pt x="1054" y="1486" on="1"/>
        <pt x="1054" y="1523" on="0"/>
        <pt x="1070" y="1541" on="1"/>
        <pt x="1093" y="1533" on="0"/>
        <pt x="1169" y="1533" on="1"/>
        <pt x="1501" y="1533" on="1"/>
        <pt x="1552" y="1533" on="0"/>
        <pt x="1615" y="1501" on="0"/>
        <pt x="1615" y="1457" on="1"/>
        <pt x="1615" y="1423" on="0"/>
        <pt x="1600" y="1406" on="1"/>
        <pt x="1560" y="1416" on="0"/>
      </contour>
    </TTGlyph>
    <TTGlyph name="Uacute" xMin="27" yMin="-19" xMax="1615" yMax="1966">
      <component glyphName=".ttfautohint" x="27" y="0" flags="0x0"/>
      <component glyphName="U" x="0" y="0" flags="0x1204"/>
      <component glyphName="acute.cap" x="458" y="0" flags="0x1004"/>
    </TTGlyph>
    <TTGlyph name="Ubreve" xMin="27" yMin="-19" xMax="1615" yMax="1976">
      <component glyphName=".ttfautohint" x="27" y="0" flags="0x0"/>
      <component glyphName="U" x="0" y="0" flags="0x1204"/>
      <component glyphName="breve.cap" x="-153" y="0" flags="0x1004"/>
    </TTGlyph>
    <TTGlyph name="Ucircumflex" xMin="27" yMin="-19" xMax="1615" yMax="1969">
      <component glyphName=".ttfautohint" x="27" y="0" flags="0x0"/>
      <component glyphName="U" x="0" y="0" flags="0x1204"/>
      <component glyphName="circumflex.cap" x="415" y="0" flags="0x1004"/>
    </TTGlyph>
    <TTGlyph name="Udieresis" xMin="27" yMin="-19" xMax="1615" yMax="1958">
      <component glyphName=".ttfautohint" x="27" y="0" flags="0x0"/>
      <component glyphName="U" x="0" y="0" flags="0x1204"/>
      <component glyphName="dieresis.cap" x="320" y="0" flags="0x1004"/>
    </TTGlyph>
    <TTGlyph name="Ugrave" xMin="27" yMin="-19" xMax="1615" yMax="1966">
      <component glyphName=".ttfautohint" x="27" y="0" flags="0x0"/>
      <component glyphName="U" x="0" y="0" flags="0x1204"/>
      <component glyphName="grave.cap" x="549" y="0" flags="0x1004"/>
    </TTGlyph>
    <TTGlyph name="Uhungarumlaut" xMin="27" yMin="-19" xMax="1615" yMax="1989">
      <component glyphName=".ttfautohint" x="27" y="0" flags="0x0"/>
      <component glyphName="U" x="0" y="0" flags="0x1204"/>
      <component glyphName="hungarumlaut.cap" x="307" y="0" flags="0x1004"/>
    </TTGlyph>
    <TTGlyph name="Umacron" xMin="27" yMin="-19" xMax="1615" yMax="1889">
      <component glyphName=".ttfautohint" x="27" y="0" flags="0x0"/>
      <component glyphName="U" x="0" y="0" flags="0x1204"/>
      <component glyphName="macron.cap" x="357" y="0" flags="0x1004"/>
    </TTGlyph>
    <TTGlyph name="Uogonek" xMin="27" yMin="-514" xMax="1615" yMax="1541">
      <contour>
        <pt x="871" y="-17" on="1"/>
        <pt x="843" y="-19" on="0"/>
        <pt x="747" y="-19" on="0"/>
        <pt x="602" y="3" on="0"/>
        <pt x="464" y="60" on="0"/>
        <pt x="343" y="155" on="0"/>
        <pt x="298" y="228" on="1"/>
        <pt x="200" y="385" on="0"/>
        <pt x="200" y="636" on="1"/>
        <pt x="200" y="1324" on="1"/>
        <pt x="199" y="1367" on="0"/>
        <pt x="182" y="1401" on="0"/>
        <pt x="122" y="1413" on="0"/>
        <pt x="75" y="1424" on="0"/>
        <pt x="59" y="1432" on="1"/>
        <pt x="27" y="1448" on="0"/>
        <pt x="27" y="1486" on="1"/>
        <pt x="27" y="1521" on="0"/>
        <pt x="43" y="1541" on="1"/>
        <pt x="66" y="1533" on="0"/>
        <pt x="142" y="1533" on="1"/>
        <pt x="530" y="1533" on="1"/>
        <pt x="644" y="1533" on="0"/>
        <pt x="644" y="1456" on="1"/>
        <pt x="644" y="1422" on="0"/>
        <pt x="629" y="1405" on="1"/>
        <pt x="592" y="1415" on="0"/>
        <pt x="527" y="1415" on="0"/>
        <pt x="488" y="1400" on="0"/>
        <pt x="472" y="1381" on="1"/>
        <pt x="436" y="1338" on="0"/>
        <pt x="436" y="1248" on="1"/>
        <pt x="436" y="706" on="1"/>
        <pt x="436" y="397" on="0"/>
        <pt x="560" y="262" on="1"/>
        <pt x="656" y="159" on="0"/>
        <pt x="826" y="159" on="1"/>
        <pt x="1256" y="159" on="0"/>
        <pt x="1256" y="695" on="1"/>
        <pt x="1256" y="1297" on="1"/>
        <pt x="1256" y="1376" on="0"/>
        <pt x="1212" y="1396" on="1"/>
        <pt x="1198" y="1403" on="0"/>
        <pt x="1149" y="1413" on="0"/>
        <pt x="1102" y="1424" on="0"/>
        <pt x="1086" y="1432" on="1"/>
        <pt x="1054" y="1448" on="0"/>
        <pt x="1054" y="1486" on="1"/>
        <pt x="1054" y="1523" on="0"/>
        <pt x="1070" y="1541" on="1"/>
        <pt x="1093" y="1533" on="0"/>
        <pt x="1169" y="1533" on="1"/>
        <pt x="1501" y="1533" on="1"/>
        <pt x="1552" y="1533" on="0"/>
        <pt x="1615" y="1501" on="0"/>
        <pt x="1615" y="1457" on="1"/>
        <pt x="1615" y="1423" on="0"/>
        <pt x="1600" y="1406" on="1"/>
        <pt x="1560" y="1416" on="0"/>
        <pt x="1516" y="1416" on="1"/>
        <pt x="1440" y="1416" on="0"/>
        <pt x="1437" y="1258" on="1"/>
        <pt x="1437" y="658" on="1"/>
        <pt x="1437" y="400" on="0"/>
        <pt x="1242" y="79" on="0"/>
        <pt x="1059" y="17" on="1"/>
        <pt x="973" y="-43" on="0"/>
        <pt x="889" y="-175" on="0"/>
        <pt x="889" y="-226" on="1"/>
        <pt x="889" y="-335" on="0"/>
        <pt x="1018" y="-335" on="1"/>
        <pt x="1106" y="-335" on="0"/>
        <pt x="1185" y="-262" on="1"/>
        <pt x="1228" y="-278" on="0"/>
        <pt x="1228" y="-335" on="0"/>
        <pt x="1175" y="-405" on="0"/>
        <pt x="1132" y="-437" on="1"/>
        <pt x="1027" y="-514" on="0"/>
        <pt x="919" y="-514" on="1"/>
        <pt x="771" y="-514" on="0"/>
        <pt x="714" y="-400" on="1"/>
        <pt x="695" y="-362" on="0"/>
        <pt x="695" y="-312" on="1"/>
        <pt x="695" y="-157" on="0"/>
      </contour>
    </TTGlyph>
    <TTGlyph name="Uring" xMin="27" yMin="-19" xMax="1615" yMax="1959">
      <component glyphName=".ttfautohint" x="27" y="0" flags="0x0"/>
      <component glyphName="U" x="0" y="0" flags="0x1204"/>
      <component glyphName="ring.cap" x="192" y="0" flags="0x1004"/>
    </TTGlyph>
    <TTGlyph name="Utilde" xMin="27" yMin="-19" xMax="1615" yMax="1969">
      <component glyphName=".ttfautohint" x="27" y="0" flags="0x0"/>
      <component glyphName="U" x="0" y="0" flags="0x1204"/>
      <component glyphName="tilde.cap" x="357" y="0" flags="0x1004"/>
    </TTGlyph>
    <TTGlyph name="V" xMin="-7" yMin="-19" xMax="1561" yMax="1541">
      <contour>
        <pt x="1545" y="1405" on="1"/>
        <pt x="1524" y="1415" on="0"/>
        <pt x="1450" y="1415" on="0"/>
        <pt x="1413" y="1384" on="0"/>
        <pt x="1381" y="1328" on="0"/>
        <pt x="1366" y="1289" on="1"/>
        <pt x="953" y="168" on="1"/>
        <pt x="886" y="-19" on="0"/>
        <pt x="730" y="-19" on="1"/>
        <pt x="681" y="-19" on="0"/>
        <pt x="670" y="9" on="1"/>
        <pt x="177" y="1264" on="1"/>
        <pt x="169" y="1284" on="0"/>
        <pt x="155" y="1331" on="0"/>
        <pt x="146" y="1353" on="1"/>
        <pt x="124" y="1404" on="0"/>
        <pt x="85" y="1416" on="1"/>
        <pt x="62" y="1424" on="0"/>
        <pt x="27" y="1435" on="0"/>
        <pt x="16" y="1442" on="1"/>
        <pt x="-7" y="1457" on="0"/>
        <pt x="-7" y="1480" on="1"/>
        <pt x="-7" y="1516" on="0"/>
        <pt x="9" y="1541" on="1"/>
        <pt x="32" y="1533" on="0"/>
        <pt x="88" y="1533" on="1"/>
        <pt x="502" y="1533" on="1"/>
        <pt x="569" y="1533" on="0"/>
        <pt x="593" y="1524" on="1"/>
        <pt x="639" y="1506" on="0"/>
        <pt x="639" y="1456" on="1"/>
        <pt x="639" y="1422" on="0"/>
        <pt x="624" y="1405" on="1"/>
        <pt x="602" y="1415" on="0"/>
        <pt x="537" y="1415" on="1"/>
        <pt x="419" y="1415" on="0"/>
        <pt x="419" y="1317" on="1"/>
        <pt x="419" y="1305" on="0"/>
        <pt x="426" y="1282" on="1"/>
        <pt x="438" y="1247" on="1"/>
        <pt x="443" y="1234" on="0"/>
        <pt x="447" y="1224" on="1"/>
        <pt x="806" y="236" on="1"/>
        <pt x="1177" y="1297" on="1"/>
        <pt x="1183" y="1319" on="0"/>
        <pt x="1183" y="1354" on="0"/>
        <pt x="1167" y="1379" on="0"/>
        <pt x="1154" y="1388" on="1"/>
        <pt x="1140" y="1398" on="0"/>
        <pt x="1068" y="1413" on="0"/>
        <pt x="1021" y="1425" on="0"/>
        <pt x="1005" y="1434" on="1"/>
        <pt x="973" y="1452" on="0"/>
        <pt x="971" y="1494" on="1"/>
        <pt x="971" y="1522" on="0"/>
        <pt x="981" y="1541" on="1"/>
        <pt x="1004" y="1533" on="0"/>
        <pt x="1080" y="1533" on="1"/>
        <pt x="1427" y="1533" on="1"/>
        <pt x="1561" y="1533" on="0"/>
        <pt x="1561" y="1456" on="1"/>
        <pt x="1561" y="1423" on="0"/>
      </contour>
    </TTGlyph>
    <TTGlyph name="W" xMin="1" yMin="-19" xMax="2360" yMax="1541">
      <contour>
        <pt x="2344" y="1405" on="1"/>
        <pt x="2306" y="1415" on="0"/>
        <pt x="2251" y="1415" on="0"/>
        <pt x="2212" y="1376" on="0"/>
        <pt x="2194" y="1346" on="1"/>
        <pt x="2166" y="1296" on="0"/>
        <pt x="2139" y="1204" on="1"/>
        <pt x="2018" y="818" on="1"/>
        <pt x="1802" y="168" on="1"/>
        <pt x="1772" y="80" on="0"/>
        <pt x="1698" y="27" on="1"/>
        <pt x="1632" y="-19" on="0"/>
        <pt x="1577" y="-19" on="1"/>
        <pt x="1535" y="-19" on="0"/>
        <pt x="1517" y="-13" on="1"/>
        <pt x="1197" y="814" on="1"/>
        <pt x="1166" y="914" on="1"/>
        <pt x="901" y="230" on="0"/>
        <pt x="856" y="121" on="0"/>
        <pt x="800" y="51" on="0"/>
        <pt x="768" y="28" on="1"/>
        <pt x="704" y="-19" on="0"/>
        <pt x="649" y="-19" on="1"/>
        <pt x="600" y="-19" on="0"/>
        <pt x="589" y="-13" on="1"/>
        <pt x="182" y="1264" on="1"/>
        <pt x="174" y="1286" on="0"/>
        <pt x="160" y="1335" on="0"/>
        <pt x="151" y="1356" on="1"/>
        <pt x="130" y="1406" on="0"/>
        <pt x="82" y="1419" on="0"/>
        <pt x="46" y="1428" on="0"/>
        <pt x="32" y="1435" on="1"/>
        <pt x="1" y="1450" on="0"/>
        <pt x="1" y="1476" on="1"/>
        <pt x="1" y="1520" on="0"/>
        <pt x="16" y="1541" on="1"/>
        <pt x="40" y="1533" on="0"/>
        <pt x="115" y="1533" on="1"/>
        <pt x="533" y="1533" on="1"/>
        <pt x="647" y="1533" on="0"/>
        <pt x="647" y="1456" on="1"/>
        <pt x="647" y="1423" on="0"/>
        <pt x="631" y="1405" on="1"/>
        <pt x="595" y="1415" on="0"/>
        <pt x="548" y="1415" on="1"/>
        <pt x="427" y="1415" on="0"/>
        <pt x="427" y="1317" on="1"/>
        <pt x="427" y="1285" on="0"/>
        <pt x="437" y="1249" on="1"/>
        <pt x="731" y="233" on="1"/>
        <pt x="810" y="433" on="0"/>
        <pt x="851" y="545" on="1"/>
        <pt x="1096" y="1245" on="1"/>
        <pt x="1109" y="1287" on="0"/>
        <pt x="1160" y="1312" on="1"/>
        <pt x="1204" y="1335" on="0"/>
        <pt x="1263" y="1333" on="1"/>
        <pt x="1651" y="233" on="1"/>
        <pt x="1777" y="625" on="0"/>
        <pt x="1811" y="745" on="1"/>
        <pt x="1919" y="1130" on="1"/>
        <pt x="1961" y="1288" on="0"/>
        <pt x="1961" y="1358" on="0"/>
        <pt x="1916" y="1400" on="0"/>
        <pt x="1853" y="1413" on="0"/>
        <pt x="1806" y="1424" on="0"/>
        <pt x="1790" y="1432" on="1"/>
        <pt x="1758" y="1448" on="0"/>
        <pt x="1758" y="1486" on="1"/>
        <pt x="1758" y="1520" on="0"/>
        <pt x="1773" y="1541" on="1"/>
        <pt x="1796" y="1533" on="0"/>
        <pt x="1872" y="1533" on="1"/>
        <pt x="2246" y="1533" on="1"/>
        <pt x="2360" y="1533" on="0"/>
        <pt x="2360" y="1456" on="1"/>
        <pt x="2360" y="1423" on="0"/>
      </contour>
    </TTGlyph>
    <TTGlyph name="Wacute" xMin="1" yMin="-19" xMax="2360" yMax="1966">
      <component glyphName=".ttfautohint" x="1" y="0" flags="0x0"/>
      <component glyphName="W" x="0" y="0" flags="0x1204"/>
      <component glyphName="acute.cap" x="801" y="0" flags="0x1004"/>
    </TTGlyph>
    <TTGlyph name="Wcircumflex" xMin="1" yMin="-19" xMax="2360" yMax="1969">
      <component glyphName=".ttfautohint" x="1" y="0" flags="0x0"/>
      <component glyphName="W" x="0" y="0" flags="0x1204"/>
      <component glyphName="circumflex.cap" x="759" y="0" flags="0x1004"/>
    </TTGlyph>
    <TTGlyph name="Wdieresis" xMin="1" yMin="-19" xMax="2360" yMax="1958">
      <component glyphName=".ttfautohint" x="1" y="0" flags="0x0"/>
      <component glyphName="W" x="0" y="0" flags="0x1204"/>
      <component glyphName="dieresis.cap" x="663" y="0" flags="0x1004"/>
    </TTGlyph>
    <TTGlyph name="Wgrave" xMin="1" yMin="-19" xMax="2360" yMax="1966">
      <component glyphName=".ttfautohint" x="1" y="0" flags="0x0"/>
      <component glyphName="W" x="0" y="0" flags="0x1204"/>
      <component glyphName="grave.cap" x="892" y="0" flags="0x1004"/>
    </TTGlyph>
    <TTGlyph name="X" xMin="0" yMin="-6" xMax="1600" yMax="1540">
      <contour>
        <pt x="125" y="0" on="1"/>
        <pt x="0" y="0" on="0"/>
        <pt x="0" y="83" on="1"/>
        <pt x="0" y="114" on="0"/>
        <pt x="16" y="130" on="1"/>
        <pt x="38" y="121" on="0"/>
        <pt x="116" y="121" on="0"/>
        <pt x="170" y="138" on="0"/>
        <pt x="197" y="156" on="1"/>
        <pt x="249" y="192" on="0"/>
        <pt x="313" y="276" on="1"/>
        <pt x="681" y="735" on="1"/>
        <pt x="253" y="1282" on="1"/>
        <pt x="238" y="1298" on="0"/>
        <pt x="206" y="1336" on="0"/>
        <pt x="190" y="1353" on="1"/>
        <pt x="150" y="1394" on="0"/>
        <pt x="95" y="1410" on="0"/>
        <pt x="50" y="1421" on="0"/>
        <pt x="34" y="1430" on="1"/>
        <pt x="1" y="1447" on="0"/>
        <pt x="1" y="1490" on="1"/>
        <pt x="1" y="1518" on="0"/>
        <pt x="16" y="1540" on="1"/>
        <pt x="41" y="1533" on="0"/>
        <pt x="115" y="1533" on="1"/>
        <pt x="546" y="1533" on="1"/>
        <pt x="644" y="1533" on="0"/>
        <pt x="670" y="1498" on="1"/>
        <pt x="681" y="1483" on="0"/>
        <pt x="681" y="1464" on="1"/>
        <pt x="681" y="1421" on="0"/>
        <pt x="665" y="1405" on="1"/>
        <pt x="616" y="1416" on="0"/>
        <pt x="568" y="1416" on="1"/>
        <pt x="490" y="1416" on="0"/>
        <pt x="490" y="1374" on="1"/>
        <pt x="490" y="1352" on="0"/>
        <pt x="528" y="1301" on="1"/>
        <pt x="827" y="886" on="1"/>
        <pt x="1100" y="1277" on="1"/>
        <pt x="1130" y="1322" on="0"/>
        <pt x="1130" y="1362" on="0"/>
        <pt x="1113" y="1385" on="0"/>
        <pt x="1087" y="1399" on="0"/>
        <pt x="1055" y="1406" on="0"/>
        <pt x="1014" y="1415" on="0"/>
        <pt x="976" y="1425" on="0"/>
        <pt x="963" y="1433" on="1"/>
        <pt x="937" y="1449" on="0"/>
        <pt x="937" y="1476" on="1"/>
        <pt x="937" y="1518" on="0"/>
        <pt x="953" y="1539" on="1"/>
        <pt x="973" y="1533" on="0"/>
        <pt x="1051" y="1533" on="1"/>
        <pt x="1439" y="1533" on="1"/>
        <pt x="1538" y="1533" on="0"/>
        <pt x="1564" y="1498" on="1"/>
        <pt x="1575" y="1483" on="0"/>
        <pt x="1575" y="1464" on="1"/>
        <pt x="1575" y="1420" on="0"/>
        <pt x="1562" y="1405" on="1"/>
        <pt x="1539" y="1414" on="0"/>
        <pt x="1466" y="1414" on="0"/>
        <pt x="1407" y="1379" on="0"/>
        <pt x="1376" y="1351" on="1"/>
        <pt x="1315" y="1296" on="0"/>
        <pt x="1260" y="1221" on="1"/>
        <pt x="919" y="767" on="1"/>
        <pt x="1334" y="252" on="1"/>
        <pt x="1366" y="216" on="1"/>
        <pt x="1429" y="143" on="0"/>
        <pt x="1501" y="122" on="0"/>
        <pt x="1548" y="112" on="0"/>
        <pt x="1564" y="104" on="1"/>
        <pt x="1600" y="85" on="0"/>
        <pt x="1600" y="44" on="1"/>
        <pt x="1600" y="18" on="0"/>
        <pt x="1585" y="-6" on="1"/>
        <pt x="1565" y="0" on="0"/>
        <pt x="1486" y="0" on="1"/>
        <pt x="1050" y="0" on="1"/>
        <pt x="959" y="0" on="0"/>
        <pt x="936" y="39" on="1"/>
        <pt x="926" y="55" on="0"/>
        <pt x="926" y="73" on="1"/>
        <pt x="926" y="112" on="0"/>
        <pt x="942" y="130" on="1"/>
        <pt x="963" y="126" on="1"/>
        <pt x="999" y="118" on="0"/>
        <pt x="1066" y="119" on="0"/>
        <pt x="1098" y="127" on="0"/>
        <pt x="1098" y="144" on="1"/>
        <pt x="1098" y="174" on="0"/>
        <pt x="1055" y="233" on="1"/>
        <pt x="771" y="613" on="1"/>
        <pt x="492" y="229" on="1"/>
        <pt x="466" y="197" on="0"/>
        <pt x="466" y="150" on="0"/>
        <pt x="513" y="130" on="0"/>
        <pt x="540" y="124" on="1"/>
        <pt x="588" y="114" on="1"/>
        <pt x="637" y="105" on="0"/>
        <pt x="664" y="68" on="0"/>
        <pt x="664" y="50" on="1"/>
        <pt x="664" y="18" on="0"/>
        <pt x="649" y="-6" on="1"/>
        <pt x="629" y="0" on="0"/>
        <pt x="550" y="0" on="1"/>
      </contour>
    </TTGlyph>
    <TTGlyph name="Y" xMin="-10" yMin="-8" xMax="1505" yMax="1541">
      <contour>
        <pt x="514" y="0" on="1"/>
        <pt x="400" y="0" on="0"/>
        <pt x="400" y="75" on="1"/>
        <pt x="400" y="109" on="0"/>
        <pt x="415" y="128" on="1"/>
        <pt x="453" y="118" on="0"/>
        <pt x="528" y="118" on="0"/>
        <pt x="577" y="128" on="0"/>
        <pt x="596" y="144" on="1"/>
        <pt x="635" y="180" on="0"/>
        <pt x="637" y="274" on="1"/>
        <pt x="637" y="526" on="1"/>
        <pt x="155" y="1326" on="1"/>
        <pt x="115" y="1391" on="0"/>
        <pt x="61" y="1418" on="0"/>
        <pt x="30" y="1428" on="0"/>
        <pt x="18" y="1436" on="1"/>
        <pt x="-10" y="1452" on="0"/>
        <pt x="-10" y="1480" on="1"/>
        <pt x="-10" y="1521" on="0"/>
        <pt x="6" y="1541" on="1"/>
        <pt x="29" y="1533" on="0"/>
        <pt x="105" y="1533" on="1"/>
        <pt x="466" y="1533" on="1"/>
        <pt x="564" y="1533" on="0"/>
        <pt x="590" y="1501" on="1"/>
        <pt x="603" y="1486" on="0"/>
        <pt x="603" y="1425" on="0"/>
        <pt x="584" y="1404" on="1"/>
        <pt x="550" y="1414" on="0"/>
        <pt x="508" y="1414" on="1"/>
        <pt x="425" y="1414" on="0"/>
        <pt x="425" y="1350" on="1"/>
        <pt x="425" y="1304" on="0"/>
        <pt x="466" y="1238" on="1"/>
        <pt x="787" y="684" on="1"/>
        <pt x="910" y="889" on="0"/>
        <pt x="966" y="991" on="1"/>
        <pt x="1060" y="1167" on="1"/>
        <pt x="1125" y="1293" on="0"/>
        <pt x="1135" y="1336" on="0"/>
        <pt x="1135" y="1362" on="0"/>
        <pt x="1120" y="1382" on="0"/>
        <pt x="1096" y="1395" on="0"/>
        <pt x="1066" y="1402" on="0"/>
        <pt x="1024" y="1412" on="0"/>
        <pt x="976" y="1422" on="0"/>
        <pt x="958" y="1430" on="1"/>
        <pt x="918" y="1447" on="0"/>
        <pt x="918" y="1526" on="0"/>
        <pt x="933" y="1541" on="1"/>
        <pt x="956" y="1533" on="0"/>
        <pt x="1032" y="1533" on="1"/>
        <pt x="1378" y="1533" on="1"/>
        <pt x="1469" y="1533" on="0"/>
        <pt x="1494" y="1500" on="1"/>
        <pt x="1505" y="1485" on="0"/>
        <pt x="1505" y="1464" on="1"/>
        <pt x="1505" y="1424" on="0"/>
        <pt x="1487" y="1404" on="1"/>
        <pt x="1453" y="1414" on="0"/>
        <pt x="1405" y="1414" on="0"/>
        <pt x="1367" y="1384" on="0"/>
        <pt x="1332" y="1332" on="0"/>
        <pt x="1314" y="1298" on="1"/>
        <pt x="1258" y="1188" on="0"/>
        <pt x="1226" y="1131" on="1"/>
        <pt x="908" y="591" on="0"/>
        <pt x="898" y="572" on="1"/>
        <pt x="873" y="530" on="1"/>
        <pt x="873" y="236" on="1"/>
        <pt x="873" y="150" on="0"/>
        <pt x="968" y="134" on="1"/>
        <pt x="1082" y="116" on="0"/>
        <pt x="1103" y="103" on="1"/>
        <pt x="1139" y="83" on="0"/>
        <pt x="1139" y="46" on="1"/>
        <pt x="1139" y="12" on="0"/>
        <pt x="1123" y="-8" on="1"/>
        <pt x="1100" y="0" on="0"/>
        <pt x="1024" y="0" on="1"/>
      </contour>
    </TTGlyph>
    <TTGlyph name="Yacute" xMin="-10" yMin="-8" xMax="1505" yMax="1966">
      <component glyphName=".ttfautohint" x="0" y="0" flags="0x0"/>
      <component glyphName="Y" x="0" y="0" flags="0x1204"/>
      <component glyphName="acute.cap" x="373" y="0" flags="0x1004"/>
    </TTGlyph>
    <TTGlyph name="Ycircumflex" xMin="-10" yMin="-8" xMax="1505" yMax="1969">
      <component glyphName=".ttfautohint" x="0" y="0" flags="0x0"/>
      <component glyphName="Y" x="0" y="0" flags="0x1204"/>
      <component glyphName="circumflex.cap" x="331" y="0" flags="0x1004"/>
    </TTGlyph>
    <TTGlyph name="Ydieresis" xMin="-10" yMin="-8" xMax="1505" yMax="1958">
      <component glyphName=".ttfautohint" x="0" y="0" flags="0x0"/>
      <component glyphName="Y" x="0" y="0" flags="0x1204"/>
      <component glyphName="dieresis.cap" x="236" y="0" flags="0x1004"/>
    </TTGlyph>
    <TTGlyph name="Ygrave" xMin="-10" yMin="-8" xMax="1505" yMax="1966">
      <component glyphName=".ttfautohint" x="0" y="0" flags="0x0"/>
      <component glyphName="Y" x="0" y="0" flags="0x1204"/>
      <component glyphName="grave.cap" x="465" y="0" flags="0x1004"/>
    </TTGlyph>
    <TTGlyph name="Z" xMin="76" yMin="0" xMax="1306" yMax="1533">
      <contour>
        <pt x="92" y="133" on="1"/>
        <pt x="92" y="133" on="0"/>
        <pt x="603" y="834" on="1"/>
        <pt x="787" y="1094" on="0"/>
        <pt x="852" y="1194" on="1"/>
        <pt x="976" y="1391" on="1"/>
        <pt x="560" y="1376" on="1"/>
        <pt x="489" y="1373" on="0"/>
        <pt x="401" y="1358" on="0"/>
        <pt x="376" y="1336" on="1"/>
        <pt x="333" y="1299" on="0"/>
        <pt x="321" y="1164" on="1"/>
        <pt x="321" y="1144" on="0"/>
        <pt x="274" y="1133" on="1"/>
        <pt x="262" y="1130" on="0"/>
        <pt x="224" y="1130" on="0"/>
        <pt x="203" y="1166" on="0"/>
        <pt x="186" y="1229" on="0"/>
        <pt x="181" y="1263" on="1"/>
        <pt x="171" y="1331" on="0"/>
        <pt x="171" y="1430" on="0"/>
        <pt x="179" y="1489" on="0"/>
        <pt x="190" y="1505" on="1"/>
        <pt x="209" y="1533" on="0"/>
        <pt x="271" y="1533" on="1"/>
        <pt x="1185" y="1533" on="1"/>
        <pt x="1222" y="1533" on="0"/>
        <pt x="1262" y="1487" on="1"/>
        <pt x="1301" y="1442" on="0"/>
        <pt x="1289" y="1416" on="1"/>
        <pt x="397" y="146" on="1"/>
        <pt x="915" y="166" on="1"/>
        <pt x="1051" y="172" on="0"/>
        <pt x="1100" y="230" on="1"/>
        <pt x="1142" y="280" on="0"/>
        <pt x="1155" y="426" on="1"/>
        <pt x="1156" y="436" on="0"/>
        <pt x="1197" y="454" on="0"/>
        <pt x="1250" y="454" on="0"/>
        <pt x="1271" y="416" on="0"/>
        <pt x="1288" y="344" on="0"/>
        <pt x="1294" y="305" on="1"/>
        <pt x="1306" y="227" on="0"/>
        <pt x="1306" y="114" on="0"/>
        <pt x="1276" y="48" on="0"/>
        <pt x="1246" y="30" on="1"/>
        <pt x="1196" y="0" on="0"/>
        <pt x="1071" y="0" on="1"/>
        <pt x="188" y="0" on="1"/>
        <pt x="148" y="0" on="0"/>
        <pt x="112" y="56" on="1"/>
        <pt x="76" y="110" on="0"/>
      </contour>
    </TTGlyph>
    <TTGlyph name="Zacute" xMin="76" yMin="0" xMax="1306" yMax="1966">
      <component glyphName=".ttfautohint" x="92" y="0" flags="0x0"/>
      <component glyphName="Z" x="0" y="0" flags="0x1204"/>
      <component glyphName="acute.cap" x="390" y="0" flags="0x1004"/>
    </TTGlyph>
    <TTGlyph name="Zcaron" xMin="76" yMin="0" xMax="1306" yMax="1969">
      <component glyphName=".ttfautohint" x="92" y="0" flags="0x0"/>
      <component glyphName="Z" x="0" y="0" flags="0x1204"/>
      <component glyphName="caron.cap" x="143" y="0" flags="0x1004"/>
    </TTGlyph>
    <TTGlyph name="Zdotaccent" xMin="76" yMin="0" xMax="1306" yMax="1956">
      <component glyphName=".ttfautohint" x="92" y="0" flags="0x0"/>
      <component glyphName="Z" x="0" y="0" flags="0x1204"/>
      <component glyphName="dotaccent.cap" x="318" y="0" flags="0x1004"/>
    </TTGlyph>
    <TTGlyph name="a" xMin="109" yMin="-76" xMax="1221" yMax="1219">
      <contour>
        <pt x="815" y="127" on="1"/>
        <pt x="669" y="-19" on="0"/>
        <pt x="462" y="-19" on="1"/>
        <pt x="302" y="-19" on="0"/>
        <pt x="206" y="73" on="1"/>
        <pt x="109" y="166" on="0"/>
        <pt x="109" y="314" on="1"/>
        <pt x="109" y="498" on="0"/>
        <pt x="273" y="590" on="1"/>
        <pt x="421" y="674" on="0"/>
        <pt x="690" y="674" on="1"/>
        <pt x="815" y="674" on="1"/>
        <pt x="816" y="712" on="0"/>
        <pt x="816" y="748" on="1"/>
        <pt x="816" y="823" on="1"/>
        <pt x="816" y="957" on="0"/>
        <pt x="777" y="1012" on="1"/>
        <pt x="733" y="1074" on="0"/>
        <pt x="627" y="1074" on="1"/>
        <pt x="384" y="1074" on="0"/>
        <pt x="377" y="900" on="1"/>
        <pt x="376" y="873" on="0"/>
        <pt x="378" y="855" on="1"/>
        <pt x="358" y="839" on="0"/>
        <pt x="263" y="839" on="0"/>
        <pt x="220" y="861" on="0"/>
        <pt x="204" y="880" on="1"/>
        <pt x="170" y="919" on="0"/>
        <pt x="170" y="1040" on="0"/>
        <pt x="241" y="1131" on="0"/>
        <pt x="302" y="1160" on="1"/>
        <pt x="421" y="1219" on="0"/>
        <pt x="745" y="1219" on="0"/>
        <pt x="908" y="1156" on="0"/>
        <pt x="956" y="1104" on="1"/>
        <pt x="1041" y="1012" on="0"/>
        <pt x="1041" y="857" on="1"/>
        <pt x="1031" y="377" on="1"/>
        <pt x="1031" y="246" on="0"/>
        <pt x="1056" y="176" on="0"/>
        <pt x="1091" y="152" on="0"/>
        <pt x="1142" y="152" on="0"/>
        <pt x="1158" y="160" on="1"/>
        <pt x="1186" y="173" on="1"/>
        <pt x="1200" y="178" on="0"/>
        <pt x="1221" y="145" on="0"/>
        <pt x="1221" y="120" on="0"/>
        <pt x="1200" y="80" on="0"/>
        <pt x="1143" y="35" on="0"/>
        <pt x="1107" y="18" on="1"/>
        <pt x="908" y="-76" on="0"/>
        <pt x="836" y="62" on="1"/>
        <pt x="821" y="89" on="0"/>
      </contour>
      <contour>
        <pt x="812" y="258" on="1"/>
        <pt x="812" y="402" on="0"/>
        <pt x="814" y="544" on="1"/>
        <pt x="606" y="536" on="0"/>
        <pt x="457" y="499" on="0"/>
        <pt x="391" y="465" on="0"/>
        <pt x="372" y="442" on="1"/>
        <pt x="341" y="404" on="0"/>
        <pt x="341" y="251" on="0"/>
        <pt x="449" y="160" on="0"/>
        <pt x="550" y="160" on="1"/>
        <pt x="693" y="160" on="0"/>
      </contour>
    </TTGlyph>
    <TTGlyph name="aacute" xMin="109" yMin="-76" xMax="1221" yMax="1769">
      <component glyphName=".ttfautohint" x="109" y="0" flags="0x0"/>
      <component glyphName="a" x="0" y="0" flags="0x1204"/>
      <component glyphName="acute" x="348" y="0" flags="0x1004"/>
    </TTGlyph>
    <TTGlyph name="abreve" xMin="109" yMin="-76" xMax="1221" yMax="1746">
      <component glyphName=".ttfautohint" x="109" y="0" flags="0x0"/>
      <component glyphName="a" x="0" y="0" flags="0x1204"/>
      <component glyphName="breve" x="-120" y="0" flags="0x1004"/>
    </TTGlyph>
    <TTGlyph name="acircumflex" xMin="109" yMin="-76" xMax="1221" yMax="1769">
      <component glyphName=".ttfautohint" x="109" y="0" flags="0x0"/>
      <component glyphName="a" x="0" y="0" flags="0x1204"/>
      <component glyphName="circumflex" x="182" y="0" flags="0x1004"/>
    </TTGlyph>
    <TTGlyph name="acute" xMin="143" yMin="1347" xMax="695" yMax="1769">
      <contour>
        <pt x="219" y="1347" on="1"/>
        <pt x="191" y="1347" on="0"/>
        <pt x="173" y="1364" on="1"/>
        <pt x="143" y="1391" on="0"/>
        <pt x="143" y="1401" on="1"/>
        <pt x="143" y="1420" on="0"/>
        <pt x="149" y="1428" on="1"/>
        <pt x="469" y="1747" on="1"/>
        <pt x="491" y="1769" on="0"/>
        <pt x="550" y="1769" on="0"/>
        <pt x="612" y="1734" on="0"/>
        <pt x="638" y="1708" on="1"/>
        <pt x="695" y="1649" on="0"/>
        <pt x="695" y="1602" on="1"/>
        <pt x="695" y="1578" on="0"/>
        <pt x="675" y="1568" on="1"/>
      </contour>
    </TTGlyph>
    <TTGlyph name="acute.cap" xMin="212" yMin="1653" xMax="739" yMax="1966">
      <contour>
        <pt x="266" y="1653" on="1"/>
        <pt x="236" y="1653" on="0"/>
        <pt x="216" y="1700" on="1"/>
        <pt x="212" y="1711" on="0"/>
        <pt x="212" y="1716" on="1"/>
        <pt x="212" y="1730" on="0"/>
        <pt x="219" y="1737" on="1"/>
        <pt x="566" y="1950" on="1"/>
        <pt x="588" y="1966" on="0"/>
        <pt x="636" y="1966" on="0"/>
        <pt x="682" y="1935" on="0"/>
        <pt x="700" y="1912" on="1"/>
        <pt x="739" y="1861" on="0"/>
        <pt x="739" y="1812" on="1"/>
        <pt x="739" y="1775" on="0"/>
        <pt x="710" y="1765" on="1"/>
      </contour>
    </TTGlyph>
    <TTGlyph name="adieresis" xMin="109" yMin="-76" xMax="1221" yMax="1717">
      <component glyphName=".ttfautohint" x="109" y="0" flags="0x0"/>
      <component glyphName="a" x="0" y="0" flags="0x1204"/>
      <component glyphName="dieresis" x="81" y="0" flags="0x1004"/>
    </TTGlyph>
    <TTGlyph name="ae" xMin="109" yMin="-19" xMax="1803" yMax="1219">
      <contour>
        <pt x="915" y="179" on="1"/>
        <pt x="730" y="-19" on="0"/>
        <pt x="462" y="-19" on="1"/>
        <pt x="302" y="-19" on="0"/>
        <pt x="206" y="73" on="1"/>
        <pt x="109" y="166" on="0"/>
        <pt x="109" y="314" on="1"/>
        <pt x="109" y="499" on="0"/>
        <pt x="264" y="590" on="1"/>
        <pt x="405" y="674" on="0"/>
        <pt x="670" y="674" on="1"/>
        <pt x="816" y="674" on="1"/>
        <pt x="816" y="828" on="1"/>
        <pt x="816" y="969" on="0"/>
        <pt x="770" y="1023" on="1"/>
        <pt x="726" y="1074" on="0"/>
        <pt x="616" y="1074" on="1"/>
        <pt x="471" y="1074" on="0"/>
        <pt x="410" y="998" on="1"/>
        <pt x="368" y="945" on="0"/>
        <pt x="378" y="855" on="1"/>
        <pt x="358" y="839" on="0"/>
        <pt x="263" y="839" on="0"/>
        <pt x="220" y="861" on="0"/>
        <pt x="204" y="880" on="1"/>
        <pt x="170" y="919" on="0"/>
        <pt x="170" y="1042" on="0"/>
        <pt x="240" y="1133" on="0"/>
        <pt x="300" y="1162" on="1"/>
        <pt x="418" y="1219" on="0"/>
        <pt x="610" y="1219" on="1"/>
        <pt x="907" y="1219" on="0"/>
        <pt x="1000" y="1043" on="1"/>
        <pt x="1087" y="1131" on="0"/>
        <pt x="1300" y="1219" on="0"/>
        <pt x="1515" y="1219" on="0"/>
        <pt x="1667" y="1130" on="0"/>
        <pt x="1714" y="1056" on="1"/>
        <pt x="1803" y="914" on="0"/>
        <pt x="1803" y="681" on="1"/>
        <pt x="1803" y="594" on="0"/>
        <pt x="1730" y="592" on="1"/>
        <pt x="1034" y="577" on="1"/>
        <pt x="1033" y="550" on="1"/>
        <pt x="1044" y="349" on="0"/>
        <pt x="1150" y="250" on="1"/>
        <pt x="1239" y="168" on="0"/>
        <pt x="1377" y="168" on="1"/>
        <pt x="1590" y="168" on="0"/>
        <pt x="1723" y="257" on="1"/>
        <pt x="1732" y="257" on="0"/>
        <pt x="1745" y="242" on="1"/>
        <pt x="1770" y="212" on="0"/>
        <pt x="1770" y="190" on="1"/>
        <pt x="1770" y="141" on="0"/>
        <pt x="1650" y="67" on="1"/>
        <pt x="1513" y="-19" on="0"/>
        <pt x="1328" y="-19" on="1"/>
        <pt x="1051" y="-19" on="0"/>
      </contour>
      <contour>
        <pt x="1038" y="706" on="1"/>
        <pt x="1326" y="720" on="0"/>
        <pt x="1565" y="743" on="1"/>
        <pt x="1576" y="1061" on="0"/>
        <pt x="1345" y="1061" on="1"/>
        <pt x="1216" y="1061" on="0"/>
        <pt x="1134" y="961" on="1"/>
        <pt x="1059" y="869" on="0"/>
      </contour>
      <contour>
        <pt x="818" y="236" on="1"/>
        <pt x="817" y="512" on="1"/>
        <pt x="816" y="520" on="0"/>
        <pt x="816" y="528" on="1"/>
        <pt x="816" y="543" on="1"/>
        <pt x="524" y="534" on="0"/>
        <pt x="424" y="484" on="1"/>
        <pt x="374" y="458" on="0"/>
        <pt x="341" y="386" on="0"/>
        <pt x="341" y="255" on="0"/>
        <pt x="449" y="160" on="0"/>
        <pt x="688" y="160" on="0"/>
      </contour>
    </TTGlyph>
    <TTGlyph name="aeacute" xMin="116" yMin="-19" xMax="1810" yMax="1769">
      <component glyphName=".ttfautohint" x="116" y="0" flags="0x0"/>
      <component glyphName="ae" x="7" y="0" flags="0x1004"/>
      <component glyphName="acute" x="762" y="0" flags="0x1004"/>
    </TTGlyph>
    <TTGlyph name="agrave" xMin="109" yMin="-76" xMax="1221" yMax="1769">
      <component glyphName=".ttfautohint" x="109" y="0" flags="0x0"/>
      <component glyphName="a" x="0" y="0" flags="0x1204"/>
      <component glyphName="grave" x="171" y="0" flags="0x1004"/>
    </TTGlyph>
    <TTGlyph name="amacron" xMin="109" yMin="-76" xMax="1221" yMax="1615">
      <component glyphName=".ttfautohint" x="109" y="0" flags="0x0"/>
      <component glyphName="a" x="0" y="0" flags="0x1204"/>
      <component glyphName="macron" x="122" y="0" flags="0x1004"/>
    </TTGlyph>
    <TTGlyph name="ampersand" xMin="117" yMin="-21" xMax="1747" yMax="1541">
      <contour>
        <pt x="1171" y="170" on="1"/>
        <pt x="922" y="-19" on="0"/>
        <pt x="624" y="-19" on="1"/>
        <pt x="428" y="-19" on="0"/>
        <pt x="282" y="84" on="1"/>
        <pt x="117" y="201" on="0"/>
        <pt x="117" y="404" on="1"/>
        <pt x="117" y="620" on="0"/>
        <pt x="300" y="767" on="1"/>
        <pt x="353" y="809" on="0"/>
        <pt x="408" y="839" on="1"/>
        <pt x="284" y="1009" on="0"/>
        <pt x="284" y="1143" on="1"/>
        <pt x="284" y="1321" on="0"/>
        <pt x="416" y="1435" on="1"/>
        <pt x="540" y="1541" on="0"/>
        <pt x="707" y="1541" on="1"/>
        <pt x="855" y="1541" on="0"/>
        <pt x="952" y="1482" on="1"/>
        <pt x="1061" y="1416" on="0"/>
        <pt x="1061" y="1297" on="1"/>
        <pt x="1061" y="1167" on="0"/>
        <pt x="942" y="1115" on="1"/>
        <pt x="918" y="1107" on="0"/>
        <pt x="879" y="1107" on="0"/>
        <pt x="859" y="1124" on="1"/>
        <pt x="866" y="1154" on="0"/>
        <pt x="866" y="1196" on="1"/>
        <pt x="866" y="1219" on="1"/>
        <pt x="857" y="1293" on="0"/>
        <pt x="753" y="1380" on="0"/>
        <pt x="662" y="1380" on="1"/>
        <pt x="541" y="1380" on="0"/>
        <pt x="496" y="1294" on="1"/>
        <pt x="479" y="1262" on="0"/>
        <pt x="479" y="1160" on="0"/>
        <pt x="537" y="1037" on="0"/>
        <pt x="638" y="905" on="0"/>
        <pt x="773" y="767" on="0"/>
        <pt x="850" y="698" on="1"/>
        <pt x="1055" y="525" on="0"/>
        <pt x="1171" y="436" on="1"/>
        <pt x="1293" y="627" on="0"/>
        <pt x="1321" y="904" on="1"/>
        <pt x="1354" y="910" on="0"/>
        <pt x="1389" y="910" on="1"/>
        <pt x="1543" y="910" on="0"/>
        <pt x="1543" y="764" on="1"/>
        <pt x="1543" y="633" on="0"/>
        <pt x="1421" y="441" on="1"/>
        <pt x="1381" y="378" on="0"/>
        <pt x="1328" y="317" on="1"/>
        <pt x="1412" y="256" on="1"/>
        <pt x="1521" y="178" on="0"/>
        <pt x="1596" y="178" on="1"/>
        <pt x="1636" y="178" on="0"/>
        <pt x="1690" y="215" on="0"/>
        <pt x="1703" y="219" on="0"/>
        <pt x="1720" y="213" on="0"/>
        <pt x="1728" y="208" on="1"/>
        <pt x="1747" y="194" on="0"/>
        <pt x="1747" y="151" on="0"/>
        <pt x="1709" y="80" on="0"/>
        <pt x="1678" y="50" on="1"/>
        <pt x="1605" y="-21" on="0"/>
        <pt x="1522" y="-21" on="1"/>
        <pt x="1442" y="-21" on="0"/>
        <pt x="1338" y="52" on="1"/>
      </contour>
      <contour>
        <pt x="498" y="730" on="1"/>
        <pt x="352" y="624" on="0"/>
        <pt x="352" y="472" on="1"/>
        <pt x="352" y="318" on="0"/>
        <pt x="448" y="230" on="1"/>
        <pt x="535" y="149" on="0"/>
        <pt x="656" y="149" on="1"/>
        <pt x="875" y="149" on="0"/>
        <pt x="1028" y="273" on="1"/>
        <pt x="747" y="487" on="0"/>
        <pt x="553" y="670" on="0"/>
      </contour>
    </TTGlyph>
    <TTGlyph name="aogonek" xMin="109" yMin="-514" xMax="1224" yMax="1219">
      <contour>
        <pt x="815" y="127" on="1"/>
        <pt x="669" y="-19" on="0"/>
        <pt x="462" y="-19" on="1"/>
        <pt x="302" y="-19" on="0"/>
        <pt x="206" y="73" on="1"/>
        <pt x="109" y="166" on="0"/>
        <pt x="109" y="314" on="1"/>
        <pt x="109" y="498" on="0"/>
        <pt x="273" y="590" on="1"/>
        <pt x="421" y="674" on="0"/>
        <pt x="690" y="674" on="1"/>
        <pt x="815" y="674" on="1"/>
        <pt x="816" y="712" on="0"/>
        <pt x="816" y="748" on="1"/>
        <pt x="816" y="823" on="1"/>
        <pt x="816" y="957" on="0"/>
        <pt x="777" y="1012" on="1"/>
        <pt x="733" y="1074" on="0"/>
        <pt x="627" y="1074" on="1"/>
        <pt x="384" y="1074" on="0"/>
        <pt x="377" y="900" on="1"/>
        <pt x="376" y="873" on="0"/>
        <pt x="378" y="855" on="1"/>
        <pt x="358" y="839" on="0"/>
        <pt x="263" y="839" on="0"/>
        <pt x="220" y="861" on="0"/>
        <pt x="204" y="880" on="1"/>
        <pt x="170" y="919" on="0"/>
        <pt x="170" y="1040" on="0"/>
        <pt x="241" y="1131" on="0"/>
        <pt x="302" y="1160" on="1"/>
        <pt x="421" y="1219" on="0"/>
        <pt x="745" y="1219" on="0"/>
        <pt x="908" y="1156" on="0"/>
        <pt x="956" y="1104" on="1"/>
        <pt x="1041" y="1012" on="0"/>
        <pt x="1041" y="857" on="1"/>
        <pt x="1031" y="377" on="1"/>
        <pt x="1031" y="246" on="0"/>
        <pt x="1056" y="176" on="0"/>
        <pt x="1091" y="152" on="0"/>
        <pt x="1142" y="152" on="0"/>
        <pt x="1158" y="160" on="1"/>
        <pt x="1186" y="173" on="1"/>
        <pt x="1200" y="178" on="0"/>
        <pt x="1221" y="145" on="0"/>
        <pt x="1221" y="137" on="1"/>
        <pt x="1221" y="87" on="0"/>
        <pt x="1148" y="41" on="1"/>
        <pt x="1150" y="40" on="1"/>
        <pt x="895" y="-112" on="0"/>
        <pt x="895" y="-232" on="1"/>
        <pt x="895" y="-335" on="0"/>
        <pt x="1014" y="-335" on="1"/>
        <pt x="1082" y="-335" on="0"/>
        <pt x="1150" y="-287" on="1"/>
        <pt x="1169" y="-274" on="0"/>
        <pt x="1181" y="-262" on="1"/>
        <pt x="1224" y="-278" on="0"/>
        <pt x="1224" y="-335" on="0"/>
        <pt x="1171" y="-405" on="0"/>
        <pt x="1128" y="-437" on="1"/>
        <pt x="1023" y="-514" on="0"/>
        <pt x="915" y="-514" on="1"/>
        <pt x="773" y="-514" on="0"/>
        <pt x="719" y="-400" on="1"/>
        <pt x="701" y="-362" on="0"/>
        <pt x="701" y="-312" on="1"/>
        <pt x="701" y="-143" on="0"/>
        <pt x="920" y="-12" on="1"/>
        <pt x="830" y="16" on="0"/>
      </contour>
      <contour>
        <pt x="812" y="258" on="1"/>
        <pt x="812" y="402" on="0"/>
        <pt x="814" y="544" on="1"/>
        <pt x="606" y="536" on="0"/>
        <pt x="457" y="499" on="0"/>
        <pt x="391" y="465" on="0"/>
        <pt x="372" y="442" on="1"/>
        <pt x="341" y="404" on="0"/>
        <pt x="341" y="251" on="0"/>
        <pt x="449" y="160" on="0"/>
        <pt x="550" y="160" on="1"/>
        <pt x="693" y="160" on="0"/>
      </contour>
    </TTGlyph>
    <TTGlyph name="approxequal" xMin="122" yMin="278" xMax="1070" yMax="1031">
      <component glyphName=".ttfautohint" x="122" y="278" flags="0x0"/>
      <component glyphName="asciitilde" x="0" y="-200" flags="0x1204"/>
      <component glyphName="asciitilde" x="0" y="-611" flags="0x1004"/>
    </TTGlyph>
    <TTGlyph name="aring" xMin="109" yMin="-76" xMax="1221" yMax="1854">
      <component glyphName=".ttfautohint" x="109" y="0" flags="0x0"/>
      <component glyphName="a" x="0" y="0" flags="0x1204"/>
      <component glyphName="ring" x="-47" y="0" flags="0x1004"/>
    </TTGlyph>
    <TTGlyph name="asciicircum" xMin="268" yMin="380" xMax="1393" yMax="1534">
      <contour>
        <pt x="396" y="380" on="1"/>
        <pt x="268" y="380" on="0"/>
        <pt x="268" y="447" on="1"/>
        <pt x="268" y="457" on="0"/>
        <pt x="278" y="482" on="1"/>
        <pt x="705" y="1465" on="1"/>
        <pt x="736" y="1534" on="0"/>
        <pt x="827" y="1534" on="1"/>
        <pt x="873" y="1534" on="0"/>
        <pt x="949" y="1497" on="0"/>
        <pt x="963" y="1465" on="1"/>
        <pt x="1383" y="471" on="0"/>
        <pt x="1393" y="448" on="0"/>
        <pt x="1393" y="438" on="1"/>
        <pt x="1393" y="381" on="0"/>
        <pt x="1248" y="381" on="1"/>
        <pt x="1220" y="381" on="0"/>
        <pt x="1194" y="430" on="1"/>
        <pt x="837" y="1309" on="1"/>
        <pt x="462" y="437" on="1"/>
        <pt x="428" y="380" on="0"/>
      </contour>
    </TTGlyph>
    <TTGlyph name="asciitilde" xMin="122" yMin="889" xMax="1070" yMax="1231">
      <contour>
        <pt x="378" y="1029" on="1"/>
        <pt x="264" y="1029" on="0"/>
        <pt x="183" y="902" on="1"/>
        <pt x="122" y="919" on="0"/>
        <pt x="122" y="977" on="1"/>
        <pt x="122" y="1038" on="0"/>
        <pt x="212" y="1130" on="1"/>
        <pt x="312" y="1231" on="0"/>
        <pt x="426" y="1231" on="1"/>
        <pt x="493" y="1231" on="0"/>
        <pt x="591" y="1178" on="0"/>
        <pt x="648" y="1141" on="0"/>
        <pt x="678" y="1125" on="1"/>
        <pt x="749" y="1088" on="0"/>
        <pt x="820" y="1088" on="1"/>
        <pt x="921" y="1088" on="0"/>
        <pt x="1009" y="1217" on="1"/>
        <pt x="1047" y="1217" on="0"/>
        <pt x="1065" y="1168" on="1"/>
        <pt x="1070" y="1155" on="0"/>
        <pt x="1070" y="1111" on="0"/>
        <pt x="1018" y="1025" on="0"/>
        <pt x="976" y="985" on="1"/>
        <pt x="874" y="889" on="0"/>
        <pt x="766" y="889" on="1"/>
        <pt x="699" y="889" on="0"/>
        <pt x="600" y="941" on="0"/>
        <pt x="544" y="977" on="0"/>
        <pt x="514" y="992" on="1"/>
        <pt x="443" y="1029" on="0"/>
      </contour>
    </TTGlyph>
    <TTGlyph name="asterisk" xMin="151" yMin="1012" xMax="1139" yMax="1969">
      <contour>
        <pt x="498" y="1049" on="1"/>
        <pt x="472" y="1012" on="0"/>
        <pt x="373" y="1012" on="0"/>
        <pt x="339" y="1039" on="1"/>
        <pt x="276" y="1088" on="0"/>
        <pt x="276" y="1151" on="1"/>
        <pt x="276" y="1197" on="0"/>
        <pt x="308" y="1224" on="1"/>
        <pt x="342" y="1251" on="0"/>
        <pt x="380" y="1280" on="1"/>
        <pt x="380" y="1280" on="0"/>
        <pt x="446" y="1331" on="1"/>
        <pt x="510" y="1380" on="0"/>
        <pt x="556" y="1426" on="1"/>
        <pt x="487" y="1442" on="0"/>
        <pt x="335" y="1451" on="0"/>
        <pt x="290" y="1454" on="1"/>
        <pt x="236" y="1458" on="0"/>
        <pt x="189" y="1475" on="0"/>
        <pt x="151" y="1530" on="0"/>
        <pt x="151" y="1597" on="0"/>
        <pt x="175" y="1664" on="0"/>
        <pt x="238" y="1715" on="0"/>
        <pt x="260" y="1715" on="1"/>
        <pt x="294" y="1715" on="0"/>
        <pt x="307" y="1710" on="1"/>
        <pt x="339" y="1692" on="1"/>
        <pt x="467" y="1603" on="1"/>
        <pt x="533" y="1559" on="0"/>
        <pt x="591" y="1530" on="1"/>
        <pt x="578" y="1626" on="0"/>
        <pt x="558" y="1704" on="1"/>
        <pt x="527" y="1825" on="1"/>
        <pt x="522" y="1840" on="0"/>
        <pt x="522" y="1885" on="0"/>
        <pt x="543" y="1924" on="0"/>
        <pt x="561" y="1938" on="1"/>
        <pt x="599" y="1969" on="0"/>
        <pt x="682" y="1969" on="0"/>
        <pt x="731" y="1950" on="0"/>
        <pt x="748" y="1934" on="1"/>
        <pt x="781" y="1903" on="0"/>
        <pt x="781" y="1862" on="1"/>
        <pt x="781" y="1838" on="0"/>
        <pt x="768" y="1792" on="1"/>
        <pt x="732" y="1672" on="1"/>
        <pt x="709" y="1600" on="0"/>
        <pt x="698" y="1528" on="1"/>
        <pt x="769" y="1566" on="0"/>
        <pt x="811" y="1594" on="1"/>
        <pt x="952" y="1692" on="1"/>
        <pt x="992" y="1715" on="0"/>
        <pt x="1052" y="1715" on="0"/>
        <pt x="1115" y="1664" on="0"/>
        <pt x="1139" y="1597" on="0"/>
        <pt x="1139" y="1530" on="0"/>
        <pt x="1101" y="1475" on="0"/>
        <pt x="1082" y="1468" on="1"/>
        <pt x="1050" y="1457" on="0"/>
        <pt x="1002" y="1454" on="1"/>
        <pt x="879" y="1446" on="1"/>
        <pt x="803" y="1442" on="0"/>
        <pt x="734" y="1426" on="1"/>
        <pt x="780" y="1380" on="0"/>
        <pt x="826" y="1345" on="1"/>
        <pt x="967" y="1236" on="1"/>
        <pt x="991" y="1216" on="0"/>
        <pt x="1014" y="1186" on="0"/>
        <pt x="1014" y="1154" on="1"/>
        <pt x="1014" y="1088" on="0"/>
        <pt x="960" y="1046" on="1"/>
        <pt x="917" y="1012" on="0"/>
        <pt x="881" y="1012" on="1"/>
        <pt x="803" y="1012" on="0"/>
        <pt x="771" y="1083" on="1"/>
        <pt x="712" y="1226" on="1"/>
        <pt x="683" y="1295" on="0"/>
        <pt x="646" y="1358" on="1"/>
        <pt x="610" y="1295" on="0"/>
        <pt x="580" y="1226" on="1"/>
        <pt x="519" y="1083" on="1"/>
        <pt x="511" y="1066" on="0"/>
      </contour>
    </TTGlyph>
    <TTGlyph name="at" xMin="160" yMin="-498" xMax="2290" yMax="1668">
      <contour>
        <pt x="1704" y="-223" on="1"/>
        <pt x="1708" y="-222" on="1"/>
        <pt x="1721" y="-222" on="0"/>
        <pt x="1743" y="-259" on="0"/>
        <pt x="1743" y="-308" on="0"/>
        <pt x="1721" y="-345" on="0"/>
        <pt x="1651" y="-402" on="0"/>
        <pt x="1581" y="-430" on="1"/>
        <pt x="1411" y="-498" on="0"/>
        <pt x="910" y="-498" on="0"/>
        <pt x="552" y="-377" on="0"/>
        <pt x="425" y="-260" on="1"/>
        <pt x="160" y="-14" on="0"/>
        <pt x="160" y="430" on="1"/>
        <pt x="160" y="1009" on="0"/>
        <pt x="584" y="1362" on="1"/>
        <pt x="855" y="1587" on="0"/>
        <pt x="1212" y="1649" on="1"/>
        <pt x="1321" y="1668" on="0"/>
        <pt x="1593" y="1668" on="0"/>
        <pt x="1852" y="1601" on="0"/>
        <pt x="2044" y="1484" on="0"/>
        <pt x="2175" y="1327" on="0"/>
        <pt x="2215" y="1236" on="1"/>
        <pt x="2290" y="1067" on="0"/>
        <pt x="2290" y="676" on="0"/>
        <pt x="2203" y="407" on="0"/>
        <pt x="2064" y="214" on="0"/>
        <pt x="1891" y="91" on="0"/>
        <pt x="1805" y="55" on="1"/>
        <pt x="1652" y="-9" on="0"/>
        <pt x="1518" y="-9" on="1"/>
        <pt x="1397" y="-9" on="0"/>
        <pt x="1363" y="114" on="1"/>
        <pt x="1353" y="150" on="0"/>
        <pt x="1353" y="192" on="1"/>
        <pt x="1187" y="-10" on="0"/>
        <pt x="1018" y="-10" on="1"/>
        <pt x="890" y="-10" on="0"/>
        <pt x="800" y="100" on="1"/>
        <pt x="696" y="230" on="0"/>
        <pt x="696" y="464" on="1"/>
        <pt x="696" y="662" on="0"/>
        <pt x="790" y="838" on="1"/>
        <pt x="881" y="1010" on="0"/>
        <pt x="1031" y="1112" on="1"/>
        <pt x="1187" y="1219" on="0"/>
        <pt x="1362" y="1219" on="1"/>
        <pt x="1472" y="1219" on="0"/>
        <pt x="1564" y="1168" on="1"/>
        <pt x="1623" y="1218" on="0"/>
        <pt x="1732" y="1216" on="0"/>
        <pt x="1773" y="1168" on="0"/>
        <pt x="1778" y="1133" on="1"/>
        <pt x="1706" y="1103" on="0"/>
        <pt x="1680" y="950" on="1"/>
        <pt x="1671" y="901" on="0"/>
        <pt x="1656" y="784" on="0"/>
        <pt x="1644" y="708" on="1"/>
        <pt x="1620" y="554" on="1"/>
        <pt x="1580" y="308" on="0"/>
        <pt x="1580" y="154" on="0"/>
        <pt x="1611" y="154" on="1"/>
        <pt x="1765" y="154" on="0"/>
        <pt x="1886" y="266" on="1"/>
        <pt x="2048" y="416" on="0"/>
        <pt x="2096" y="688" on="1"/>
        <pt x="2111" y="768" on="0"/>
        <pt x="2111" y="844" on="1"/>
        <pt x="2111" y="1174" on="0"/>
        <pt x="1913" y="1353" on="1"/>
        <pt x="1722" y="1526" on="0"/>
        <pt x="1385" y="1526" on="1"/>
        <pt x="1101" y="1526" on="0"/>
        <pt x="862" y="1386" on="1"/>
        <pt x="626" y="1248" on="0"/>
        <pt x="489" y="1010" on="1"/>
        <pt x="346" y="760" on="0"/>
        <pt x="346" y="459" on="1"/>
        <pt x="346" y="74" on="0"/>
        <pt x="557" y="-136" on="1"/>
        <pt x="775" y="-352" on="0"/>
        <pt x="1182" y="-352" on="1"/>
        <pt x="1471" y="-352" on="0"/>
        <pt x="1634" y="-261" on="1"/>
      </contour>
      <contour>
        <pt x="1477" y="988" on="1"/>
        <pt x="1425" y="1057" on="0"/>
        <pt x="1320" y="1057" on="1"/>
        <pt x="1120" y="1057" on="0"/>
        <pt x="1010" y="864" on="1"/>
        <pt x="915" y="700" on="0"/>
        <pt x="915" y="488" on="1"/>
        <pt x="915" y="182" on="0"/>
        <pt x="1120" y="182" on="1"/>
        <pt x="1219" y="182" on="0"/>
        <pt x="1326" y="306" on="1"/>
        <pt x="1355" y="339" on="0"/>
        <pt x="1377" y="372" on="1"/>
      </contour>
    </TTGlyph>
    <TTGlyph name="atilde" xMin="109" yMin="-76" xMax="1221" yMax="1730">
      <component glyphName=".ttfautohint" x="109" y="0" flags="0x0"/>
      <component glyphName="a" x="0" y="0" flags="0x1204"/>
      <component glyphName="tilde" x="-8" y="0" flags="0x1004"/>
    </TTGlyph>
    <TTGlyph name="b" xMin="-5" yMin="-19" xMax="1222" yMax="1769">
      <contour>
        <pt x="415" y="1079" on="1"/>
        <pt x="565" y="1219" on="0"/>
        <pt x="750" y="1219" on="1"/>
        <pt x="954" y="1219" on="0"/>
        <pt x="1082" y="1078" on="1"/>
        <pt x="1222" y="926" on="0"/>
        <pt x="1222" y="654" on="1"/>
        <pt x="1222" y="348" on="0"/>
        <pt x="1030" y="158" on="1"/>
        <pt x="849" y="-19" on="0"/>
        <pt x="602" y="-19" on="1"/>
        <pt x="441" y="-19" on="0"/>
        <pt x="281" y="54" on="1"/>
        <pt x="229" y="77" on="0"/>
        <pt x="192" y="107" on="1"/>
        <pt x="192" y="1475" on="1"/>
        <pt x="192" y="1544" on="0"/>
        <pt x="178" y="1564" on="1"/>
        <pt x="157" y="1596" on="0"/>
        <pt x="104" y="1596" on="1"/>
        <pt x="80" y="1596" on="0"/>
        <pt x="38" y="1587" on="0"/>
        <pt x="22" y="1596" on="0"/>
        <pt x="16" y="1604" on="1"/>
        <pt x="-5" y="1636" on="0"/>
        <pt x="66" y="1688" on="1"/>
        <pt x="176" y="1769" on="0"/>
        <pt x="283" y="1769" on="1"/>
        <pt x="397" y="1769" on="0"/>
        <pt x="411" y="1646" on="1"/>
        <pt x="415" y="1609" on="0"/>
        <pt x="415" y="1568" on="1"/>
      </contour>
      <contour>
        <pt x="415" y="920" on="1"/>
        <pt x="415" y="219" on="1"/>
        <pt x="509" y="141" on="0"/>
        <pt x="640" y="141" on="1"/>
        <pt x="795" y="141" on="0"/>
        <pt x="892" y="256" on="1"/>
        <pt x="995" y="378" on="0"/>
        <pt x="995" y="591" on="1"/>
        <pt x="995" y="815" on="0"/>
        <pt x="904" y="928" on="1"/>
        <pt x="823" y="1031" on="0"/>
        <pt x="532" y="1031" on="0"/>
      </contour>
    </TTGlyph>
    <TTGlyph name="backslash" xMin="-5" yMin="-176" xMax="925" yMax="1827">
      <component glyphName=".ttfautohint" x="1" y="0" flags="0x0"/>
      <component glyphName="slash" x="921" y="0" scalex="-0.999938964844" scaley="1.0" flags="0x1004"/>
    </TTGlyph>
    <TTGlyph name="bar" xMin="318" yMin="-221" xMax="506" yMax="1873">
      <contour>
        <pt x="318" y="1860" on="1"/>
        <pt x="340" y="1873" on="0"/>
        <pt x="409" y="1873" on="0"/>
        <pt x="451" y="1866" on="0"/>
        <pt x="468" y="1858" on="1"/>
        <pt x="506" y="1842" on="0"/>
        <pt x="506" y="1814" on="1"/>
        <pt x="506" y="-210" on="1"/>
        <pt x="476" y="-221" on="0"/>
        <pt x="416" y="-221" on="0"/>
        <pt x="373" y="-214" on="0"/>
        <pt x="356" y="-206" on="1"/>
        <pt x="318" y="-190" on="0"/>
        <pt x="318" y="-165" on="1"/>
      </contour>
    </TTGlyph>
    <TTGlyph name="braceleft" xMin="97" yMin="-482" xMax="933" yMax="1958">
      <contour>
        <pt x="372" y="-231" on="0"/>
        <pt x="320" y="-98" on="0"/>
        <pt x="320" y="45" on="0"/>
        <pt x="334" y="163" on="0"/>
        <pt x="343" y="220" on="1"/>
        <pt x="366" y="364" on="0"/>
        <pt x="366" y="479" on="0"/>
        <pt x="339" y="548" on="0"/>
        <pt x="294" y="601" on="0"/>
        <pt x="238" y="641" on="0"/>
        <pt x="209" y="654" on="1"/>
        <pt x="157" y="679" on="0"/>
        <pt x="105" y="689" on="1"/>
        <pt x="97" y="701" on="0"/>
        <pt x="97" y="738" on="1"/>
        <pt x="97" y="776" on="0"/>
        <pt x="105" y="788" on="1"/>
        <pt x="265" y="820" on="0"/>
        <pt x="336" y="930" on="1"/>
        <pt x="366" y="976" on="0"/>
        <pt x="366" y="1093" on="0"/>
        <pt x="352" y="1201" on="0"/>
        <pt x="343" y="1258" on="1"/>
        <pt x="320" y="1402" on="0"/>
        <pt x="320" y="1574" on="0"/>
        <pt x="372" y="1707" on="0"/>
        <pt x="459" y="1811" on="0"/>
        <pt x="569" y="1886" on="0"/>
        <pt x="628" y="1910" on="1"/>
        <pt x="741" y="1958" on="0"/>
        <pt x="844" y="1958" on="1"/>
        <pt x="891" y="1958" on="0"/>
        <pt x="914" y="1920" on="1"/>
        <pt x="933" y="1889" on="0"/>
        <pt x="928" y="1859" on="1"/>
        <pt x="764" y="1859" on="0"/>
        <pt x="664" y="1763" on="1"/>
        <pt x="556" y="1661" on="0"/>
        <pt x="556" y="1479" on="1"/>
        <pt x="556" y="1398" on="0"/>
        <pt x="573" y="1295" on="1"/>
        <pt x="605" y="1101" on="0"/>
        <pt x="605" y="987" on="0"/>
        <pt x="548" y="881" on="0"/>
        <pt x="504" y="843" on="1"/>
        <pt x="428" y="776" on="0"/>
        <pt x="313" y="741" on="1"/>
        <pt x="313" y="735" on="1"/>
        <pt x="503" y="677" on="0"/>
        <pt x="576" y="541" on="1"/>
        <pt x="605" y="488" on="0"/>
        <pt x="605" y="384" on="0"/>
        <pt x="590" y="284" on="0"/>
        <pt x="580" y="227" on="1"/>
        <pt x="556" y="80" on="0"/>
        <pt x="556" y="-96" on="0"/>
        <pt x="613" y="-238" on="0"/>
        <pt x="664" y="-286" on="1"/>
        <pt x="766" y="-383" on="0"/>
        <pt x="928" y="-383" on="1"/>
        <pt x="933" y="-412" on="0"/>
        <pt x="919" y="-435" on="1"/>
        <pt x="891" y="-482" on="0"/>
        <pt x="799" y="-482" on="0"/>
        <pt x="686" y="-459" on="0"/>
        <pt x="569" y="-410" on="0"/>
        <pt x="459" y="-335" on="0"/>
      </contour>
    </TTGlyph>
    <TTGlyph name="braceright" xMin="93" yMin="-482" xMax="929" yMax="1958">
      <component glyphName=".ttfautohint" x="97" y="0" flags="0x0"/>
      <component glyphName="braceleft" x="1026" y="0" scalex="-0.999938964844" scaley="1.0" flags="0x1004"/>
    </TTGlyph>
    <TTGlyph name="bracketleft" xMin="145" yMin="-408" xMax="721" yMax="1931">
      <contour>
        <pt x="710" y="-259" on="1"/>
        <pt x="721" y="-285" on="0"/>
        <pt x="721" y="-354" on="0"/>
        <pt x="692" y="-408" on="0"/>
        <pt x="665" y="-408" on="1"/>
        <pt x="190" y="-408" on="1"/>
        <pt x="157" y="-408" on="0"/>
        <pt x="148" y="-374" on="1"/>
        <pt x="145" y="-366" on="0"/>
        <pt x="145" y="-360" on="1"/>
        <pt x="145" y="1883" on="1"/>
        <pt x="145" y="1910" on="0"/>
        <pt x="178" y="1931" on="0"/>
        <pt x="190" y="1931" on="1"/>
        <pt x="665" y="1931" on="1"/>
        <pt x="692" y="1931" on="0"/>
        <pt x="721" y="1877" on="0"/>
        <pt x="721" y="1808" on="0"/>
        <pt x="710" y="1782" on="1"/>
        <pt x="353" y="1782" on="1"/>
        <pt x="353" y="-259" on="1"/>
      </contour>
    </TTGlyph>
    <TTGlyph name="bracketright" xMin="145" yMin="-408" xMax="722" yMax="1931">
      <component glyphName=".ttfautohint" x="145" y="0" flags="0x0"/>
      <component glyphName="bracketleft" x="867" y="0" scalex="-0.999938964844" scaley="1.0" flags="0x1004"/>
    </TTGlyph>
    <TTGlyph name="breve" xMin="347" yMin="1358" xMax="1116" yMax="1746">
      <contour>
        <pt x="726" y="1358" on="1"/>
        <pt x="654" y="1358" on="0"/>
        <pt x="527" y="1402" on="0"/>
        <pt x="478" y="1438" on="1"/>
        <pt x="375" y="1512" on="0"/>
        <pt x="350" y="1618" on="1"/>
        <pt x="347" y="1649" on="0"/>
        <pt x="422" y="1695" on="1"/>
        <pt x="495" y="1739" on="0"/>
        <pt x="547" y="1739" on="1"/>
        <pt x="581" y="1602" on="0"/>
        <pt x="680" y="1552" on="1"/>
        <pt x="716" y="1533" on="0"/>
        <pt x="798" y="1533" on="0"/>
        <pt x="866" y="1553" on="0"/>
        <pt x="898" y="1576" on="1"/>
        <pt x="968" y="1625" on="0"/>
        <pt x="1009" y="1730" on="1"/>
        <pt x="1020" y="1746" on="0"/>
        <pt x="1053" y="1729" on="1"/>
        <pt x="1116" y="1697" on="0"/>
        <pt x="1108" y="1670" on="1"/>
        <pt x="1071" y="1535" on="0"/>
        <pt x="970" y="1448" on="1"/>
        <pt x="865" y="1358" on="0"/>
      </contour>
    </TTGlyph>
    <TTGlyph name="breve.cap" xMin="627" yMin="1628" xMax="1369" yMax="1976">
      <contour>
        <pt x="986" y="1628" on="1"/>
        <pt x="917" y="1628" on="0"/>
        <pt x="797" y="1662" on="0"/>
        <pt x="750" y="1692" on="1"/>
        <pt x="651" y="1753" on="0"/>
        <pt x="629" y="1841" on="1"/>
        <pt x="627" y="1867" on="0"/>
        <pt x="770" y="1969" on="0"/>
        <pt x="819" y="1969" on="1"/>
        <pt x="854" y="1857" on="0"/>
        <pt x="946" y="1816" on="1"/>
        <pt x="981" y="1801" on="0"/>
        <pt x="1058" y="1801" on="0"/>
        <pt x="1124" y="1817" on="0"/>
        <pt x="1154" y="1836" on="1"/>
        <pt x="1221" y="1876" on="0"/>
        <pt x="1261" y="1959" on="1"/>
        <pt x="1272" y="1976" on="0"/>
        <pt x="1305" y="1959" on="1"/>
        <pt x="1369" y="1926" on="0"/>
        <pt x="1360" y="1900" on="1"/>
        <pt x="1323" y="1782" on="0"/>
        <pt x="1225" y="1707" on="1"/>
        <pt x="1123" y="1628" on="0"/>
      </contour>
    </TTGlyph>
    <TTGlyph name="brokenbar" xMin="318" yMin="-221" xMax="506" yMax="1873">
      <contour>
        <pt x="318" y="1860" on="1"/>
        <pt x="340" y="1873" on="0"/>
        <pt x="409" y="1873" on="0"/>
        <pt x="451" y="1866" on="0"/>
        <pt x="468" y="1858" on="1"/>
        <pt x="506" y="1842" on="0"/>
        <pt x="506" y="1814" on="1"/>
        <pt x="506" y="953" on="1"/>
        <pt x="477" y="941" on="0"/>
        <pt x="415" y="941" on="0"/>
        <pt x="373" y="948" on="0"/>
        <pt x="356" y="956" on="1"/>
        <pt x="318" y="972" on="0"/>
        <pt x="318" y="997" on="1"/>
      </contour>
      <contour>
        <pt x="318" y="695" on="1"/>
        <pt x="340" y="708" on="0"/>
        <pt x="409" y="708" on="0"/>
        <pt x="451" y="701" on="0"/>
        <pt x="468" y="694" on="1"/>
        <pt x="506" y="677" on="0"/>
        <pt x="506" y="649" on="1"/>
        <pt x="506" y="-210" on="1"/>
        <pt x="476" y="-221" on="0"/>
        <pt x="416" y="-221" on="0"/>
        <pt x="373" y="-214" on="0"/>
        <pt x="356" y="-206" on="1"/>
        <pt x="318" y="-190" on="0"/>
        <pt x="318" y="-165" on="1"/>
      </contour>
    </TTGlyph>
    <TTGlyph name="bullet" xMin="151" yMin="265" xMax="677" yMax="792">
      <contour>
        <pt x="414" y="265" on="1"/>
        <pt x="358" y="265" on="0"/>
        <pt x="263" y="305" on="0"/>
        <pt x="228" y="340" on="1"/>
        <pt x="151" y="417" on="0"/>
        <pt x="151" y="527" on="1"/>
        <pt x="151" y="639" on="0"/>
        <pt x="304" y="792" on="0"/>
        <pt x="413" y="792" on="1"/>
        <pt x="525" y="792" on="0"/>
        <pt x="602" y="716" on="1"/>
        <pt x="677" y="640" on="0"/>
        <pt x="677" y="527" on="1"/>
        <pt x="677" y="416" on="0"/>
        <pt x="526" y="265" on="0"/>
      </contour>
    </TTGlyph>
    <TTGlyph name="c" xMin="114" yMin="-19" xMax="1048" yMax="1219">
      <contour>
        <pt x="826" y="854" on="1"/>
        <pt x="827" y="890" on="1"/>
        <pt x="827" y="909" on="0"/>
        <pt x="809" y="1000" on="0"/>
        <pt x="712" y="1058" on="0"/>
        <pt x="563" y="1058" on="0"/>
        <pt x="448" y="983" on="0"/>
        <pt x="412" y="920" on="1"/>
        <pt x="344" y="800" on="0"/>
        <pt x="344" y="599" on="1"/>
        <pt x="344" y="409" on="0"/>
        <pt x="436" y="290" on="1"/>
        <pt x="530" y="168" on="0"/>
        <pt x="684" y="168" on="1"/>
        <pt x="824" y="168" on="0"/>
        <pt x="952" y="245" on="1"/>
        <pt x="983" y="264" on="0"/>
        <pt x="1000" y="278" on="1"/>
        <pt x="1010" y="278" on="0"/>
        <pt x="1023" y="262" on="1"/>
        <pt x="1048" y="233" on="0"/>
        <pt x="1048" y="198" on="0"/>
        <pt x="1020" y="153" on="0"/>
        <pt x="967" y="102" on="0"/>
        <pt x="893" y="50" on="0"/>
        <pt x="847" y="29" on="1"/>
        <pt x="742" y="-19" on="0"/>
        <pt x="522" y="-19" on="0"/>
        <pt x="331" y="56" on="0"/>
        <pt x="262" y="129" on="1"/>
        <pt x="114" y="284" on="0"/>
        <pt x="114" y="555" on="1"/>
        <pt x="114" y="863" on="0"/>
        <pt x="302" y="1050" on="1"/>
        <pt x="473" y="1219" on="0"/>
        <pt x="697" y="1219" on="1"/>
        <pt x="844" y="1219" on="0"/>
        <pt x="942" y="1156" on="1"/>
        <pt x="1045" y="1090" on="0"/>
        <pt x="1045" y="982" on="1"/>
        <pt x="1045" y="923" on="0"/>
        <pt x="1019" y="893" on="1"/>
        <pt x="974" y="840" on="0"/>
        <pt x="855" y="840" on="0"/>
      </contour>
    </TTGlyph>
    <TTGlyph name="cacute" xMin="114" yMin="-19" xMax="1107" yMax="1769">
      <component glyphName=".ttfautohint" x="114" y="0" flags="0x0"/>
      <component glyphName="c" x="0" y="0" flags="0x1204"/>
      <component glyphName="acute" x="412" y="0" flags="0x1004"/>
    </TTGlyph>
    <TTGlyph name="caron" xMin="304" yMin="1345" xMax="983" yMax="1763">
      <contour>
        <pt x="310" y="1696" on="1"/>
        <pt x="304" y="1704" on="0"/>
        <pt x="304" y="1729" on="0"/>
        <pt x="339" y="1763" on="0"/>
        <pt x="364" y="1763" on="1"/>
        <pt x="395" y="1763" on="0"/>
        <pt x="443" y="1726" on="1"/>
        <pt x="643" y="1565" on="1"/>
        <pt x="843" y="1726" on="1"/>
        <pt x="891" y="1763" on="0"/>
        <pt x="947" y="1763" on="0"/>
        <pt x="983" y="1729" on="0"/>
        <pt x="983" y="1720" on="1"/>
        <pt x="983" y="1703" on="0"/>
        <pt x="976" y="1696" on="1"/>
        <pt x="745" y="1391" on="1"/>
        <pt x="718" y="1345" on="0"/>
        <pt x="647" y="1345" on="1"/>
        <pt x="617" y="1345" on="0"/>
        <pt x="554" y="1372" on="0"/>
        <pt x="540" y="1391" on="1"/>
      </contour>
    </TTGlyph>
    <TTGlyph name="caron.cap" xMin="291" yMin="1609" xMax="1001" yMax="1969">
      <contour>
        <pt x="646" y="1609" on="1"/>
        <pt x="591" y="1609" on="0"/>
        <pt x="548" y="1655" on="1"/>
        <pt x="298" y="1885" on="1"/>
        <pt x="291" y="1892" on="0"/>
        <pt x="291" y="1911" on="0"/>
        <pt x="300" y="1933" on="0"/>
        <pt x="307" y="1944" on="1"/>
        <pt x="324" y="1969" on="0"/>
        <pt x="364" y="1969" on="0"/>
        <pt x="388" y="1956" on="1"/>
        <pt x="646" y="1812" on="1"/>
        <pt x="861" y="1931" on="1"/>
        <pt x="882" y="1942" on="0"/>
        <pt x="928" y="1969" on="0"/>
        <pt x="958" y="1969" on="0"/>
        <pt x="978" y="1954" on="0"/>
        <pt x="985" y="1944" on="1"/>
        <pt x="1001" y="1920" on="0"/>
        <pt x="1001" y="1910" on="1"/>
        <pt x="1001" y="1892" on="0"/>
        <pt x="994" y="1885" on="1"/>
        <pt x="744" y="1655" on="1"/>
        <pt x="701" y="1609" on="0"/>
      </contour>
    </TTGlyph>
    <TTGlyph name="caronvertical" xMin="169" yMin="1145" xMax="475" yMax="1809">
      <contour>
        <pt x="192" y="1576" on="1"/>
        <pt x="169" y="1609" on="0"/>
        <pt x="169" y="1688" on="0"/>
        <pt x="191" y="1741" on="0"/>
        <pt x="210" y="1762" on="1"/>
        <pt x="253" y="1809" on="0"/>
        <pt x="359" y="1809" on="0"/>
        <pt x="421" y="1763" on="0"/>
        <pt x="440" y="1728" on="1"/>
        <pt x="475" y="1662" on="0"/>
        <pt x="475" y="1490" on="0"/>
        <pt x="425" y="1338" on="0"/>
        <pt x="354" y="1223" on="0"/>
        <pt x="278" y="1151" on="0"/>
        <pt x="239" y="1145" on="0"/>
        <pt x="217" y="1154" on="0"/>
        <pt x="208" y="1163" on="1"/>
        <pt x="190" y="1182" on="0"/>
        <pt x="186" y="1208" on="1"/>
        <pt x="278" y="1310" on="0"/>
        <pt x="278" y="1414" on="1"/>
        <pt x="278" y="1520" on="0"/>
        <pt x="228" y="1562" on="1"/>
        <pt x="212" y="1576" on="0"/>
      </contour>
    </TTGlyph>
</ttFont>
